<svg width="40" height="40" viewBox="0 0 40 40" fill="none" xmlns="http://www.w3.org/2000/svg">
<circle cx="20" cy="20" r="20" fill="#D9D9D9"/>
<path d="M7.45042 12.8849C7.66116 12.6737 7.91148 12.5062 8.18706 12.3919C8.46263 12.2776 8.75804 12.2187 9.05637 12.2188C9.35471 12.2187 9.65012 12.2776 9.92569 12.3919C10.2013 12.5062 10.4516 12.6737 10.6623 12.8849L19.5007 21.7233L28.3392 12.8849C28.7651 12.459 29.3428 12.2197 29.9451 12.2197C30.5475 12.2197 31.1251 12.459 31.5511 12.8849C31.977 13.3108 32.2163 13.8885 32.2163 14.4909C32.2163 15.0932 31.977 15.6709 31.5511 16.0968L21.0953 26.5526C20.8846 26.7638 20.6342 26.9313 20.3587 27.0456C20.0831 27.1599 19.7877 27.2187 19.4894 27.2187C19.191 27.2187 18.8956 27.1599 18.62 27.0456C18.3445 26.9313 18.0941 26.7638 17.8834 26.5526L7.42764 16.0968C6.56203 15.2312 6.56203 13.7733 7.45042 12.8849Z" fill="#57575A"/>
</svg>
