<svg width="317" height="65" viewBox="0 0 317 65" fill="none" xmlns="http://www.w3.org/2000/svg">
<g filter="url(#filter0_d_282_14835)">
<rect x="4" width="309" height="57" rx="7" fill="#20B15A"/>
</g>
<path d="M78.856 35.592H71.872L70.672 39H67.816L73.792 22.296H76.96L82.936 39H80.056L78.856 35.592ZM78.088 33.36L75.376 25.608L72.64 33.36H78.088ZM83.6624 32.328C83.6624 31 83.9344 29.824 84.4784 28.8C85.0384 27.776 85.7904 26.984 86.7344 26.424C87.6944 25.848 88.7584 25.56 89.9264 25.56C90.7904 25.56 91.6384 25.752 92.4704 26.136C93.3184 26.504 93.9904 27 94.4864 27.624V21.24H97.2464V39H94.4864V37.008C94.0384 37.648 93.4144 38.176 92.6144 38.592C91.8304 39.008 90.9264 39.216 89.9024 39.216C88.7504 39.216 87.6944 38.928 86.7344 38.352C85.7904 37.76 85.0384 36.944 84.4784 35.904C83.9344 34.848 83.6624 33.656 83.6624 32.328ZM94.4864 32.376C94.4864 31.464 94.2944 30.672 93.9104 30C93.5424 29.328 93.0544 28.816 92.4464 28.464C91.8384 28.112 91.1824 27.936 90.4784 27.936C89.7744 27.936 89.1184 28.112 88.5104 28.464C87.9024 28.8 87.4064 29.304 87.0224 29.976C86.6544 30.632 86.4704 31.416 86.4704 32.328C86.4704 33.24 86.6544 34.04 87.0224 34.728C87.4064 35.416 87.9024 35.944 88.5104 36.312C89.1344 36.664 89.7904 36.84 90.4784 36.84C91.1824 36.84 91.8384 36.664 92.4464 36.312C93.0544 35.96 93.5424 35.448 93.9104 34.776C94.2944 34.088 94.4864 33.288 94.4864 32.376ZM98.968 32.328C98.968 31 99.24 29.824 99.784 28.8C100.344 27.776 101.096 26.984 102.04 26.424C103 25.848 104.064 25.56 105.232 25.56C106.096 25.56 106.944 25.752 107.776 26.136C108.624 26.504 109.296 27 109.792 27.624V21.24H112.552V39H109.792V37.008C109.344 37.648 108.72 38.176 107.92 38.592C107.136 39.008 106.232 39.216 105.208 39.216C104.056 39.216 103 38.928 102.04 38.352C101.096 37.76 100.344 36.944 99.784 35.904C99.24 34.848 98.968 33.656 98.968 32.328ZM109.792 32.376C109.792 31.464 109.6 30.672 109.216 30C108.848 29.328 108.36 28.816 107.752 28.464C107.144 28.112 106.488 27.936 105.784 27.936C105.08 27.936 104.424 28.112 103.816 28.464C103.208 28.8 102.712 29.304 102.328 29.976C101.96 30.632 101.776 31.416 101.776 32.328C101.776 33.24 101.96 34.04 102.328 34.728C102.712 35.416 103.208 35.944 103.816 36.312C104.44 36.664 105.096 36.84 105.784 36.84C106.488 36.84 107.144 36.664 107.752 36.312C108.36 35.96 108.848 35.448 109.216 34.776C109.6 34.088 109.792 33.288 109.792 32.376ZM129.124 39L125.284 32.328H123.196V39H120.46V22.32H126.22C127.5 22.32 128.58 22.544 129.46 22.992C130.356 23.44 131.02 24.04 131.452 24.792C131.9 25.544 132.124 26.384 132.124 27.312C132.124 28.4 131.804 29.392 131.164 30.288C130.54 31.168 129.572 31.768 128.26 32.088L132.388 39H129.124ZM123.196 30.144H126.22C127.244 30.144 128.012 29.888 128.524 29.376C129.052 28.864 129.316 28.176 129.316 27.312C129.316 26.448 129.06 25.776 128.548 25.296C128.036 24.8 127.26 24.552 126.22 24.552H123.196V30.144ZM146.784 32.064C146.784 32.56 146.752 33.008 146.688 33.408H136.584C136.664 34.464 137.056 35.312 137.76 35.952C138.464 36.592 139.328 36.912 140.352 36.912C141.824 36.912 142.864 36.296 143.472 35.064H146.424C146.024 36.28 145.296 37.28 144.24 38.064C143.2 38.832 141.904 39.216 140.352 39.216C139.088 39.216 137.952 38.936 136.944 38.376C135.952 37.8 135.168 37 134.592 35.976C134.032 34.936 133.752 33.736 133.752 32.376C133.752 31.016 134.024 29.824 134.568 28.8C135.128 27.76 135.904 26.96 136.896 26.4C137.904 25.84 139.056 25.56 140.352 25.56C141.6 25.56 142.712 25.832 143.688 26.376C144.664 26.92 145.424 27.688 145.968 28.68C146.512 29.656 146.784 30.784 146.784 32.064ZM143.928 31.2C143.912 30.192 143.552 29.384 142.848 28.776C142.144 28.168 141.272 27.864 140.232 27.864C139.288 27.864 138.48 28.168 137.808 28.776C137.136 29.368 136.736 30.176 136.608 31.2H143.928ZM147.605 32.328C147.605 31 147.877 29.824 148.421 28.8C148.981 27.776 149.733 26.984 150.677 26.424C151.637 25.848 152.701 25.56 153.869 25.56C154.893 25.56 155.797 25.768 156.581 26.184C157.381 26.6 157.997 27.104 158.429 27.696V25.776H161.189V45.288H158.429V37.08C157.997 37.672 157.373 38.176 156.557 38.592C155.741 39.008 154.813 39.216 153.773 39.216C152.637 39.216 151.597 38.928 150.653 38.352C149.725 37.76 148.981 36.944 148.421 35.904C147.877 34.848 147.605 33.656 147.605 32.328ZM158.429 32.376C158.429 31.464 158.237 30.672 157.853 30C157.485 29.328 156.997 28.816 156.389 28.464C155.781 28.112 155.125 27.936 154.421 27.936C153.717 27.936 153.061 28.112 152.453 28.464C151.845 28.8 151.349 29.304 150.965 29.976C150.597 30.632 150.413 31.416 150.413 32.328C150.413 33.24 150.597 34.04 150.965 34.728C151.349 35.416 151.845 35.944 152.453 36.312C153.077 36.664 153.733 36.84 154.421 36.84C155.125 36.84 155.781 36.664 156.389 36.312C156.997 35.96 157.485 35.448 157.853 34.776C158.237 34.088 158.429 33.288 158.429 32.376ZM175.798 25.776V39H173.062V37.44C172.63 37.984 172.062 38.416 171.358 38.736C170.67 39.04 169.934 39.192 169.15 39.192C168.11 39.192 167.174 38.976 166.342 38.544C165.526 38.112 164.878 37.472 164.398 36.624C163.934 35.776 163.702 34.752 163.702 33.552V25.776H166.414V33.144C166.414 34.328 166.71 35.24 167.302 35.88C167.894 36.504 168.702 36.816 169.726 36.816C170.75 36.816 171.558 36.504 172.15 35.88C172.758 35.24 173.062 34.328 173.062 33.144V25.776H175.798ZM190.568 32.064C190.568 32.56 190.536 33.008 190.472 33.408H180.368C180.448 34.464 180.84 35.312 181.544 35.952C182.248 36.592 183.112 36.912 184.136 36.912C185.608 36.912 186.648 36.296 187.256 35.064H190.208C189.808 36.28 189.08 37.28 188.024 38.064C186.984 38.832 185.688 39.216 184.136 39.216C182.872 39.216 181.736 38.936 180.728 38.376C179.736 37.8 178.952 37 178.376 35.976C177.816 34.936 177.536 33.736 177.536 32.376C177.536 31.016 177.808 29.824 178.352 28.8C178.912 27.76 179.688 26.96 180.68 26.4C181.688 25.84 182.84 25.56 184.136 25.56C185.384 25.56 186.496 25.832 187.472 26.376C188.448 26.92 189.208 27.688 189.752 28.68C190.296 29.656 190.568 30.784 190.568 32.064ZM187.712 31.2C187.696 30.192 187.336 29.384 186.632 28.776C185.928 28.168 185.056 27.864 184.016 27.864C183.072 27.864 182.264 28.168 181.592 28.776C180.92 29.368 180.52 30.176 180.392 31.2H187.712ZM197.101 39.216C196.061 39.216 195.125 39.032 194.293 38.664C193.477 38.28 192.829 37.768 192.349 37.128C191.869 36.472 191.613 35.744 191.581 34.944H194.413C194.461 35.504 194.725 35.976 195.205 36.36C195.701 36.728 196.317 36.912 197.053 36.912C197.821 36.912 198.413 36.768 198.829 36.48C199.261 36.176 199.477 35.792 199.477 35.328C199.477 34.832 199.237 34.464 198.757 34.224C198.293 33.984 197.549 33.72 196.525 33.432C195.533 33.16 194.725 32.896 194.101 32.64C193.477 32.384 192.933 31.992 192.469 31.464C192.021 30.936 191.797 30.24 191.797 29.376C191.797 28.672 192.005 28.032 192.421 27.456C192.837 26.864 193.429 26.4 194.197 26.064C194.981 25.728 195.877 25.56 196.885 25.56C198.389 25.56 199.597 25.944 200.509 26.712C201.437 27.464 201.933 28.496 201.997 29.808H199.261C199.213 29.216 198.973 28.744 198.541 28.392C198.109 28.04 197.525 27.864 196.789 27.864C196.069 27.864 195.517 28 195.133 28.272C194.749 28.544 194.557 28.904 194.557 29.352C194.557 29.704 194.685 30 194.941 30.24C195.197 30.48 195.509 30.672 195.877 30.816C196.245 30.944 196.789 31.112 197.509 31.32C198.469 31.576 199.253 31.84 199.861 32.112C200.485 32.368 201.021 32.752 201.469 33.264C201.917 33.776 202.149 34.456 202.165 35.304C202.165 36.056 201.957 36.728 201.541 37.32C201.125 37.912 200.533 38.376 199.765 38.712C199.013 39.048 198.125 39.216 197.101 39.216ZM207.353 28.008V35.328C207.353 35.824 207.465 36.184 207.689 36.408C207.929 36.616 208.329 36.72 208.889 36.72H210.569V39H208.409C207.177 39 206.233 38.712 205.577 38.136C204.921 37.56 204.593 36.624 204.593 35.328V28.008H203.033V25.776H204.593V22.488H207.353V25.776H210.569V28.008H207.353ZM229.069 27.288C229.069 28.136 228.869 28.936 228.469 29.688C228.069 30.44 227.429 31.056 226.549 31.536C225.669 32 224.541 32.232 223.165 32.232H220.141V39H217.405V22.32H223.165C224.445 22.32 225.525 22.544 226.405 22.992C227.301 23.424 227.965 24.016 228.397 24.768C228.845 25.52 229.069 26.36 229.069 27.288ZM223.165 30C224.205 30 224.981 29.768 225.493 29.304C226.005 28.824 226.261 28.152 226.261 27.288C226.261 25.464 225.229 24.552 223.165 24.552H220.141V30H223.165ZM233.454 27.696C233.854 27.024 234.382 26.504 235.038 26.136C235.71 25.752 236.502 25.56 237.414 25.56V28.392H236.718C235.646 28.392 234.83 28.664 234.27 29.208C233.726 29.752 233.454 30.696 233.454 32.04V39H230.718V25.776H233.454V27.696ZM244.705 39.216C243.457 39.216 242.329 38.936 241.321 38.376C240.313 37.8 239.521 37 238.945 35.976C238.369 34.936 238.081 33.736 238.081 32.376C238.081 31.032 238.377 29.84 238.969 28.8C239.561 27.76 240.369 26.96 241.393 26.4C242.417 25.84 243.561 25.56 244.825 25.56C246.089 25.56 247.233 25.84 248.257 26.4C249.281 26.96 250.089 27.76 250.681 28.8C251.273 29.84 251.569 31.032 251.569 32.376C251.569 33.72 251.265 34.912 250.657 35.952C250.049 36.992 249.217 37.8 248.161 38.376C247.121 38.936 245.969 39.216 244.705 39.216ZM244.705 36.84C245.409 36.84 246.065 36.672 246.673 36.336C247.297 36 247.801 35.496 248.185 34.824C248.569 34.152 248.761 33.336 248.761 32.376C248.761 31.416 248.577 30.608 248.209 29.952C247.841 29.28 247.353 28.776 246.745 28.44C246.137 28.104 245.481 27.936 244.777 27.936C244.073 27.936 243.417 28.104 242.809 28.44C242.217 28.776 241.745 29.28 241.393 29.952C241.041 30.608 240.865 31.416 240.865 32.376C240.865 33.8 241.225 34.904 241.945 35.688C242.681 36.456 243.601 36.84 244.705 36.84ZM254.706 24.024C254.21 24.024 253.794 23.856 253.458 23.52C253.122 23.184 252.954 22.768 252.954 22.272C252.954 21.776 253.122 21.36 253.458 21.024C253.794 20.688 254.21 20.52 254.706 20.52C255.186 20.52 255.594 20.688 255.93 21.024C256.266 21.36 256.434 21.776 256.434 22.272C256.434 22.768 256.266 23.184 255.93 23.52C255.594 23.856 255.186 24.024 254.706 24.024ZM256.05 41.592C256.05 42.888 255.722 43.824 255.066 44.4C254.426 44.992 253.49 45.288 252.258 45.288H250.842V42.984H251.778C252.338 42.984 252.73 42.872 252.954 42.648C253.194 42.44 253.314 42.088 253.314 41.592V25.776H256.05V41.592ZM270.802 32.064C270.802 32.56 270.77 33.008 270.706 33.408H260.602C260.682 34.464 261.074 35.312 261.778 35.952C262.482 36.592 263.346 36.912 264.37 36.912C265.842 36.912 266.882 36.296 267.49 35.064H270.442C270.042 36.28 269.314 37.28 268.258 38.064C267.218 38.832 265.922 39.216 264.37 39.216C263.106 39.216 261.97 38.936 260.962 38.376C259.97 37.8 259.186 37 258.61 35.976C258.05 34.936 257.77 33.736 257.77 32.376C257.77 31.016 258.042 29.824 258.586 28.8C259.146 27.76 259.922 26.96 260.914 26.4C261.922 25.84 263.074 25.56 264.37 25.56C265.618 25.56 266.73 25.832 267.706 26.376C268.682 26.92 269.442 27.688 269.986 28.68C270.53 29.656 270.802 30.784 270.802 32.064ZM267.946 31.2C267.93 30.192 267.57 29.384 266.866 28.776C266.162 28.168 265.29 27.864 264.25 27.864C263.306 27.864 262.498 28.168 261.826 28.776C261.154 29.368 260.754 30.176 260.626 31.2H267.946ZM271.623 32.376C271.623 31.016 271.895 29.824 272.439 28.8C272.999 27.76 273.767 26.96 274.743 26.4C275.719 25.84 276.839 25.56 278.103 25.56C279.703 25.56 281.023 25.944 282.063 26.712C283.119 27.464 283.831 28.544 284.199 29.952H281.247C281.007 29.296 280.623 28.784 280.095 28.416C279.567 28.048 278.903 27.864 278.103 27.864C276.983 27.864 276.087 28.264 275.415 29.064C274.759 29.848 274.431 30.952 274.431 32.376C274.431 33.8 274.759 34.912 275.415 35.712C276.087 36.512 276.983 36.912 278.103 36.912C279.687 36.912 280.735 36.216 281.247 34.824H284.199C283.815 36.168 283.095 37.24 282.039 38.04C280.983 38.824 279.671 39.216 278.103 39.216C276.839 39.216 275.719 38.936 274.743 38.376C273.767 37.8 272.999 37 272.439 35.976C271.895 34.936 271.623 33.736 271.623 32.376ZM289.157 28.008V35.328C289.157 35.824 289.269 36.184 289.493 36.408C289.733 36.616 290.133 36.72 290.693 36.72H292.373V39H290.213C288.981 39 288.037 38.712 287.381 38.136C286.725 37.56 286.397 36.624 286.397 35.328V28.008H284.837V25.776H286.397V22.488H289.157V25.776H292.373V28.008H289.157Z" fill="white"/>
<path d="M40.5678 13C36.7186 13.0505 33.0401 14.7372 30.3181 17.6997C27.5962 20.6623 26.0464 24.6658 26 28.8551C26.0464 33.0444 27.5962 37.0479 30.3181 40.0104C33.0401 42.973 36.7186 44.6596 40.5678 44.7102C44.4169 44.6596 48.0954 42.973 50.8174 40.0104C53.5394 37.0479 55.0891 33.0444 55.1355 28.8551C55.0891 24.6658 53.5394 20.6623 50.8174 17.6997C48.0954 14.7372 44.4169 13.0505 40.5678 13ZM48.8922 29.9876H41.6083V37.9151H39.5272V29.9876H32.2433V27.7226H39.5272V19.795H41.6083V27.7226H48.8922V29.9876Z" fill="white"/>
<defs>
<filter id="filter0_d_282_14835" x="0" y="0" width="317" height="65" filterUnits="userSpaceOnUse" color-interpolation-filters="sRGB">
<feFlood flood-opacity="0" result="BackgroundImageFix"/>
<feColorMatrix in="SourceAlpha" type="matrix" values="0 0 0 0 0 0 0 0 0 0 0 0 0 0 0 0 0 0 127 0" result="hardAlpha"/>
<feOffset dy="4"/>
<feGaussianBlur stdDeviation="2"/>
<feComposite in2="hardAlpha" operator="out"/>
<feColorMatrix type="matrix" values="0 0 0 0 0 0 0 0 0 0 0 0 0 0 0 0 0 0 0.2 0"/>
<feBlend mode="normal" in2="BackgroundImageFix" result="effect1_dropShadow_282_14835"/>
<feBlend mode="normal" in="SourceGraphic" in2="effect1_dropShadow_282_14835" result="shape"/>
</filter>
</defs>
</svg>
