<svg width="23" height="26" viewBox="0 0 23 26" fill="none" xmlns="http://www.w3.org/2000/svg">
<path fill-rule="evenodd" clip-rule="evenodd" d="M17.9427 24.1547C18.7414 24.1547 19.5074 23.7877 20.0721 23.1346C20.6369 22.4814 20.9542 21.5955 20.9542 20.6718C20.9542 19.748 20.6369 18.8621 20.0721 18.209C19.5074 17.5558 18.7414 17.1888 17.9427 17.1888C17.144 17.1888 16.378 17.5558 15.8132 18.209C15.2484 18.8621 14.9312 19.748 14.9312 20.6718C14.9312 21.5955 15.2484 22.4814 15.8132 23.1346C16.378 23.7877 17.144 24.1547 17.9427 24.1547ZM17.9427 25.5479C19.0608 25.5479 20.1332 25.0341 20.9239 24.1197C21.7146 23.2052 22.1588 21.965 22.1588 20.6718C22.1588 19.3785 21.7146 18.1383 20.9239 17.2238C20.1332 16.3094 19.0608 15.7957 17.9427 15.7957C16.8245 15.7957 15.7521 16.3094 14.9614 17.2238C14.1708 18.1383 13.7266 19.3785 13.7266 20.6718C13.7266 21.965 14.1708 23.2052 14.9614 24.1197C15.7521 25.0341 16.8245 25.5479 17.9427 25.5479Z" fill="#0064AF"/>
<path fill-rule="evenodd" clip-rule="evenodd" d="M18.3879 17.578C18.5537 17.578 18.7126 17.6529 18.8298 17.7864C18.947 17.9199 19.0128 18.1009 19.0128 18.2896V19.7741L19.4546 20.2772C19.5684 20.4114 19.6314 20.5912 19.63 20.7778C19.6286 20.9644 19.5629 21.1429 19.447 21.2748C19.3311 21.4068 19.1744 21.4816 19.0106 21.4832C18.8467 21.4849 18.6889 21.4131 18.571 21.2835L17.763 20.3633V18.2896C17.763 18.1009 17.8289 17.9199 17.9461 17.7864C18.0633 17.6529 18.2222 17.578 18.3879 17.578ZM5.26519 11.529H4.01541V12.9523H5.26519V11.529ZM4.01541 10.1057C3.68395 10.1057 3.36606 10.2557 3.13168 10.5226C2.8973 10.7895 2.76562 11.1515 2.76562 11.529V12.9523C2.76562 13.3298 2.8973 13.6918 3.13168 13.9587C3.36606 14.2256 3.68395 14.3756 4.01541 14.3756H5.26519C5.59666 14.3756 5.91454 14.2256 6.14892 13.9587C6.3833 13.6918 6.51498 13.3298 6.51498 12.9523V11.529C6.51498 11.1515 6.3833 10.7895 6.14892 10.5226C5.91454 10.2557 5.59666 10.1057 5.26519 10.1057H4.01541ZM10.2643 11.529H9.01455V12.9523H10.2643V11.529ZM9.01455 10.1057C8.68308 10.1057 8.36519 10.2557 8.13082 10.5226C7.89643 10.7895 7.76476 11.1515 7.76476 11.529V12.9523C7.76476 13.3298 7.89643 13.6918 8.13082 13.9587C8.36519 14.2256 8.68308 14.3756 9.01455 14.3756H10.2643C10.5958 14.3756 10.9137 14.2256 11.1481 13.9587C11.3824 13.6918 11.5141 13.3298 11.5141 12.9523V11.529C11.5141 11.1515 11.3824 10.7895 11.1481 10.5226C10.9137 10.2557 10.5958 10.1057 10.2643 10.1057H9.01455ZM15.2635 11.529H14.0137V12.9523H15.2635V11.529ZM14.0137 10.1057C13.6822 10.1057 13.3643 10.2557 13.13 10.5226C12.8956 10.7895 12.7639 11.1515 12.7639 11.529V12.9523C12.7639 13.3298 12.8956 13.6918 13.13 13.9587C13.3643 14.2256 13.6822 14.3756 14.0137 14.3756H15.2635C15.5949 14.3756 15.9128 14.2256 16.1472 13.9587C16.3816 13.6918 16.5133 13.3298 16.5133 12.9523V11.529C16.5133 11.1515 16.3816 10.7895 16.1472 10.5226C15.9128 10.2557 15.5949 10.1057 15.2635 10.1057H14.0137ZM5.26519 17.2221H4.01541V18.6454H5.26519V17.2221ZM4.01541 15.7989C3.68395 15.7989 3.36606 15.9488 3.13168 16.2157C2.8973 16.4826 2.76562 16.8447 2.76562 17.2221V18.6454C2.76562 19.0229 2.8973 19.3849 3.13168 19.6518C3.36606 19.9188 3.68395 20.0687 4.01541 20.0687H5.26519C5.59666 20.0687 5.91454 19.9188 6.14892 19.6518C6.3833 19.3849 6.51498 19.0229 6.51498 18.6454V17.2221C6.51498 16.8447 6.3833 16.4826 6.14892 16.2157C5.91454 15.9488 5.59666 15.7989 5.26519 15.7989H4.01541ZM10.2643 17.2221H9.01455V18.6454H10.2643V17.2221ZM9.01455 15.7989C8.68308 15.7989 8.36519 15.9488 8.13082 16.2157C7.89643 16.4826 7.76476 16.8447 7.76476 17.2221V18.6454C7.76476 19.0229 7.89643 19.3849 8.13082 19.6518C8.36519 19.9188 8.68308 20.0687 9.01455 20.0687H10.2643C10.5958 20.0687 10.9137 19.9188 11.1481 19.6518C11.3824 19.3849 11.5141 19.0229 11.5141 18.6454V17.2221C11.5141 16.8447 11.3824 16.4826 11.1481 16.2157C10.9137 15.9488 10.5958 15.7989 10.2643 15.7989H9.01455Z" fill="#0064AF"/>
<path fill-rule="evenodd" clip-rule="evenodd" d="M1.4711 4.09588C1.4711 3.90908 1.53625 3.72994 1.65221 3.59785C1.76818 3.46576 1.92546 3.39156 2.08946 3.39156H5.18127V1.98291H2.08946C1.59746 1.98291 1.12561 2.20553 0.777717 2.60178C0.429821 2.99804 0.234375 3.53549 0.234375 4.09588V20.9996C0.234375 21.56 0.429821 22.0975 0.777717 22.4937C1.12561 22.89 1.59746 23.1126 2.08946 23.1126H14.6144C14.3507 22.6824 14.1492 22.2068 14.0177 21.704H2.08946C1.92546 21.704 1.76818 21.6298 1.65221 21.4977C1.53625 21.3656 1.4711 21.1864 1.4711 20.9996V4.09588ZM17.5485 15.4144C17.9587 15.3475 18.3751 15.3475 18.7852 15.4144V4.09588C18.7852 3.53549 18.5898 2.99804 18.2419 2.60178C17.894 2.20553 17.4221 1.98291 16.9301 1.98291H15.0751V3.39156H16.9301C17.0941 3.39156 17.2514 3.46576 17.3674 3.59785C17.4834 3.72994 17.5485 3.90908 17.5485 4.09588V15.4144ZM6.41799 3.39156H12.9497V1.98291H6.41799V3.39156Z" fill="#0064AF"/>
<path fill-rule="evenodd" clip-rule="evenodd" d="M13.7264 1.98291H6.49883V4.15005C6.49883 4.34164 6.43537 4.52538 6.32242 4.66085C6.20946 4.79633 6.05627 4.87243 5.89653 4.87243C5.73679 4.87243 5.58359 4.79633 5.47064 4.66085C5.35768 4.52538 5.29423 4.34164 5.29423 4.15005V1.98291H2.28273C1.96325 1.98291 1.65685 2.13513 1.43094 2.40607C1.20504 2.67702 1.07813 3.0445 1.07812 3.42767V7.03958C1.07813 7.42275 1.20504 7.79023 1.43094 8.06118C1.65685 8.33212 1.96325 8.48434 2.28273 8.48434H16.7379C17.0574 8.48434 17.3638 8.33212 17.5897 8.06118C17.8156 7.79023 17.9425 7.42275 17.9425 7.03958V3.42767C17.9425 3.0445 17.8156 2.67702 17.5897 2.40607C17.3638 2.13513 17.0574 1.98291 16.7379 1.98291H14.931V4.15005C14.931 4.34164 14.8676 4.52538 14.7546 4.66085C14.6417 4.79633 14.4885 4.87243 14.3287 4.87243C14.169 4.87243 14.0158 4.79633 13.9028 4.66085C13.7899 4.52538 13.7264 4.34164 13.7264 4.15005V1.98291Z" fill="#0064AF"/>
<path fill-rule="evenodd" clip-rule="evenodd" d="M18.7863 8.48055H1.92188V6.85522H18.7863V8.48055Z" fill="#0064AF"/>
<path d="M4.44922 1.03173C4.44922 0.852114 4.5103 0.679856 4.61901 0.55285C4.72773 0.425844 4.87518 0.354492 5.02893 0.354492C5.18268 0.354492 5.33013 0.425844 5.43885 0.55285C5.54757 0.679856 5.60865 0.852114 5.60865 1.03173V3.74067C5.60865 3.92028 5.54757 4.09254 5.43885 4.21955C5.33013 4.34655 5.18268 4.4179 5.02893 4.4179C4.87518 4.4179 4.72773 4.34655 4.61901 4.21955C4.5103 4.09254 4.44922 3.92028 4.44922 3.74067V1.03173ZM12.5652 1.03173C12.5652 0.852114 12.6263 0.679856 12.735 0.55285C12.8437 0.425844 12.9912 0.354492 13.1449 0.354492C13.2987 0.354492 13.4461 0.425844 13.5548 0.55285C13.6636 0.679856 13.7246 0.852114 13.7246 1.03173V3.74067C13.7246 3.92028 13.6636 4.09254 13.5548 4.21955C13.4461 4.34655 13.2987 4.4179 13.1449 4.4179C12.9912 4.4179 12.8437 4.34655 12.735 4.21955C12.6263 4.09254 12.5652 3.92028 12.5652 3.74067V1.03173Z" fill="#0064AF"/>
</svg>
