<svg width="30" height="42" viewBox="0 0 30 42" fill="none" xmlns="http://www.w3.org/2000/svg">
<path d="M15 12.25C15.6904 12.25 16.25 11.4665 16.25 10.5C16.25 9.5335 15.6904 8.75 15 8.75C14.3096 8.75 13.75 9.5335 13.75 10.5C13.75 11.4665 14.3096 12.25 15 12.25Z" fill="white"/>
<path d="M7.5 29.75H22.5V33.25H7.5V29.75ZM12.5 20.7025L15.99 25.592L20.905 18.7058L22.5 21V14H17.5L19.1375 16.2312L15.9888 20.6395L12.5 15.75L7.5 22.75L9.2675 25.2245L12.5 20.7025Z" fill="white"/>
<path d="M23.75 5.2501H19.6275C19.5048 4.99135 19.3712 4.743 19.2275 4.50635L19.215 4.48535C18.2966 2.98779 17.0045 2.0376 15.6025 1.82885C15.2044 1.72274 14.7956 1.72274 14.3975 1.82885C12.9955 2.0376 11.7034 2.98779 10.785 4.48535L10.7725 4.50635C10.6288 4.74244 10.4953 4.9902 10.3725 5.24835V5.2501H6.25C5.25574 5.25149 4.30249 5.80506 3.59945 6.78933C2.8964 7.77359 2.50099 9.10814 2.5 10.5001V35.0001C2.50099 36.3921 2.8964 37.7266 3.59945 38.7109C4.30249 39.6951 5.25574 40.2487 6.25 40.2501H23.75C24.7443 40.2487 25.6975 39.6951 26.4006 38.7109C27.1036 37.7266 27.499 36.3921 27.5 35.0001V10.5001C27.499 9.10814 27.1036 7.77359 26.4006 6.78933C25.6975 5.80506 24.7443 5.25149 23.75 5.2501ZM25 35.0001C25 35.4642 24.8683 35.9094 24.6339 36.2375C24.3995 36.5657 24.0815 36.7501 23.75 36.7501H6.25C5.91858 36.7496 5.60083 36.5651 5.36648 36.237C5.13213 35.9089 5.00033 35.4641 5 35.0001V10.5001C5.00033 10.0361 5.13213 9.59127 5.36648 9.26318C5.60083 8.93509 5.91858 8.75057 6.25 8.7501H11.9375C12.0809 7.7611 12.4642 6.87194 13.0223 6.23327C13.5805 5.59461 14.2792 5.24572 15 5.24572C15.7208 5.24572 16.4195 5.59461 16.9777 6.23327C17.5358 6.87194 17.9191 7.7611 18.0625 8.7501H23.75C24.0814 8.75057 24.3992 8.93509 24.6335 9.26318C24.8679 9.59127 24.9997 10.0361 25 10.5001V35.0001Z" fill="white"/>
</svg>
