<svg width="21" height="21" viewBox="0 0 21 21" fill="none" xmlns="http://www.w3.org/2000/svg">
<path d="M9.275 14.0437L15.4437 7.875L14.2188 6.65L9.275 11.5938L6.78125 9.1L5.55625 10.325L9.275 14.0437ZM4.375 18.375C3.89375 18.375 3.48162 18.2038 3.13862 17.8614C2.79621 17.5184 2.625 17.1063 2.625 16.625V4.375C2.625 3.89375 2.79621 3.48162 3.13862 3.13862C3.48162 2.79621 3.89375 2.625 4.375 2.625H8.05C8.23958 2.1 8.55692 1.67708 9.002 1.35625C9.4465 1.03542 9.94583 0.875 10.5 0.875C11.0542 0.875 11.5538 1.03542 11.9989 1.35625C12.4434 1.67708 12.7604 2.1 12.95 2.625H16.625C17.1062 2.625 17.5184 2.79621 17.8614 3.13862C18.2038 3.48162 18.375 3.89375 18.375 4.375V16.625C18.375 17.1063 18.2038 17.5184 17.8614 17.8614C17.5184 18.2038 17.1062 18.375 16.625 18.375H4.375ZM10.5 3.71875C10.6896 3.71875 10.8465 3.65663 10.9707 3.53238C11.0944 3.40871 11.1562 3.25208 11.1562 3.0625C11.1562 2.87292 11.0944 2.716 10.9707 2.59175C10.8465 2.46808 10.6896 2.40625 10.5 2.40625C10.3104 2.40625 10.1538 2.46808 10.0301 2.59175C9.90588 2.716 9.84375 2.87292 9.84375 3.0625C9.84375 3.25208 9.90588 3.40871 10.0301 3.53238C10.1538 3.65663 10.3104 3.71875 10.5 3.71875ZM4.375 16.625H16.625V4.375H4.375V16.625ZM4.375 4.375V16.625V4.375Z" fill="#8B8C99"/>
</svg>
