<svg width="92" height="18" viewBox="0 0 92 18" fill="none" xmlns="http://www.w3.org/2000/svg">
<path d="M5.79272 17.6931H2.34717V8.9716H0V6.13207H2.34708V4.11153C2.34708 1.7172 3.3852 0 6.82142 0C7.54819 0 8.68917 0.148741 8.68917 0.148741V2.7854H7.49076C6.26967 2.7854 5.7929 3.16255 5.7929 4.20522V6.13207H8.64345L8.38962 8.9716H5.79281L5.79272 17.6931ZM13.6986 5.90515C13.6484 5.90515 13.5968 5.90701 13.5456 5.90831C10.3507 5.90831 8.88897 8.34851 8.88897 11.8124C8.88897 16.176 10.7851 17.9225 13.5706 17.9225C15.1643 17.9225 16.2114 17.2414 16.8478 15.9703V17.6943H20.125V6.13327H16.8478V7.9112C16.3282 6.76732 15.2518 5.9187 13.6986 5.90515ZM14.5319 8.63698C15.8738 8.63698 16.6792 9.58736 16.6792 11.2039L16.6823 12.855C16.6823 13.9446 16.0171 15.2193 14.5319 15.2193C12.2487 15.2193 12.3096 12.7159 12.3096 11.8822C12.3096 9.07754 13.5262 8.63698 14.5319 8.63698ZM21.4485 11.9144C21.4485 10.5095 21.3823 5.91267 27.2806 5.91267C29.6482 5.91267 30.6369 6.67708 30.6369 6.67708L29.8423 9.17958C29.8423 9.17958 28.8549 8.62751 27.5683 8.62751C25.9205 8.62751 24.869 9.59748 24.869 11.3041L24.8708 12.5278C24.8708 14.1677 25.8854 15.2623 27.5717 15.2623C28.7438 15.2623 29.8241 14.7051 29.8241 14.7051L30.6167 17.1553C30.6167 17.1553 29.7127 17.9245 27.2971 17.9245C21.6811 17.9245 21.4486 13.8003 21.4486 11.9144H21.4485ZM49.8523 5.90831C53.0473 5.90831 54.5321 8.34851 54.5321 11.8124C54.5321 16.176 52.636 17.9225 49.8504 17.9225C48.2567 17.9225 47.0786 17.2415 46.4422 15.9703V17.6943L43.2062 17.693V0.351518L46.642 0.047259V7.75456C47.1379 6.40615 48.7675 5.90831 49.8524 5.90831H49.8523ZM48.8891 8.63698C47.5472 8.63698 46.642 9.58736 46.642 11.2039L46.6388 12.855C46.6368 13.9446 47.2657 15.2193 48.8891 15.2193C51.1724 15.2193 51.1114 12.7159 51.1114 11.8822C51.1114 9.07754 49.895 8.63698 48.8891 8.63698ZM36.5982 5.91787C32.9744 5.91787 31.0613 7.92401 31.0613 11.4891V12.1515C31.0613 16.7787 33.7479 17.97 36.9509 17.97C40.0641 17.97 41.4733 17.0859 41.4733 17.0859L40.8304 14.7313C40.8304 14.7313 39.1728 15.4474 37.3628 15.4474C35.4865 15.4474 34.6795 14.9618 34.4727 13.1309H41.748V11.2419C41.748 7.37463 39.6009 5.91778 36.5981 5.91778L36.5982 5.91787ZM36.6855 8.27562C37.9399 8.27562 38.7527 9.05665 38.7081 10.868H34.479C34.5523 8.96157 35.4289 8.27571 36.6855 8.27571V8.27562ZM61.3829 5.90199C57.6616 5.90199 55.7025 8.03134 55.7025 11.8473C55.7025 17.0829 59.0795 17.9257 61.3891 17.9257C64.7702 17.9257 67.0196 16.0774 67.0196 11.8948C67.0196 7.54148 64.4904 5.90199 61.3829 5.90199ZM61.3361 8.64645C62.9724 8.64645 63.6208 9.88995 63.6208 11.3054V12.5223C63.6208 14.237 62.7136 15.2288 61.3299 15.2288C60.0358 15.2288 59.1264 14.3011 59.1264 12.5223V11.3054C59.1264 9.40835 60.2086 8.64645 61.3361 8.64645ZM73.8643 5.90199C70.143 5.90199 68.1839 8.03134 68.1839 11.8473C68.1839 17.0829 71.5609 17.9257 73.8705 17.9257C77.2515 17.9257 79.501 16.0774 79.501 11.8948C79.501 7.54148 76.9717 5.90199 73.8643 5.90199ZM73.8175 8.64645C75.4538 8.64645 76.1021 9.88995 76.1021 11.3054V12.5223C76.1021 14.237 75.1948 15.2288 73.8113 15.2288C72.5172 15.2288 71.6077 14.3011 71.6077 12.5223V11.3054C71.6077 9.40835 72.6899 8.64645 73.8175 8.64645ZM80.7994 17.6931V0.351518L84.2451 0.047259V11.6707L87.6637 6.13207H91.3026L87.7365 11.8684L91.44 17.6931H87.7907L84.2451 12.0374V17.6931H80.7994Z" fill="#1877F2"/>
</svg>
