<svg width="54" height="54" viewBox="0 0 54 54" fill="none" xmlns="http://www.w3.org/2000/svg">
<path d="M53.8567 27.0511C53.8567 12.2685 41.873 0.284908 27.0904 0.284908C12.3079 0.284908 0.324219 12.2685 0.324219 27.0511C0.324219 40.4109 10.1122 51.4842 22.9082 53.4922V34.7882H16.1121V27.0511H22.9082V21.1542C22.9082 14.4459 26.9042 10.7405 33.0182 10.7405C35.9467 10.7405 39.0098 11.2632 39.0098 11.2632V17.8502H35.6346C32.3096 17.8502 31.2727 19.9135 31.2727 22.0302V27.0511H38.6961L37.5094 34.7882H31.2727V53.4922C44.0686 51.4842 53.8567 40.4109 53.8567 27.0511Z" fill="#1877F2"/>
<path d="M37.5067 34.7912L38.6934 27.0541H31.2699V22.0332C31.2699 19.9165 32.3069 17.8532 35.6319 17.8532H39.007V11.2662C39.007 11.2662 35.9439 10.7434 33.0155 10.7434C26.9015 10.7434 22.9055 14.4489 22.9055 21.1572V27.0541H16.1094V34.7912H22.9055V53.4951C24.2682 53.709 25.6649 53.8203 27.0877 53.8203C28.5105 53.8203 29.9072 53.709 31.2699 53.4951V34.7912H37.5067Z" fill="white"/>
</svg>
