<svg width="22" height="27" viewBox="0 0 22 27" fill="none" xmlns="http://www.w3.org/2000/svg">
<path d="M8.25 12.0703C8.1125 12.0703 8 12.1758 8 12.3047V20.3906C8 20.5195 8.1125 20.625 8.25 20.625H9.26562C9.40312 20.625 9.51562 20.5195 9.51562 20.3906V17.5928H11.4937C13.35 17.5928 14.5 16.4531 14.5 14.8359C14.5 13.2393 13.3656 12.0732 11.5 12.0732H8.25V12.0703ZM12.9562 14.833C12.9562 16.1045 12.1281 16.4238 10.7312 16.4238H9.51562V13.248H11.2719C12.3281 13.248 12.9562 13.8252 12.9562 14.833ZM21.7062 6.58008L14.9813 0.275391C14.7938 0.0996094 14.5406 0 14.275 0H1C0.446875 0 0 0.418945 0 0.9375V25.3125C0 25.8311 0.446875 26.25 1 26.25H21C21.5531 26.25 22 25.8311 22 25.3125V7.24512C22 6.99609 21.8937 6.75586 21.7062 6.58008ZM19.6938 7.67578H13.8125V2.16211L19.6938 7.67578ZM19.75 24.1406H2.25V2.10938H11.6875V8.4375C11.6875 8.76384 11.8258 9.07682 12.0719 9.30757C12.3181 9.53833 12.6519 9.66797 13 9.66797H19.75V24.1406Z" fill="#625C5C"/>
</svg>
