<svg width="30" height="38" viewBox="0 0 31 38" fill="none" xmlns="http://www.w3.org/2000/svg">
<path d="M15.5864 23.0406C14.8029 23.0406 14.3457 23.9701 14.3457 25.2146C14.3457 26.467 14.8168 27.3521 15.594 27.3521C16.3776 27.3521 16.8271 26.4211 16.8271 25.1766C16.8271 24.0271 16.3852 23.0406 15.5864 23.0406Z" fill="#3686F7"/>
<path d="M17.8906 3.16663H7.73125C7.05764 3.16663 6.41162 3.50026 5.93531 4.09412C5.459 4.68799 5.19141 5.49344 5.19141 6.33329V31.6666C5.19141 32.5065 5.459 33.3119 5.93531 33.9058C6.41162 34.4997 7.05764 34.8333 7.73125 34.8333H22.9703C23.6439 34.8333 24.2899 34.4997 24.7662 33.9058C25.2425 33.3119 25.5101 32.5065 25.5101 31.6666V12.6666L17.8906 3.16663ZM11.7378 27.6355C11.1969 28.196 10.3752 28.4604 9.37071 28.4604C8.7675 28.4604 8.34208 28.4129 8.05253 28.3654V22.078C8.5719 21.9847 9.09619 21.9408 9.62089 21.9465C10.5962 21.9465 11.2286 22.165 11.7226 22.6305C12.256 23.1245 12.5912 23.913 12.5912 25.0404C12.5912 26.2675 12.2331 27.113 11.7378 27.6355ZM15.5349 28.5C14.011 28.5 13.1208 27.0655 13.1208 25.2415C13.1208 23.324 14.1024 21.8911 15.6187 21.8911C17.1947 21.8911 18.0557 23.362 18.0557 25.129C18.0544 27.227 17.0334 28.5 15.5349 28.5ZM21.4464 27.2935C21.7956 27.2935 22.1842 27.1969 22.4141 27.0845L22.5893 28.2134C22.376 28.3464 21.8959 28.4889 21.2724 28.4889C19.4983 28.4889 18.584 27.113 18.584 25.289C18.584 23.1055 19.8323 21.8911 21.3867 21.8911C21.9886 21.8911 22.4445 22.0431 22.6503 22.1761L22.4141 23.3256C22.1049 23.1663 21.7733 23.0856 21.4388 23.0881C20.5168 23.0881 19.8006 23.7816 19.8006 25.2066C19.8006 26.4875 20.4101 27.2935 21.4464 27.2935ZM17.8906 14.25H16.6207V6.33329L22.9703 14.25H17.8906Z" fill="#3686F7"/>
<path d="M9.74323 23.0581C9.48543 23.0581 9.3178 23.0866 9.21875 23.1151V27.303C9.3178 27.3315 9.47781 27.3315 9.62131 27.3315C10.6728 27.341 11.3573 26.6206 11.3573 25.0911C11.3649 23.7611 10.7414 23.0581 9.74323 23.0581Z" fill="#3686F7"/>
</svg>
