<svg width="24" height="21" viewBox="0 0 24 21" fill="none" xmlns="http://www.w3.org/2000/svg">
<path d="M23.04 3.66219H12.27L8.751 0.0704267C8.70623 0.0256986 8.64733 0.000561163 8.586 0H0.96C0.429 0 0 0.457774 0 1.02439V19.9756C0 20.5422 0.429 21 0.96 21H23.04C23.571 21 24 20.5422 24 19.9756V4.68658C24 4.11997 23.571 3.66219 23.04 3.66219Z" fill="#625C5C"/>
<mask id="path-2-inside-1_120_880" fill="white">
<path d="M13.0067 14.6109C12.3155 15.1134 11.4391 15.356 10.5575 15.2888C9.67591 15.2217 8.85601 14.8499 8.26622 14.2498C7.67642 13.6498 7.36149 12.867 7.38611 12.0622C7.41073 11.2575 7.77302 10.4919 8.39859 9.92258C9.02416 9.35331 9.86552 9.02362 10.7499 9.00122C11.6342 8.97882 12.4944 9.2654 13.1538 9.80212C13.8132 10.3388 14.2218 11.0849 14.2955 11.8872C14.3693 12.6895 14.1027 13.487 13.5505 14.116L16.5027 16.8018C16.575 16.8675 16.6155 16.9566 16.6155 17.0496C16.6155 17.1425 16.575 17.2316 16.5027 17.2974C16.4305 17.3631 16.3326 17.4 16.2304 17.4C16.1283 17.4 16.0304 17.3631 15.9581 17.2974L13.0075 14.6109H13.0067ZM13.5382 12.1497C13.5382 11.828 13.4686 11.5094 13.3333 11.2122C13.198 10.915 12.9997 10.6449 12.7497 10.4174C12.4997 10.1899 12.2029 10.0094 11.8763 9.88631C11.5497 9.76319 11.1996 9.69983 10.846 9.69983C10.4925 9.69983 10.1424 9.76319 9.81575 9.88631C9.48912 10.0094 9.19233 10.1899 8.94234 10.4174C8.69234 10.6449 8.49403 10.915 8.35874 11.2122C8.22344 11.5094 8.1538 11.828 8.1538 12.1497C8.1538 12.7995 8.43745 13.4226 8.94234 13.8821C9.44722 14.3415 10.132 14.5997 10.846 14.5997C11.56 14.5997 12.2448 14.3415 12.7497 13.8821C13.2546 13.4226 13.5382 12.7995 13.5382 12.1497Z"/>
</mask>
<path d="M13.0067 14.6109C12.3155 15.1134 11.4391 15.356 10.5575 15.2888C9.67591 15.2217 8.85601 14.8499 8.26622 14.2498C7.67642 13.6498 7.36149 12.867 7.38611 12.0622C7.41073 11.2575 7.77302 10.4919 8.39859 9.92258C9.02416 9.35331 9.86552 9.02362 10.7499 9.00122C11.6342 8.97882 12.4944 9.2654 13.1538 9.80212C13.8132 10.3388 14.2218 11.0849 14.2955 11.8872C14.3693 12.6895 14.1027 13.487 13.5505 14.116L16.5027 16.8018C16.575 16.8675 16.6155 16.9566 16.6155 17.0496C16.6155 17.1425 16.575 17.2316 16.5027 17.2974C16.4305 17.3631 16.3326 17.4 16.2304 17.4C16.1283 17.4 16.0304 17.3631 15.9581 17.2974L13.0075 14.6109H13.0067ZM13.5382 12.1497C13.5382 11.828 13.4686 11.5094 13.3333 11.2122C13.198 10.915 12.9997 10.6449 12.7497 10.4174C12.4997 10.1899 12.2029 10.0094 11.8763 9.88631C11.5497 9.76319 11.1996 9.69983 10.846 9.69983C10.4925 9.69983 10.1424 9.76319 9.81575 9.88631C9.48912 10.0094 9.19233 10.1899 8.94234 10.4174C8.69234 10.6449 8.49403 10.915 8.35874 11.2122C8.22344 11.5094 8.1538 11.828 8.1538 12.1497C8.1538 12.7995 8.43745 13.4226 8.94234 13.8821C9.44722 14.3415 10.132 14.5997 10.846 14.5997C11.56 14.5997 12.2448 14.3415 12.7497 13.8821C13.2546 13.4226 13.5382 12.7995 13.5382 12.1497Z" fill="white"/>
<path d="M13.0067 14.6109V13.6109H12.6816L12.4187 13.802L13.0067 14.6109ZM13.5505 14.116L12.7991 13.4562L12.1509 14.1945L12.8776 14.8557L13.5505 14.116ZM16.5027 16.8018L17.1758 16.0622L17.1757 16.0621L16.5027 16.8018ZM16.2304 17.4V18.4V17.4ZM15.9581 17.2974L15.2849 18.0368L15.2851 18.037L15.9581 17.2974ZM13.0075 14.6109L13.6807 13.8714L13.3945 13.6109H13.0075V14.6109ZM10.846 9.69983V8.69983V9.69983ZM8.1538 12.1497H9.1538H8.1538ZM10.846 14.5997V15.5997V14.5997ZM12.4187 13.802C11.9266 14.1598 11.2874 14.3415 10.6335 14.2917L10.4816 16.2859C11.5909 16.3704 12.7045 16.0669 13.5947 15.4197L12.4187 13.802ZM10.6335 14.2917C9.97972 14.2419 9.39042 13.967 8.97939 13.5489L7.55304 14.9508C8.3216 15.7328 9.3721 16.2014 10.4816 16.2859L10.6335 14.2917ZM8.97939 13.5489C8.57118 13.1335 8.36978 12.6114 8.38564 12.0928L6.38658 12.0317C6.3532 13.1226 6.78165 14.166 7.55304 14.9508L8.97939 13.5489ZM8.38564 12.0928C8.40152 11.5738 8.63513 11.0594 9.07163 10.6622L7.72555 9.18298C6.91092 9.92429 6.41994 10.9412 6.38658 12.0317L8.38564 12.0928ZM9.07163 10.6622C9.51085 10.2625 10.119 10.0175 10.7752 10.0009L10.7245 8.00154C9.61207 8.02972 8.53747 8.44413 7.72555 9.18298L9.07163 10.6622ZM10.7752 10.0009C11.4315 9.98427 12.0563 10.1982 12.5226 10.5777L13.7851 9.02655C12.9326 8.33265 11.837 7.97336 10.7245 8.00154L10.7752 10.0009ZM12.5226 10.5777C12.9863 10.9552 13.2521 11.4603 13.2997 11.9788L15.2913 11.7956C15.1915 10.7096 14.6401 9.72252 13.7851 9.02655L12.5226 10.5777ZM13.2997 11.9788C13.3473 12.4959 13.1781 13.0245 12.7991 13.4562L14.302 14.7757C15.0274 13.9495 15.3913 12.883 15.2913 11.7956L13.2997 11.9788ZM12.8776 14.8557L15.8298 17.5415L17.1757 16.0621L14.2235 13.3763L12.8776 14.8557ZM15.8297 17.5414C15.7056 17.4284 15.6155 17.2539 15.6155 17.0496H17.6155C17.6155 16.6594 17.4444 16.3066 17.1758 16.0622L15.8297 17.5414ZM15.6155 17.0496C15.6155 16.8452 15.7056 16.6707 15.8297 16.5578L17.1758 18.037C17.4444 17.7926 17.6155 17.4398 17.6155 17.0496H15.6155ZM15.8297 16.5578C15.9507 16.4477 16.0962 16.4 16.2304 16.4V18.4C16.5689 18.4 16.9104 18.2785 17.1758 18.037L15.8297 16.5578ZM16.2304 16.4C16.3647 16.4 16.5102 16.4477 16.6312 16.5578L15.2851 18.037C15.5505 18.2785 15.8919 18.4 16.2304 18.4V16.4ZM16.6314 16.5579L13.6807 13.8714L12.3342 15.3503L15.2849 18.0368L16.6314 16.5579ZM13.0075 13.6109H13.0067V15.6109H13.0075V13.6109ZM14.5382 12.1497C14.5382 11.6829 14.437 11.2232 14.2435 10.7979L12.4232 11.6265C12.5002 11.7957 12.5382 11.9731 12.5382 12.1497H14.5382ZM14.2435 10.7979C14.05 10.3729 13.7694 9.99326 13.4227 9.67778L12.0767 11.157C12.23 11.2965 12.346 11.457 12.4232 11.6265L14.2435 10.7979ZM13.4227 9.67778C13.0763 9.36248 12.6699 9.11677 12.229 8.95058L11.5236 10.822C11.7359 10.9021 11.9232 11.0173 12.0767 11.157L13.4227 9.67778ZM12.229 8.95058C11.7882 8.78441 11.3185 8.69983 10.846 8.69983V10.6998C11.0807 10.6998 11.3111 10.742 11.5236 10.822L12.229 8.95058ZM10.846 8.69983C10.3736 8.69983 9.90388 8.78441 9.46304 8.95058L10.1685 10.822C10.3809 10.742 10.6114 10.6998 10.846 10.6998V8.69983ZM9.46304 8.95058C9.02214 9.11677 8.61579 9.36248 8.2693 9.67778L9.61538 11.157C9.76888 11.0173 9.9561 10.9021 10.1685 10.822L9.46304 8.95058ZM8.2693 9.67778C7.92262 9.99326 7.64203 10.3729 7.44859 10.7979L9.26889 11.6265C9.34604 11.457 9.46206 11.2965 9.61538 11.157L8.2693 9.67778ZM7.44859 10.7979C7.255 11.2232 7.1538 11.6829 7.1538 12.1497H9.1538C9.1538 11.9731 9.19188 11.7957 9.26889 11.6265L7.44859 10.7979ZM7.1538 12.1497C7.1538 13.0968 7.56806 13.9836 8.2693 14.6217L9.61538 13.1425C9.30683 12.8617 9.1538 12.5022 9.1538 12.1497H7.1538ZM8.2693 14.6217C8.96739 15.257 9.89563 15.5997 10.846 15.5997V13.5997C10.3684 13.5997 9.92706 13.4261 9.61538 13.1425L8.2693 14.6217ZM10.846 15.5997C11.7964 15.5997 12.7247 15.257 13.4227 14.6217L12.0767 13.1425C11.765 13.4261 11.3237 13.5997 10.846 13.5997V15.5997ZM13.4227 14.6217C14.124 13.9836 14.5382 13.0968 14.5382 12.1497H12.5382C12.5382 12.5022 12.3852 12.8617 12.0767 13.1425L13.4227 14.6217Z" fill="white" mask="url(#path-2-inside-1_120_880)"/>
</svg>
