<svg width="22" height="18" viewBox="0 0 22 18" fill="none" xmlns="http://www.w3.org/2000/svg">
<path d="M10.9439 7.05757V13.1266M10.9439 13.1266L7.91441 10.0921M10.9439 13.1266L13.9733 10.0921M1.85547 14.1382V4.02303C1.85547 3.48649 2.06825 2.97192 2.44701 2.59253C2.82577 2.21314 3.33947 2 3.87512 2H9.93405L11.9537 4.02303H18.0126C18.5483 4.02303 19.062 4.23617 19.4407 4.61556C19.8195 4.99495 20.0323 5.50951 20.0323 6.04605V14.1382C20.0323 14.6747 19.8195 15.1893 19.4407 15.5687C19.062 15.948 18.5483 16.1612 18.0126 16.1612H3.87512C3.33947 16.1612 2.82577 15.948 2.44701 15.5687C2.06825 15.1893 1.85547 14.6747 1.85547 14.1382Z" stroke="#C5B9B9" stroke-width="2.69737" stroke-linecap="round" stroke-linejoin="round"/>
</svg>
