<svg width="82" height="29" viewBox="0 0 82 29" fill="none" xmlns="http://www.w3.org/2000/svg">
<path d="M79.1316 17.5756L81.4007 19.2006C80.6642 20.3658 78.9027 22.365 75.8572 22.365C72.0753 22.365 69.2588 19.2219 69.2588 15.2236C69.2588 10.9688 72.1052 8.08228 75.5388 8.08228C78.9922 8.08228 80.6841 11.0329 81.2315 12.6258L81.5301 13.4383L72.6327 17.3938C73.3094 18.8264 74.3644 19.5533 75.8572 19.5533C77.3501 19.5533 78.3851 18.7622 79.1316 17.5756ZM72.1549 14.9991L78.0965 12.3478C77.7681 11.4605 76.7928 10.8298 75.6283 10.8298C74.1454 10.8298 72.0853 12.2409 72.1549 14.9991Z" fill="#FF302F"/>
<path d="M64.9692 0.801758H67.8355V21.7127H64.9692V0.801758Z" fill="#20B15A"/>
<path d="M60.4508 8.63814H63.2176V21.3386C63.2176 26.6091 60.3214 28.7793 56.8978 28.7793C53.6732 28.7793 51.7325 26.4488 51.006 24.5565L53.5439 23.4233C54.0017 24.5886 55.1064 25.9677 56.8978 25.9677C59.0973 25.9677 60.4508 24.5031 60.4508 21.7663V20.74H60.3513C59.6944 21.5952 58.4404 22.3649 56.8481 22.3649C53.5239 22.3649 50.4785 19.254 50.4785 15.245C50.4785 11.2146 53.5239 8.07153 56.8481 8.07153C58.4305 8.07153 59.6944 8.83057 60.3513 9.66444H60.4508V8.63814ZM60.6499 15.245C60.6499 12.722 59.0873 10.8832 57.0969 10.8832C55.0865 10.8832 53.3946 12.722 53.3946 15.245C53.3946 17.7359 55.0865 19.5426 57.0969 19.5426C59.0873 19.5533 60.6499 17.7359 60.6499 15.245Z" fill="#3686F7"/>
<path d="M34.7437 15.1916C34.7437 19.3075 31.7579 22.3329 28.0955 22.3329C24.433 22.3329 21.4473 19.2968 21.4473 15.1916C21.4473 11.0543 24.433 8.03955 28.0955 8.03955C31.7579 8.03955 34.7437 11.0543 34.7437 15.1916ZM31.8376 15.1916C31.8376 12.6258 30.1059 10.8619 28.0955 10.8619C26.0851 10.8619 24.3534 12.6258 24.3534 15.1916C24.3534 17.736 26.0851 19.5213 28.0955 19.5213C30.1059 19.5213 31.8376 17.736 31.8376 15.1916Z" fill="#FF302F"/>
<path d="M49.2647 15.2236C49.2647 19.3395 46.2789 22.365 42.6165 22.365C38.954 22.365 35.9683 19.3395 35.9683 15.2236C35.9683 11.0863 38.954 8.08228 42.6165 8.08228C46.2789 8.08228 49.2647 11.0757 49.2647 15.2236ZM46.3486 15.2236C46.3486 12.6579 44.6169 10.8939 42.6065 10.8939C40.5961 10.8939 38.8644 12.6579 38.8644 15.2236C38.8644 17.768 40.5961 19.5533 42.6065 19.5533C44.6268 19.5533 46.3486 17.7573 46.3486 15.2236Z" fill="#FFBA40"/>
<path d="M10.5197 19.2325C6.34963 19.2325 3.08524 15.619 3.08524 11.1397C3.08524 6.66027 6.34963 3.04683 10.5197 3.04683C12.7689 3.04683 14.4111 3.9983 15.6253 5.21704L17.6257 3.06822C15.9338 1.32564 13.6746 0 10.5197 0C4.80701 0 0 5.00322 0 11.1397C0 17.2761 4.80701 22.2793 10.5197 22.2793C13.6049 22.2793 15.9338 21.1889 17.7551 19.1576C19.6261 17.1478 20.2034 14.3255 20.2034 12.0377C20.2034 11.3214 20.1237 10.5837 20.0342 10.0385H10.5197V13.0105H17.2973C17.0982 14.8707 16.5508 16.1429 15.7447 17.0088C14.7694 18.0672 13.2267 19.2325 10.5197 19.2325Z" fill="#3686F7"/>
</svg>
