<svg width="453" height="101" viewBox="0 0 453 101" fill="none" xmlns="http://www.w3.org/2000/svg">
<path d="M42.0039 77.9656V101L84 77.6672V54.6357L42.0039 77.9656Z" fill="#2EA5FF"/>
<path d="M60.8032 33.4786L81.5248 21.9613L42.0039 0V23.0338L60.8032 33.4786Z" fill="#0064AF"/>
<path d="M25.6816 40.3561V63.3974L42.0026 72.4634V49.4324L25.6816 40.3561Z" fill="#ABDBFF"/>
<path d="M84 26.0898L42.0039 49.4323V72.4633L84 49.1304V26.0898Z" fill="#2EA5FF"/>
<path d="M2.50195 21.9479L23.0993 33.5324L42.0042 23.0338V0L2.50195 21.9479Z" fill="#2EA5FF"/>
<path d="M20.7286 66.15V37.593L0 26.0795V77.6665L42.0031 100.999V77.965L20.7286 66.15Z" fill="#ABDBFF"/>
<path d="M145.94 60.95C145.94 63.93 144.66 66.35 142.1 68.21C139.54 70.07 135.68 71 130.52 71H108.17C107.63 71 107.23 70.89 106.97 70.67C106.71 70.45 106.58 70.15 106.58 69.77C106.58 69.13 106.94 68.69 107.66 68.45L109.31 68.06C109.79 67.92 110.15 67.72 110.39 67.46C110.63 67.2 110.75 66.83 110.75 66.35V33.47C110.75 33.07 110.63 32.75 110.39 32.51C110.17 32.27 109.81 32.08 109.31 31.94L107.66 31.55C106.94 31.31 106.58 30.87 106.58 30.23C106.58 29.85 106.71 29.55 106.97 29.33C107.23 29.11 107.63 29 108.17 29H125.09C128.99 29 132.31 29.52 135.05 30.56C137.81 31.58 139.91 33.01 141.35 34.85C142.81 36.67 143.54 38.79 143.54 41.21C143.54 43.23 142.96 45.02 141.8 46.58C140.64 48.12 138.95 49.33 136.73 50.21C134.53 51.09 131.86 51.53 128.72 51.53L130.28 50.72C133.4 50.72 136.13 51.16 138.47 52.04C140.83 52.9 142.66 54.1 143.96 55.64C145.28 57.16 145.94 58.93 145.94 60.95ZM126.47 52.58H119.54V50.45H125.78C127.4 50.45 128.75 50.14 129.83 49.52C130.93 48.88 131.75 47.92 132.29 46.64C132.85 45.36 133.13 43.77 133.13 41.87C133.13 39.75 132.74 37.91 131.96 36.35C131.18 34.79 130.08 33.58 128.66 32.72C127.26 31.86 125.6 31.43 123.68 31.43H121.94V65.96C121.94 66.86 122.2 67.52 122.72 67.94C123.26 68.36 124.03 68.57 125.03 68.57H127.82C129.3 68.57 130.56 68.25 131.6 67.61C132.64 66.97 133.44 66.06 134 64.88C134.56 63.68 134.84 62.26 134.84 60.62C134.84 58.14 134.12 56.18 132.68 54.74C131.24 53.3 129.17 52.58 126.47 52.58ZM166.292 67.43V66.86L165.632 66.95V47.66C165.632 46.58 165.362 45.74 164.822 45.14C164.282 44.52 163.542 44.21 162.602 44.21C161.722 44.21 161.022 44.43 160.502 44.87C159.982 45.29 159.722 45.81 159.722 46.43V49.34C159.722 50.7 159.252 51.79 158.312 52.61C157.392 53.41 156.102 53.81 154.442 53.81C153.102 53.81 152.072 53.49 151.352 52.85C150.652 52.21 150.302 51.3 150.302 50.12C150.302 48.9 150.822 47.69 151.862 46.49C152.902 45.29 154.452 44.3 156.512 43.52C158.592 42.72 161.172 42.32 164.252 42.32C168.092 42.32 170.942 43.07 172.802 44.57C174.682 46.05 175.622 48.1 175.622 50.72V65.75C175.622 66.27 175.732 66.67 175.952 66.95C176.172 67.21 176.472 67.34 176.852 67.34C177.212 67.34 177.512 67.24 177.752 67.04C177.992 66.82 178.182 66.55 178.322 66.23C178.422 66.11 178.522 66.02 178.622 65.96C178.722 65.88 178.832 65.84 178.952 65.84C179.172 65.84 179.332 65.92 179.432 66.08C179.532 66.22 179.582 66.42 179.582 66.68C179.582 67.34 179.322 68.06 178.802 68.84C178.302 69.62 177.532 70.3 176.492 70.88C175.452 71.44 174.122 71.72 172.502 71.72C170.542 71.72 169.012 71.32 167.912 70.52C166.832 69.72 166.292 68.69 166.292 67.43ZM148.982 64.79C148.982 62.29 150.082 60.3 152.282 58.82C154.502 57.32 157.742 56.57 162.002 56.57C163.182 56.57 164.202 56.67 165.062 56.87C165.922 57.07 166.662 57.33 167.282 57.65L166.652 59.27C166.092 58.97 165.532 58.75 164.972 58.61C164.432 58.47 163.832 58.4 163.172 58.4C161.892 58.4 160.892 58.81 160.172 59.63C159.452 60.45 159.092 61.63 159.092 63.17C159.092 64.69 159.422 65.84 160.082 66.62C160.762 67.38 161.642 67.76 162.722 67.76C163.482 67.76 164.222 67.58 164.942 67.22C165.662 66.84 166.242 66.34 166.682 65.72L167.282 67.16C166.302 68.62 164.942 69.75 163.202 70.55C161.462 71.33 159.602 71.72 157.622 71.72C155.062 71.72 152.982 71.07 151.382 69.77C149.782 68.47 148.982 66.81 148.982 64.79ZM194.725 69.29C195.965 69.29 196.915 68.99 197.575 68.39C198.255 67.79 198.595 67.03 198.595 66.11C198.595 65.51 198.465 64.96 198.205 64.46C197.945 63.94 197.435 63.47 196.675 63.05C195.935 62.63 194.845 62.24 193.405 61.88C190.305 61.18 187.905 60.34 186.205 59.36C184.525 58.36 183.365 57.21 182.725 55.91C182.085 54.61 181.765 53.15 181.765 51.53C181.765 48.63 182.765 46.36 184.765 44.72C186.785 43.08 189.655 42.26 193.375 42.26C194.755 42.26 195.865 42.38 196.705 42.62C197.565 42.86 198.245 43.1 198.745 43.34C199.265 43.56 199.685 43.67 200.005 43.67C200.385 43.67 200.755 43.56 201.115 43.34C201.495 43.1 201.865 42.86 202.225 42.62C202.585 42.38 202.965 42.26 203.365 42.26C203.625 42.26 203.865 42.35 204.085 42.53C204.305 42.71 204.485 43.04 204.625 43.52L206.275 50.33C206.475 50.97 206.535 51.49 206.455 51.89C206.375 52.27 206.135 52.54 205.735 52.7C205.355 52.84 205.015 52.84 204.715 52.7C204.435 52.56 204.165 52.29 203.905 51.89C202.865 50.13 201.805 48.72 200.725 47.66C199.665 46.6 198.575 45.84 197.455 45.38C196.355 44.9 195.185 44.66 193.945 44.66C192.485 44.66 191.385 44.97 190.645 45.59C189.905 46.21 189.535 47.04 189.535 48.08C189.535 48.76 189.705 49.37 190.045 49.91C190.385 50.43 191.015 50.91 191.935 51.35C192.875 51.79 194.225 52.21 195.985 52.61C198.565 53.19 200.605 53.95 202.105 54.89C203.625 55.81 204.715 56.92 205.375 58.22C206.035 59.5 206.365 60.98 206.365 62.66C206.365 64.48 205.895 66.07 204.955 67.43C204.015 68.79 202.725 69.85 201.085 70.61C199.445 71.35 197.585 71.72 195.505 71.72C194.205 71.72 193.145 71.59 192.325 71.33C191.505 71.07 190.835 70.81 190.315 70.55C189.815 70.27 189.375 70.13 188.995 70.13C188.635 70.13 188.255 70.26 187.855 70.52C187.455 70.78 187.055 71.03 186.655 71.27C186.275 71.53 185.905 71.66 185.545 71.66C185.265 71.66 185.015 71.55 184.795 71.33C184.595 71.13 184.455 70.77 184.375 70.25L183.265 64.07C183.165 63.39 183.155 62.88 183.235 62.54C183.335 62.2 183.555 61.96 183.895 61.82C184.275 61.66 184.605 61.67 184.885 61.85C185.185 62.01 185.485 62.32 185.785 62.78C187.265 65.14 188.745 66.82 190.225 67.82C191.725 68.8 193.225 69.29 194.725 69.29ZM238.168 53.93C238.168 54.83 237.918 55.53 237.418 56.03C236.938 56.51 236.218 56.75 235.258 56.75H216.868V54.71H226.948C227.768 54.71 228.178 54.32 228.178 53.54C228.178 50.56 227.778 48.38 226.978 47C226.198 45.6 225.198 44.9 223.978 44.9C223.058 44.9 222.238 45.22 221.518 45.86C220.798 46.5 220.228 47.49 219.808 48.83C219.388 50.15 219.178 51.82 219.178 53.84C219.178 57.72 220.038 60.6 221.758 62.48C223.478 64.34 225.778 65.27 228.658 65.27C230.398 65.27 231.908 64.92 233.188 64.22C234.468 63.5 235.418 62.45 236.038 61.07C236.338 60.75 236.578 60.53 236.758 60.41C236.958 60.29 237.148 60.23 237.328 60.23C237.588 60.23 237.778 60.35 237.898 60.59C238.018 60.83 238.078 61.13 238.078 61.49C238.038 63.37 237.448 65.09 236.308 66.65C235.168 68.19 233.608 69.42 231.628 70.34C229.668 71.26 227.418 71.72 224.878 71.72C222.038 71.72 219.498 71.14 217.258 69.98C215.038 68.8 213.288 67.15 212.008 65.03C210.748 62.91 210.118 60.44 210.118 57.62C210.118 54.56 210.718 51.88 211.918 49.58C213.138 47.28 214.878 45.49 217.138 44.21C219.418 42.93 222.138 42.29 225.298 42.29C228.038 42.29 230.368 42.79 232.288 43.79C234.208 44.79 235.668 46.17 236.668 47.93C237.668 49.69 238.168 51.69 238.168 53.93ZM279.515 58.91C279.455 60.57 279.005 62.19 278.165 63.77C277.345 65.33 276.185 66.74 274.685 68C273.205 69.24 271.425 70.23 269.345 70.97C267.265 71.71 264.945 72.08 262.385 72.08C258.085 72.08 254.375 71.16 251.255 69.32C248.135 67.48 245.725 64.93 244.025 61.67C242.325 58.41 241.475 54.64 241.475 50.36C241.475 47.12 241.985 44.14 243.005 41.42C244.025 38.7 245.465 36.34 247.325 34.34C249.185 32.32 251.365 30.76 253.865 29.66C256.385 28.54 259.125 27.98 262.085 27.98C263.985 27.98 265.545 28.17 266.765 28.55C268.005 28.91 268.985 29.28 269.705 29.66C270.425 30.04 270.965 30.23 271.325 30.23C271.765 30.23 272.185 30.06 272.585 29.72C272.985 29.36 273.375 29.01 273.755 28.67C274.155 28.31 274.565 28.13 274.985 28.13C275.305 28.13 275.565 28.24 275.765 28.46C275.985 28.66 276.165 29.01 276.305 29.51L279.305 40.67C279.425 41.09 279.385 41.46 279.185 41.78C279.005 42.1 278.705 42.31 278.285 42.41C277.865 42.49 277.475 42.45 277.115 42.29C276.775 42.11 276.505 41.79 276.305 41.33C275.225 38.73 274.035 36.68 272.735 35.18C271.435 33.68 270.055 32.61 268.595 31.97C267.135 31.33 265.625 31.01 264.065 31.01C262.445 31.01 260.965 31.39 259.625 32.15C258.285 32.91 257.125 34.01 256.145 35.45C255.165 36.89 254.405 38.65 253.865 40.73C253.345 42.79 253.085 45.13 253.085 47.75C253.085 51.91 253.655 55.39 254.795 58.19C255.935 60.97 257.505 63.06 259.505 64.46C261.505 65.86 263.805 66.56 266.405 66.56C268.905 66.56 271.095 65.89 272.975 64.55C274.875 63.19 276.305 61.24 277.265 58.7C277.465 58.3 277.685 58.03 277.925 57.89C278.165 57.75 278.425 57.71 278.705 57.77C279.005 57.81 279.215 57.93 279.335 58.13C279.455 58.33 279.515 58.59 279.515 58.91ZM300.238 67.43V66.86L299.578 66.95V47.66C299.578 46.58 299.308 45.74 298.768 45.14C298.228 44.52 297.488 44.21 296.548 44.21C295.668 44.21 294.968 44.43 294.448 44.87C293.928 45.29 293.668 45.81 293.668 46.43V49.34C293.668 50.7 293.198 51.79 292.258 52.61C291.338 53.41 290.048 53.81 288.388 53.81C287.048 53.81 286.018 53.49 285.298 52.85C284.598 52.21 284.248 51.3 284.248 50.12C284.248 48.9 284.768 47.69 285.808 46.49C286.848 45.29 288.398 44.3 290.458 43.52C292.538 42.72 295.118 42.32 298.198 42.32C302.038 42.32 304.888 43.07 306.748 44.57C308.628 46.05 309.568 48.1 309.568 50.72V65.75C309.568 66.27 309.678 66.67 309.898 66.95C310.118 67.21 310.418 67.34 310.798 67.34C311.158 67.34 311.458 67.24 311.698 67.04C311.938 66.82 312.128 66.55 312.268 66.23C312.368 66.11 312.468 66.02 312.568 65.96C312.668 65.88 312.778 65.84 312.898 65.84C313.118 65.84 313.278 65.92 313.378 66.08C313.478 66.22 313.528 66.42 313.528 66.68C313.528 67.34 313.268 68.06 312.748 68.84C312.248 69.62 311.478 70.3 310.438 70.88C309.398 71.44 308.068 71.72 306.448 71.72C304.488 71.72 302.958 71.32 301.858 70.52C300.778 69.72 300.238 68.69 300.238 67.43ZM282.928 64.79C282.928 62.29 284.028 60.3 286.228 58.82C288.448 57.32 291.688 56.57 295.948 56.57C297.128 56.57 298.148 56.67 299.008 56.87C299.868 57.07 300.608 57.33 301.228 57.65L300.598 59.27C300.038 58.97 299.478 58.75 298.918 58.61C298.378 58.47 297.778 58.4 297.118 58.4C295.838 58.4 294.838 58.81 294.118 59.63C293.398 60.45 293.038 61.63 293.038 63.17C293.038 64.69 293.368 65.84 294.028 66.62C294.708 67.38 295.588 67.76 296.668 67.76C297.428 67.76 298.168 67.58 298.888 67.22C299.608 66.84 300.188 66.34 300.628 65.72L301.228 67.16C300.248 68.62 298.888 69.75 297.148 70.55C295.408 71.33 293.548 71.72 291.568 71.72C289.008 71.72 286.928 71.07 285.328 69.77C283.728 68.47 282.928 66.81 282.928 64.79ZM328.58 44V66.71C328.58 67.27 328.65 67.69 328.79 67.97C328.95 68.23 329.18 68.41 329.48 68.51L330.5 68.81C331 69.05 331.25 69.4 331.25 69.86C331.25 70.62 330.77 71 329.81 71H317.09C316.59 71 316.23 70.9 316.01 70.7C315.79 70.5 315.68 70.24 315.68 69.92C315.68 69.66 315.75 69.44 315.89 69.26C316.05 69.06 316.28 68.9 316.58 68.78L317.66 68.51C317.98 68.39 318.2 68.21 318.32 67.97C318.46 67.71 318.53 67.3 318.53 66.74V49.1C318.53 48.66 318.46 48.34 318.32 48.14C318.2 47.94 318 47.82 317.72 47.78L316.4 47.66C316.12 47.58 315.91 47.46 315.77 47.3C315.65 47.14 315.59 46.94 315.59 46.7C315.59 46.4 315.67 46.16 315.83 45.98C316.01 45.8 316.32 45.63 316.76 45.47L324.2 43.01C324.84 42.75 325.36 42.57 325.76 42.47C326.16 42.37 326.54 42.32 326.9 42.32C327.46 42.32 327.88 42.48 328.16 42.8C328.44 43.12 328.58 43.52 328.58 44ZM327.68 50.78L326.51 49.58L327.56 48.59C330.04 46.27 332.22 44.64 334.1 43.7C336 42.76 337.76 42.29 339.38 42.29C341.76 42.29 343.67 43.05 345.11 44.57C346.57 46.09 347.3 48.22 347.3 50.96V66.74C347.3 67.32 347.37 67.74 347.51 68C347.65 68.24 347.87 68.42 348.17 68.54L349.01 68.81C349.51 69.05 349.76 69.4 349.76 69.86C349.76 70.62 349.28 71 348.32 71H336.05C335.11 71 334.64 70.62 334.64 69.86C334.64 69.4 334.89 69.05 335.39 68.81L336.32 68.54C336.68 68.42 336.93 68.21 337.07 67.91C337.21 67.61 337.28 67.17 337.28 66.59V52.28C337.28 50.82 336.94 49.71 336.26 48.95C335.58 48.19 334.64 47.81 333.44 47.81C332.66 47.81 331.88 47.97 331.1 48.29C330.32 48.61 329.55 49.11 328.79 49.79L327.68 50.78ZM346.37 50.78L345.17 49.58L346.19 48.56C348.43 46.34 350.42 44.74 352.16 43.76C353.9 42.78 355.57 42.29 357.17 42.29C359.47 42.29 361.3 43.06 362.66 44.6C364.04 46.12 364.86 48.24 365.12 50.96L366.86 66.71C366.92 67.31 367.01 67.74 367.13 68C367.25 68.26 367.46 68.44 367.76 68.54L368.63 68.81C368.95 68.93 369.18 69.08 369.32 69.26C369.46 69.44 369.53 69.66 369.53 69.92C369.53 70.26 369.42 70.53 369.2 70.73C368.98 70.91 368.62 71 368.12 71H355.4C354.46 71 353.99 70.62 353.99 69.86C353.99 69.4 354.24 69.05 354.74 68.81L355.67 68.54C356.03 68.42 356.29 68.21 356.45 67.91C356.63 67.61 356.69 67.15 356.63 66.53L355.16 52.28C355 50.82 354.62 49.71 354.02 48.95C353.44 48.19 352.58 47.81 351.44 47.81C350.78 47.81 350.11 47.98 349.43 48.32C348.77 48.66 348.1 49.14 347.42 49.76L346.37 50.78ZM383.821 43.97V47.18L384.151 47.9V80.69C384.151 81.25 384.221 81.66 384.361 81.92C384.501 82.2 384.721 82.39 385.021 82.49L386.281 82.79C386.601 82.91 386.831 83.06 386.971 83.24C387.111 83.42 387.181 83.64 387.181 83.9C387.181 84.24 387.071 84.5 386.851 84.68C386.631 84.88 386.271 84.98 385.771 84.98H372.661C372.181 84.98 371.831 84.88 371.611 84.68C371.391 84.5 371.281 84.24 371.281 83.9C371.281 83.64 371.351 83.42 371.491 83.24C371.631 83.06 371.861 82.91 372.181 82.79L373.231 82.49C373.531 82.39 373.751 82.21 373.891 81.95C374.031 81.69 374.101 81.27 374.101 80.69V49.04C374.101 48.6 374.031 48.29 373.891 48.11C373.751 47.91 373.541 47.79 373.261 47.75L372.001 47.63C371.701 47.55 371.481 47.43 371.341 47.27C371.221 47.11 371.161 46.91 371.161 46.67C371.161 46.37 371.241 46.14 371.401 45.98C371.581 45.82 371.891 45.65 372.331 45.47L379.411 42.98C380.051 42.72 380.571 42.54 380.971 42.44C381.371 42.34 381.741 42.29 382.081 42.29C382.661 42.29 383.091 42.45 383.371 42.77C383.671 43.07 383.821 43.47 383.821 43.97ZM382.621 50.9L381.331 49.49C382.851 47.21 384.541 45.44 386.401 44.18C388.261 42.92 390.371 42.29 392.731 42.29C395.051 42.29 397.111 42.87 398.911 44.03C400.731 45.17 402.151 46.78 403.171 48.86C404.211 50.94 404.731 53.36 404.731 56.12C404.731 59.28 404.111 62.03 402.871 64.37C401.631 66.71 399.941 68.52 397.801 69.8C395.661 71.08 393.251 71.72 390.571 71.72C388.331 71.72 386.411 71.26 384.811 70.34C383.231 69.42 381.901 68.02 380.821 66.14L382.801 64.73C383.581 66.05 384.431 67.02 385.351 67.64C386.291 68.26 387.321 68.57 388.441 68.57C389.581 68.57 390.601 68.2 391.501 67.46C392.401 66.72 393.101 65.51 393.601 63.83C394.101 62.15 394.351 59.93 394.351 57.17C394.351 54.61 394.111 52.54 393.631 50.96C393.151 49.38 392.491 48.22 391.651 47.48C390.831 46.74 389.871 46.37 388.771 46.37C387.631 46.37 386.541 46.74 385.501 47.48C384.481 48.2 383.521 49.34 382.621 50.9Z" fill="#0064AF"/>
</svg>
