<svg width="18" height="18" viewBox="0 0 18 18" fill="none" xmlns="http://www.w3.org/2000/svg">
<path d="M18 9.00023C18 9.68463 17.7993 10.354 17.4228 10.9255C17.0463 11.4971 16.5105 11.9457 15.8817 12.2159C15.2529 12.4861 14.5587 12.566 13.8849 12.4457C13.2112 12.3254 12.5875 12.0103 12.091 11.5392C11.6065 12.1288 10.9634 12.5675 10.2377 12.8035C9.51199 13.0396 8.7339 13.0631 7.99526 12.8713C7.25662 12.6795 6.58826 12.2804 6.06905 11.7211C5.54985 11.1618 5.20147 10.4656 5.06504 9.71481C4.9286 8.96397 5.0098 8.18976 5.29904 7.48357C5.58829 6.77737 6.07352 6.16866 6.69746 5.72926C7.32141 5.28986 8.05803 5.03812 8.82039 5.00374C9.58275 4.96936 10.339 5.15378 11 5.53523V5.00024H13V9.00023C13 9.39805 13.158 9.77958 13.4393 10.0609C13.7206 10.3422 14.1022 10.5002 14.5 10.5002C14.8978 10.5002 15.2794 10.3422 15.5607 10.0609C15.842 9.77958 16 9.39805 16 9.00023C15.9997 7.45399 15.4874 5.95137 14.5431 4.72694C13.5989 3.50251 12.2758 2.62518 10.7804 2.23191C9.28498 1.83864 7.70145 1.95156 6.277 2.55305C4.85254 3.15454 3.66732 4.21074 2.90636 5.55677C2.1454 6.9028 1.85153 8.46291 2.07063 9.99355C2.28972 11.5242 3.00944 12.9392 4.11744 14.0177C5.22545 15.0962 6.65937 15.7775 8.19536 15.9553C9.73135 16.133 11.283 15.7972 12.608 15.0002H15.708C14.3055 16.5682 12.398 17.5953 10.3169 17.9031C8.23587 18.2109 6.11273 17.78 4.31634 16.6852C2.51994 15.5905 1.16382 13.901 0.483544 11.9103C-0.196729 9.91964 -0.158163 7.75356 0.592544 5.78836C1.34325 3.82316 2.75866 2.18303 4.59289 1.15289C6.42711 0.122751 8.56425 -0.232301 10.633 0.149413C12.7018 0.531127 14.5715 1.62549 15.9173 3.24238C17.2632 4.85927 18.0001 6.89653 18 9.00023ZM9 11.0002C9.53043 11.0002 10.0391 10.7895 10.4142 10.4144C10.7893 10.0394 11 9.53066 11 9.00023C11 8.4698 10.7893 7.96109 10.4142 7.58602C10.0391 7.21095 9.53043 7.00023 9 7.00023C8.46957 7.00023 7.96086 7.21095 7.58579 7.58602C7.21071 7.96109 7 8.4698 7 9.00023C7 9.53066 7.21071 10.0394 7.58579 10.4144C7.96086 10.7895 8.46957 11.0002 9 11.0002Z" fill="#625C5C"/>
</svg>
