<svg width="732" height="216" viewBox="0 0 732 216" fill="none" xmlns="http://www.w3.org/2000/svg">
<rect x="2" y="2" width="728" height="212" rx="5" fill="white" stroke="#0064AF" stroke-width="4"/>
<path d="M389.222 61.5V79.7778H348.778V61.5H343V79.7778C343 82.65 345.6 85 348.778 85H389.222C392.4 85 395 82.65 395 79.7778V61.5H389.222ZM371.889 63.2494L379.371 56.5128L383.444 60.1944L369 73.25L354.556 60.1944L358.629 56.5128L366.111 63.2494V38H371.889V63.2494Z" fill="#0064AF"/>
<path d="M328.952 114.1C330.432 114.1 331.726 114.387 332.832 114.96C333.952 115.52 334.812 116.333 335.412 117.4C336.026 118.453 336.332 119.687 336.332 121.1C336.332 122.513 336.026 123.74 335.412 124.78C334.812 125.82 333.952 126.62 332.832 127.18C331.726 127.727 330.432 128 328.952 128H324.412V114.1H328.952ZM328.952 126.14C330.579 126.14 331.826 125.7 332.692 124.82C333.559 123.94 333.992 122.7 333.992 121.1C333.992 119.487 333.559 118.227 332.692 117.32C331.826 116.413 330.579 115.96 328.952 115.96H326.692V126.14H328.952ZM340.072 118.58C340.406 118.02 340.846 117.587 341.392 117.28C341.952 116.96 342.612 116.8 343.372 116.8V119.16H342.792C341.899 119.16 341.219 119.387 340.752 119.84C340.299 120.293 340.072 121.08 340.072 122.2V128H337.792V116.98H340.072V118.58ZM343.908 122.44C343.908 121.333 344.135 120.353 344.588 119.5C345.055 118.647 345.681 117.987 346.468 117.52C347.268 117.04 348.148 116.8 349.108 116.8C349.975 116.8 350.728 116.973 351.368 117.32C352.021 117.653 352.541 118.073 352.928 118.58V116.98H355.228V128H352.928V126.36C352.541 126.88 352.015 127.313 351.348 127.66C350.681 128.007 349.921 128.18 349.068 128.18C348.121 128.18 347.255 127.94 346.468 127.46C345.681 126.967 345.055 126.287 344.588 125.42C344.135 124.54 343.908 123.547 343.908 122.44ZM352.928 122.48C352.928 121.72 352.768 121.06 352.448 120.5C352.141 119.94 351.735 119.513 351.228 119.22C350.721 118.927 350.175 118.78 349.588 118.78C349.001 118.78 348.455 118.927 347.948 119.22C347.441 119.5 347.028 119.92 346.708 120.48C346.401 121.027 346.248 121.68 346.248 122.44C346.248 123.2 346.401 123.867 346.708 124.44C347.028 125.013 347.441 125.453 347.948 125.76C348.468 126.053 349.015 126.2 349.588 126.2C350.175 126.2 350.721 126.053 351.228 125.76C351.735 125.467 352.141 125.04 352.448 124.48C352.768 123.907 352.928 123.24 352.928 122.48ZM361.863 116.8C362.716 116.8 363.469 116.973 364.123 117.32C364.789 117.653 365.309 118.073 365.683 118.58V116.98H367.983V128.18C367.983 129.193 367.769 130.093 367.343 130.88C366.916 131.68 366.296 132.307 365.483 132.76C364.683 133.213 363.723 133.44 362.603 133.44C361.109 133.44 359.869 133.087 358.883 132.38C357.896 131.687 357.336 130.74 357.203 129.54H359.463C359.636 130.113 360.003 130.573 360.563 130.92C361.136 131.28 361.816 131.46 362.603 131.46C363.523 131.46 364.263 131.18 364.823 130.62C365.396 130.06 365.683 129.247 365.683 128.18V126.34C365.296 126.86 364.769 127.3 364.103 127.66C363.449 128.007 362.703 128.18 361.863 128.18C360.903 128.18 360.023 127.94 359.223 127.46C358.436 126.967 357.809 126.287 357.343 125.42C356.889 124.54 356.663 123.547 356.663 122.44C356.663 121.333 356.889 120.353 357.343 119.5C357.809 118.647 358.436 117.987 359.223 117.52C360.023 117.04 360.903 116.8 361.863 116.8ZM365.683 122.48C365.683 121.72 365.523 121.06 365.203 120.5C364.896 119.94 364.489 119.513 363.983 119.22C363.476 118.927 362.929 118.78 362.343 118.78C361.756 118.78 361.209 118.927 360.703 119.22C360.196 119.5 359.783 119.92 359.463 120.48C359.156 121.027 359.003 121.68 359.003 122.44C359.003 123.2 359.156 123.867 359.463 124.44C359.783 125.013 360.196 125.453 360.703 125.76C361.223 126.053 361.769 126.2 362.343 126.2C362.929 126.2 363.476 126.053 363.983 125.76C364.489 125.467 364.896 125.04 365.203 124.48C365.523 123.907 365.683 123.24 365.683 122.48ZM379.193 118.84H377.153V128H374.853V118.84H373.553V116.98H374.853V116.2C374.853 114.933 375.186 114.013 375.853 113.44C376.533 112.853 377.593 112.56 379.033 112.56V114.46C378.339 114.46 377.853 114.593 377.573 114.86C377.293 115.113 377.153 115.56 377.153 116.2V116.98H379.193V118.84ZM381.573 115.52C381.16 115.52 380.813 115.38 380.533 115.1C380.253 114.82 380.113 114.473 380.113 114.06C380.113 113.647 380.253 113.3 380.533 113.02C380.813 112.74 381.16 112.6 381.573 112.6C381.973 112.6 382.313 112.74 382.593 113.02C382.873 113.3 383.013 113.647 383.013 114.06C383.013 114.473 382.873 114.82 382.593 115.1C382.313 115.38 381.973 115.52 381.573 115.52ZM382.693 116.98V128H380.413V116.98H382.693ZM387.167 113.2V128H384.887V113.2H387.167ZM399.46 122.22C399.46 122.633 399.433 123.007 399.38 123.34H390.96C391.027 124.22 391.353 124.927 391.94 125.46C392.527 125.993 393.247 126.26 394.1 126.26C395.327 126.26 396.193 125.747 396.7 124.72H399.16C398.827 125.733 398.22 126.567 397.34 127.22C396.473 127.86 395.393 128.18 394.1 128.18C393.047 128.18 392.1 127.947 391.26 127.48C390.433 127 389.78 126.333 389.3 125.48C388.833 124.613 388.6 123.613 388.6 122.48C388.6 121.347 388.827 120.353 389.28 119.5C389.747 118.633 390.393 117.967 391.22 117.5C392.06 117.033 393.02 116.8 394.1 116.8C395.14 116.8 396.067 117.027 396.88 117.48C397.693 117.933 398.327 118.573 398.78 119.4C399.233 120.213 399.46 121.153 399.46 122.22ZM397.08 121.5C397.067 120.66 396.767 119.987 396.18 119.48C395.593 118.973 394.867 118.72 394 118.72C393.213 118.72 392.54 118.973 391.98 119.48C391.42 119.973 391.087 120.647 390.98 121.5H397.08ZM404.904 128.18C404.037 128.18 403.257 128.027 402.564 127.72C401.884 127.4 401.344 126.973 400.944 126.44C400.544 125.893 400.331 125.287 400.304 124.62H402.664C402.704 125.087 402.924 125.48 403.324 125.8C403.737 126.107 404.251 126.26 404.864 126.26C405.504 126.26 405.997 126.14 406.344 125.9C406.704 125.647 406.884 125.327 406.884 124.94C406.884 124.527 406.684 124.22 406.284 124.02C405.897 123.82 405.277 123.6 404.424 123.36C403.597 123.133 402.924 122.913 402.404 122.7C401.884 122.487 401.431 122.16 401.044 121.72C400.671 121.28 400.484 120.7 400.484 119.98C400.484 119.393 400.657 118.86 401.004 118.38C401.351 117.887 401.844 117.5 402.484 117.22C403.137 116.94 403.884 116.8 404.724 116.8C405.977 116.8 406.984 117.12 407.744 117.76C408.517 118.387 408.931 119.247 408.984 120.34H406.704C406.664 119.847 406.464 119.453 406.104 119.16C405.744 118.867 405.257 118.72 404.644 118.72C404.044 118.72 403.584 118.833 403.264 119.06C402.944 119.287 402.784 119.587 402.784 119.96C402.784 120.253 402.891 120.5 403.104 120.7C403.317 120.9 403.577 121.06 403.884 121.18C404.191 121.287 404.644 121.427 405.244 121.6C406.044 121.813 406.697 122.033 407.204 122.26C407.724 122.473 408.171 122.793 408.544 123.22C408.917 123.647 409.111 124.213 409.124 124.92C409.124 125.547 408.951 126.107 408.604 126.6C408.257 127.093 407.764 127.48 407.124 127.76C406.497 128.04 405.757 128.18 404.904 128.18Z" fill="#57575A"/>
<path fill-rule="evenodd" clip-rule="evenodd" d="M438.393 150.167L444.464 156L444.643 156.667V160H442.857V158.333H435.714V151.667H426.786V170H433.929V171.667H425.893L425 170.833V150.833L425.893 150H437.857L438.393 150.167ZM437.5 151.667V156.667H442.679L437.5 151.667ZM444.643 175H442.857V170H437.5V168.333H442.857V163.333H444.643V168.333H450V170H444.643V175Z" fill="#57575A"/>
<path d="M399.013 150L388.782 166.252M390.237 150L380 166.252L384.388 173.224H404.863L409.25 166.252L399.013 150H390.237ZM380 166.252H400.468H380ZM404.863 173.224L394.625 156.971L404.863 173.224Z" stroke="black" stroke-linecap="round" stroke-linejoin="round"/>
<path d="M351.25 159.07C351.113 159.07 351 159.176 351 159.305V167.391C351 167.52 351.113 167.625 351.25 167.625H352.266C352.403 167.625 352.516 167.52 352.516 167.391V164.593H354.494C356.35 164.593 357.5 163.453 357.5 161.836C357.5 160.239 356.366 159.073 354.5 159.073H351.25V159.07ZM355.956 161.833C355.956 163.104 355.128 163.424 353.731 163.424H352.516V160.248H354.272C355.328 160.248 355.956 160.825 355.956 161.833ZM364.706 153.58L357.981 147.275C357.794 147.1 357.541 147 357.275 147H344C343.447 147 343 147.419 343 147.938V172.312C343 172.831 343.447 173.25 344 173.25H364C364.553 173.25 365 172.831 365 172.312V154.245C365 153.996 364.894 153.756 364.706 153.58ZM362.694 154.676H356.812V149.162L362.694 154.676ZM362.75 171.141H345.25V149.109H354.688V155.438C354.688 155.764 354.826 156.077 355.072 156.308C355.318 156.538 355.652 156.668 356 156.668H362.75V171.141Z" fill="#625C5C"/>
<path d="M317.131 163.52L317.14 163.474C317.33 162.701 317.568 161.736 317.382 160.862C317.258 160.173 316.745 159.904 316.307 159.885C315.791 159.862 315.33 160.154 315.216 160.578C315 161.354 315.193 162.416 315.546 163.769C315.102 164.818 314.393 166.342 313.873 167.248C312.906 167.743 311.609 168.507 311.416 169.472C311.377 169.65 311.423 169.876 311.531 170.08C311.652 170.307 311.844 170.482 312.07 170.566C312.168 170.601 312.286 170.63 312.423 170.63C312.998 170.63 313.929 170.171 315.17 168.061C315.36 167.999 315.556 167.934 315.745 167.87C316.634 167.572 317.555 167.261 318.388 167.122C319.31 167.611 320.358 167.925 321.071 167.925C321.776 167.925 322.054 167.51 322.159 167.261C322.341 166.824 322.253 166.274 321.956 165.979C321.525 165.559 320.476 165.449 318.842 165.649C318.039 165.164 317.513 164.504 317.131 163.52ZM313.547 168.436C313.092 169.09 312.749 169.417 312.563 169.559C312.782 169.161 313.21 168.74 313.547 168.436ZM316.409 160.814C316.578 161.102 316.556 161.973 316.425 162.413C316.265 161.769 316.242 160.856 316.337 160.749C316.363 160.752 316.386 160.772 316.409 160.814ZM316.356 164.714C316.706 165.313 317.147 165.827 317.634 166.209C316.928 166.368 316.284 166.63 315.709 166.863C315.572 166.918 315.438 166.973 315.308 167.025C315.742 166.245 316.105 165.361 316.356 164.714ZM321.44 166.834C321.443 166.84 321.446 166.85 321.427 166.863H321.42L321.414 166.873C321.388 166.889 321.12 167.044 319.966 166.594C321.293 166.533 321.437 166.831 321.44 166.834ZM327.693 154.269L320.662 147.304C320.466 147.11 320.202 147 319.924 147H306.045C305.467 147 305 147.463 305 148.036V174.964C305 175.537 305.467 176 306.045 176H326.955C327.533 176 328 175.537 328 174.964V155.004C328 154.729 327.889 154.464 327.693 154.269ZM325.589 155.48H319.44V149.389L325.589 155.48ZM325.648 173.67H307.352V149.33H317.219V156.321C317.219 156.682 317.363 157.028 317.621 157.283C317.878 157.538 318.227 157.681 318.591 157.681H325.648V173.67Z" fill="#625C5C"/>
</svg>
