<svg width="51" height="51" viewBox="0 0 51 51" fill="none" xmlns="http://www.w3.org/2000/svg">
<ellipse cx="25.5257" cy="25.1516" rx="24.8304" ry="25.1516" fill="#345587"/>
<path d="M17.1018 36.021V16.0147H26.1827C28.434 16.0147 30.1745 16.5539 31.4042 17.6322C32.6339 18.6917 33.2487 20.1768 33.2487 22.0875C33.2487 23.3362 32.9649 24.4145 32.3974 25.3226C31.8487 26.2118 31.0542 26.9023 30.0136 27.3942C28.992 27.8671 27.7623 28.1036 26.3245 28.1036L26.6651 27.4793H27.8286C28.6421 27.4793 29.361 27.6969 29.9853 28.132C30.6285 28.5671 31.1582 29.2009 31.5744 30.0333L34.5541 36.021H29.6731L26.5799 29.5793C26.3529 29.0306 25.9935 28.6712 25.5016 28.5009C25.0286 28.3117 24.48 28.2171 23.8557 28.2171H21.5287V36.021H17.1018ZM21.5287 25.0388H25.4165C26.5705 25.0388 27.4502 24.8023 28.0556 24.3294C28.661 23.8564 28.9637 23.1564 28.9637 22.2294C28.9637 21.3024 28.661 20.6119 28.0556 20.1579C27.4502 19.6849 26.5705 19.4484 25.4165 19.4484H21.5287V25.0388Z" fill="white"/>
</svg>
