<svg width="29" height="382" viewBox="0 0 29 382" fill="none" xmlns="http://www.w3.org/2000/svg">
<path d="M27.2557 14.1145C27.2557 21.1308 21.4311 26.85 14.207 26.85C6.98288 26.85 1.15828 21.1308 1.15828 14.1145C1.15828 7.09817 6.98288 1.37898 14.207 1.37898C21.4311 1.37898 27.2557 7.09817 27.2557 14.1145Z" fill="white" stroke="#14305A" stroke-width="1.61538"/>
<ellipse cx="14.2095" cy="14.1202" rx="6.92821" ry="6.77159" fill="#14305A"/>
<path d="M27.2557 368.178C27.2557 375.194 21.4311 380.913 14.207 380.913C6.98288 380.913 1.15828 375.194 1.15828 368.178C1.15828 361.161 6.98288 355.442 14.207 355.442C21.4311 355.442 27.2557 361.161 27.2557 368.178Z" fill="white" stroke="#14305A" stroke-width="1.61538"/>
<ellipse cx="14.2095" cy="368.176" rx="6.92821" ry="6.77159" fill="#14305A"/>
<line y1="-0.5" x2="326.971" y2="-0.5" transform="matrix(-6.82138e-05 1 -1 -6.51647e-05 12.231 28.6294)" stroke="#0064AF"/>
</svg>
