<svg width="353" height="79" viewBox="0 0 353 79" fill="none" xmlns="http://www.w3.org/2000/svg">
<path d="M32.7324 60.7548V78.7043L65.4579 60.5222V42.575L32.7324 60.7548Z" fill="#2EA5FF"/>
<path d="M47.3818 26.0882L63.529 17.1133L32.7324 0V17.9491L47.3818 26.0882Z" fill="#0064AF"/>
<path d="M20.0137 31.4475V49.4025L32.7318 56.4671V38.5202L20.0137 31.4475Z" fill="#ABDBFF"/>
<path d="M65.4579 20.3306L32.7324 38.5202V56.4671L65.4579 38.2849V20.3306Z" fill="#2EA5FF"/>
<path d="M1.94727 17.1029L17.9977 26.1301L32.7294 17.9491V0L1.94727 17.1029Z" fill="#2EA5FF"/>
<path d="M16.1527 51.5472V29.2942L0 20.3223V60.5215L32.7309 78.7035V60.754L16.1527 51.5472Z" fill="#ABDBFF"/>
<path d="M96.4935 56.029C95.2779 56.029 94.2415 55.881 93.3843 55.5848C92.5272 55.3043 91.8258 55.0238 91.2804 54.7433C90.7349 54.4471 90.3141 54.2991 90.018 54.2991C89.7219 54.2991 89.4413 54.3926 89.1764 54.5796C88.9114 54.7666 88.6543 54.977 88.4049 55.2108C88.1556 55.4446 87.8984 55.655 87.6335 55.842C87.3685 56.029 87.088 56.1225 86.7919 56.1225C86.449 56.1225 86.1607 56.0134 85.9269 55.7952C85.6931 55.5926 85.5373 55.2576 85.4594 54.79L83.9398 46.3975C83.8931 46.0546 83.9398 45.7663 84.0801 45.5325C84.2359 45.2832 84.4853 45.0962 84.8282 44.9715C85.2022 44.8468 85.5295 44.8546 85.81 44.9948C86.0906 45.1351 86.3399 45.4156 86.5581 45.8364C87.6023 47.8469 88.6309 49.4132 89.6439 50.5353C90.6725 51.6574 91.7011 52.4445 92.7298 52.8964C93.7584 53.3484 94.8026 53.5744 95.8623 53.5744C97.3273 53.5744 98.4884 53.2081 99.3456 52.4756C100.218 51.7276 100.655 50.6834 100.655 49.3431C100.67 48.4703 100.475 47.6911 100.07 47.0053C99.6651 46.3196 98.9014 45.665 97.7793 45.0416C96.6728 44.4026 95.0441 43.748 92.8934 43.0779C90.4621 42.2986 88.514 41.4025 87.049 40.3895C85.5996 39.3765 84.5476 38.1842 83.8931 36.8127C83.2385 35.4257 82.9112 33.8048 82.9112 31.9502C82.9112 30.0021 83.3788 28.2877 84.3139 26.8072C85.2645 25.311 86.6049 24.1421 88.3348 23.3005C90.0647 22.459 92.0908 22.0382 94.4129 22.0382C95.7221 22.0382 96.8208 22.1706 97.7092 22.4356C98.5975 22.6849 99.3378 22.9421 99.93 23.207C100.522 23.472 101.013 23.6045 101.403 23.6045C101.761 23.6045 102.081 23.472 102.361 23.207C102.657 22.9265 102.969 22.646 103.296 22.3654C103.624 22.0693 103.998 21.9213 104.418 21.9213C104.777 21.9213 105.081 22.0382 105.33 22.2719C105.58 22.5057 105.79 22.9343 105.961 23.5577L108.182 31.7632C108.291 32.184 108.276 32.558 108.136 32.8853C107.995 33.197 107.746 33.4152 107.387 33.5399C107.013 33.6646 106.678 33.6568 106.382 33.5165C106.102 33.3607 105.868 33.1035 105.681 32.745C104.574 30.6255 103.437 28.9657 102.268 27.7656C101.114 26.5656 99.9534 25.724 98.7845 25.2409C97.6312 24.7422 96.4857 24.4928 95.348 24.4928C93.9298 24.4928 92.7999 24.9058 91.9583 25.7318C91.1323 26.5578 90.7193 27.6488 90.7193 29.0046C90.7193 29.8462 90.9063 30.6255 91.2804 31.3424C91.67 32.0437 92.4103 32.7373 93.5012 33.423C94.5922 34.0931 96.174 34.8023 98.2468 35.5503C100.694 36.4075 102.642 37.3426 104.091 38.3556C105.541 39.3687 106.585 40.522 107.224 41.8155C107.863 43.0935 108.182 44.5741 108.182 46.2572C108.182 48.0651 107.715 49.7093 106.78 51.1899C105.845 52.6549 104.512 53.8315 102.782 54.7199C101.052 55.5926 98.956 56.029 96.4935 56.029ZM142.367 34.8023C142.367 36.8595 141.837 38.644 140.777 40.1557C139.733 41.6519 138.244 42.8129 136.312 43.639C134.379 44.465 132.088 44.878 129.439 44.878C127.631 44.878 126.034 44.6831 124.647 44.2935C123.26 43.9039 122.021 43.3584 120.93 42.6571L121.21 40.5531C121.818 40.9739 122.418 41.3246 123.01 41.6051C123.618 41.8701 124.241 42.0649 124.88 42.1896C125.535 42.3142 126.228 42.3766 126.961 42.3766C128.223 42.3766 129.361 42.0882 130.374 41.5116C131.403 40.9194 132.213 40.0466 132.805 38.8933C133.413 37.74 133.717 36.3062 133.717 34.5919C133.717 32.597 133.366 30.8904 132.665 29.4722C131.964 28.0384 130.997 26.9396 129.766 26.176C128.551 25.3967 127.148 25.0071 125.558 25.0071H124.319V51.4003C124.319 51.7431 124.405 52.0315 124.576 52.2652C124.763 52.4834 125.052 52.6315 125.441 52.7094L127.171 53.0133C127.545 53.0913 127.81 53.2237 127.966 53.4107C128.138 53.5978 128.223 53.8705 128.223 54.229C128.223 54.5718 128.106 54.8446 127.873 55.0472C127.655 55.2498 127.296 55.3511 126.797 55.3511H113.542C113.059 55.3511 112.701 55.2498 112.467 55.0472C112.233 54.8446 112.116 54.5718 112.116 54.229C112.116 53.6367 112.428 53.2315 113.051 53.0133L114.29 52.7094C114.664 52.5847 114.945 52.4211 115.132 52.2185C115.319 52.0159 115.412 51.7509 115.412 51.4237V26.5734C115.412 26.2461 115.319 25.9812 115.132 25.7786C114.945 25.5604 114.664 25.3889 114.29 25.2643L113.051 24.9603C112.428 24.7422 112.116 24.3369 112.116 23.7447C112.116 23.3863 112.233 23.1135 112.467 22.9265C112.701 22.7239 113.059 22.6226 113.542 22.6226H125.769C129.26 22.6226 132.236 23.1447 134.699 24.1889C137.177 25.2331 139.071 26.6747 140.38 28.5137C141.704 30.3372 142.367 32.4333 142.367 34.8023ZM176.674 47.4962C176.674 49.834 175.669 51.7276 173.659 53.177C171.664 54.6264 168.632 55.3511 164.565 55.3511H147.102C146.619 55.3511 146.26 55.2498 146.026 55.0472C145.793 54.8446 145.676 54.5718 145.676 54.229C145.676 53.6367 145.987 53.2315 146.611 53.0133L147.826 52.7094C148.216 52.5847 148.504 52.4211 148.691 52.2185C148.878 52.0003 148.972 51.7042 148.972 51.3301V26.55C148.972 26.2227 148.878 25.9578 148.691 25.7552C148.504 25.5526 148.216 25.3889 147.826 25.2643L146.611 24.9603C145.987 24.7422 145.676 24.3369 145.676 23.7447C145.676 23.3863 145.793 23.1135 146.026 22.9265C146.26 22.7239 146.619 22.6226 147.102 22.6226H160.52C163.528 22.6226 166.092 23.0278 168.212 23.8382C170.347 24.6331 171.975 25.7474 173.098 27.1812C174.235 28.5994 174.804 30.2592 174.804 32.1606C174.804 33.7347 174.344 35.1296 173.425 36.3452C172.521 37.5608 171.204 38.5115 169.474 39.1972C167.744 39.883 165.632 40.2258 163.139 40.2258L164.331 39.5245C166.793 39.5245 168.944 39.8596 170.783 40.5297C172.638 41.1999 174.079 42.1428 175.108 43.3584C176.152 44.5585 176.674 45.9377 176.674 47.4962ZM161.409 41.1843H155.681V39.2674H160.731C161.993 39.2674 163.053 39.0258 163.91 38.5427C164.783 38.0439 165.43 37.3037 165.851 36.3218C166.287 35.3399 166.505 34.1243 166.505 32.6749C166.505 31.0697 166.209 29.6826 165.617 28.5137C165.04 27.3448 164.206 26.4409 163.115 25.8019C162.024 25.1474 160.723 24.8201 159.211 24.8201H157.832V50.9094C157.832 51.673 158.058 52.2419 158.51 52.6159C158.962 52.9744 159.617 53.1536 160.474 53.1536H162.484C163.637 53.1536 164.612 52.9198 165.406 52.4523C166.217 51.9691 166.832 51.2834 167.253 50.395C167.674 49.5067 167.884 48.4547 167.884 47.2391C167.884 45.3689 167.323 43.8961 166.201 42.8207C165.095 41.7298 163.497 41.1843 161.409 41.1843ZM189.016 37.5141H195.492C196.536 37.5141 197.284 37.3037 197.736 36.8829C198.188 36.4621 198.546 35.6439 198.811 34.4282C198.92 34.0386 199.076 33.7581 199.279 33.5866C199.481 33.4152 199.731 33.3217 200.027 33.3061C200.619 33.2905 201.001 33.6334 201.172 34.3347L203.136 41.7921C203.23 42.1973 203.222 42.5246 203.113 42.774C203.019 43.0078 202.809 43.1792 202.482 43.2883C202.17 43.3974 201.874 43.413 201.593 43.335C201.328 43.2571 201.094 43.0701 200.892 42.774C200.362 41.9792 199.879 41.3791 199.442 40.9739C199.006 40.5531 198.531 40.2648 198.016 40.109C197.502 39.9531 196.855 39.8752 196.076 39.8752H189.016V37.5141ZM179.829 23.7447C179.829 23.3863 179.946 23.1135 180.179 22.9265C180.413 22.7239 180.772 22.6226 181.255 22.6226H199.583C200.159 22.6226 200.643 22.5525 201.032 22.4122C201.437 22.2719 201.804 22.1395 202.131 22.0148C202.474 21.8745 202.848 21.8044 203.253 21.8044C203.736 21.8044 204.102 21.9446 204.352 22.2252C204.601 22.4901 204.819 22.9499 205.006 23.6045L206.993 30.6645C207.118 31.0697 207.118 31.4047 206.993 31.6697C206.869 31.9346 206.635 32.1294 206.292 32.2541C205.887 32.3788 205.528 32.371 205.217 32.2307C204.905 32.0905 204.648 31.8255 204.445 31.4359C203.697 30.0956 203.004 29.0124 202.365 28.1864C201.741 27.3448 201.126 26.6981 200.518 26.2461C199.91 25.7786 199.279 25.4591 198.624 25.2876C197.97 25.1162 197.245 25.0305 196.45 25.0305H192.032V50.6522C192.032 51.4159 192.234 51.9925 192.64 52.3821C193.045 52.7562 193.645 52.9432 194.44 52.9432H197.058C198.149 52.9432 199.123 52.7484 199.98 52.3588C200.853 51.9535 201.718 51.1977 202.575 50.0911C203.432 48.9846 204.383 47.3716 205.427 45.252C205.599 44.8935 205.817 44.652 206.082 44.5273C206.362 44.387 206.682 44.3481 207.04 44.4104C207.43 44.4883 207.71 44.6676 207.882 44.9481C208.053 45.2286 208.077 45.5871 207.952 46.0235L205.754 54.3225C205.583 54.9459 205.365 55.4056 205.1 55.7017C204.85 55.9979 204.461 56.1459 203.931 56.1459C203.573 56.1459 203.23 56.0758 202.902 55.9355C202.575 55.8108 202.209 55.6784 201.804 55.5381C201.398 55.4134 200.9 55.3511 200.307 55.3511H181.255C180.772 55.3511 180.413 55.2498 180.179 55.0472C179.946 54.8446 179.829 54.5718 179.829 54.229C179.829 53.6367 180.148 53.2315 180.787 53.0133L181.98 52.7094C182.369 52.6003 182.657 52.4445 182.844 52.2419C183.031 52.0237 183.125 51.7509 183.125 51.4237V26.55C183.125 26.2227 183.031 25.9578 182.844 25.7552C182.657 25.537 182.369 25.3733 181.98 25.2643L180.787 24.9603C180.148 24.7422 179.829 24.3369 179.829 23.7447ZM249.529 46.117C249.498 47.3482 249.163 48.5638 248.524 49.7639C247.9 50.9639 247.004 52.0548 245.835 53.0367C244.667 54.003 243.256 54.7744 241.604 55.3511C239.968 55.9277 238.136 56.216 236.11 56.216C232.713 56.216 229.783 55.4991 227.321 54.0653C224.858 52.6159 222.957 50.6132 221.616 48.0573C220.292 45.5014 219.629 42.5558 219.629 39.2206C219.629 36.7114 220.027 34.3971 220.822 32.2775C221.632 30.1579 222.762 28.3189 224.211 26.7604C225.661 25.1863 227.359 23.9707 229.308 23.1135C231.256 22.2408 233.383 21.8044 235.69 21.8044C237.186 21.8044 238.401 21.9446 239.337 22.2252C240.287 22.5057 241.043 22.794 241.604 23.0901C242.165 23.3707 242.602 23.5109 242.913 23.5109C243.303 23.5109 243.638 23.3785 243.919 23.1135C244.199 22.8486 244.48 22.5914 244.76 22.3421C245.041 22.0771 245.368 21.9447 245.742 21.9447C246.022 21.9447 246.256 22.0382 246.443 22.2252C246.646 22.3966 246.81 22.7005 246.934 23.1369L249.319 31.6229C249.428 31.9814 249.389 32.3087 249.202 32.6048C249.015 32.8853 248.742 33.0645 248.384 33.1425C247.994 33.236 247.643 33.2048 247.332 33.049C247.036 32.8931 246.794 32.6204 246.607 32.2307C245.781 30.267 244.861 28.7241 243.848 27.602C242.851 26.4643 241.791 25.6617 240.669 25.1941C239.547 24.711 238.37 24.4694 237.139 24.4694C235.877 24.4694 234.723 24.7655 233.679 25.3578C232.651 25.95 231.762 26.8072 231.014 27.9293C230.266 29.0358 229.689 30.3839 229.284 31.9736C228.879 33.5477 228.676 35.3322 228.676 37.327C228.676 40.4908 229.121 43.1402 230.009 45.2754C230.897 47.4105 232.121 49.0158 233.679 50.0911C235.238 51.1665 237.022 51.7042 239.033 51.7042C240.934 51.7042 242.617 51.2133 244.082 50.2314C245.547 49.234 246.677 47.8001 247.472 45.9299C247.659 45.5715 247.862 45.3299 248.08 45.2052C248.298 45.0806 248.539 45.0416 248.804 45.0884C249.069 45.1351 249.256 45.2442 249.365 45.4156C249.475 45.5871 249.529 45.8209 249.529 46.117ZM266.135 52.4289V51.9613L265.597 51.9847V37.1634C265.597 36.3218 265.379 35.6672 264.943 35.1997C264.522 34.7165 263.938 34.475 263.19 34.475C262.504 34.475 261.958 34.6308 261.553 34.9425C261.164 35.2542 260.969 35.6516 260.969 36.1348V38.4024C260.969 39.4933 260.595 40.3505 259.847 40.9739C259.099 41.5973 258.062 41.909 256.737 41.909C255.631 41.909 254.789 41.6519 254.213 41.1376C253.636 40.6233 253.348 39.9063 253.348 38.9868C253.348 38.005 253.768 37.0387 254.61 36.088C255.452 35.1218 256.698 34.3269 258.35 33.7035C260.018 33.0645 262.091 32.745 264.569 32.745C267.592 32.745 269.844 33.3373 271.325 34.5217C272.806 35.6906 273.546 37.2881 273.546 39.3141V51.0262C273.546 51.4003 273.624 51.6964 273.78 51.9146C273.951 52.1172 274.193 52.2185 274.504 52.2185C274.8 52.2185 275.034 52.1406 275.206 51.9847C275.393 51.8289 275.541 51.6496 275.65 51.447C275.728 51.3379 275.813 51.2522 275.907 51.1899C276 51.1275 276.11 51.0964 276.234 51.0964C276.421 51.0964 276.562 51.1665 276.655 51.3068C276.749 51.447 276.795 51.6341 276.795 51.8678C276.795 52.4133 276.585 53.0055 276.164 53.6445C275.759 54.2679 275.136 54.8056 274.294 55.2576C273.468 55.7095 272.424 55.9355 271.161 55.9355C269.618 55.9355 268.395 55.616 267.491 54.977C266.587 54.3225 266.135 53.4731 266.135 52.4289ZM252.366 50.4652C252.366 48.4859 253.246 46.904 255.007 45.7196C256.784 44.5195 259.332 43.9195 262.652 43.9195C263.603 43.9195 264.429 43.9974 265.13 44.1533C265.831 44.3091 266.431 44.5195 266.93 44.7845L266.369 46.2339C265.933 46.0157 265.504 45.852 265.083 45.7429C264.662 45.6338 264.195 45.5793 263.681 45.5793C262.668 45.5793 261.873 45.891 261.296 46.5144C260.735 47.1222 260.454 47.995 260.454 49.1327C260.454 50.286 260.712 51.1587 261.226 51.7509C261.756 52.3276 262.442 52.6159 263.283 52.6159C263.907 52.6159 264.499 52.4679 265.06 52.1717C265.636 51.8756 266.104 51.486 266.462 51.0029L266.953 52.3354C266.174 53.4887 265.091 54.377 263.704 55.0004C262.317 55.6238 260.836 55.9355 259.262 55.9355C257.205 55.9355 255.537 55.429 254.259 54.416C252.997 53.3874 252.366 52.0704 252.366 50.4652ZM288.883 34.288V51.5873C288.883 52.0704 288.937 52.4211 289.046 52.6393C289.171 52.8575 289.35 53.0211 289.584 53.1302L290.332 53.364C290.768 53.5666 290.987 53.8783 290.987 54.2991C290.987 55.0004 290.55 55.3511 289.677 55.3511H279.859C279.407 55.3511 279.08 55.2654 278.877 55.0939C278.674 54.9069 278.573 54.6653 278.573 54.3692C278.573 54.1354 278.635 53.9328 278.76 53.7614C278.9 53.59 279.111 53.4497 279.391 53.3406L280.163 53.1068C280.412 53.0289 280.591 52.8809 280.7 52.6627C280.81 52.4445 280.864 52.0938 280.864 51.6107V38.5193C280.864 38.1297 280.81 37.8491 280.7 37.6777C280.591 37.5063 280.412 37.3972 280.163 37.3504L279.228 37.2569C278.963 37.179 278.768 37.0699 278.643 36.9296C278.534 36.7738 278.48 36.5867 278.48 36.3686C278.48 36.1036 278.55 35.8932 278.69 35.7374C278.846 35.5815 279.134 35.4257 279.555 35.2698L284.908 33.3996C285.485 33.1658 285.953 33.0022 286.311 32.9087C286.669 32.8152 287.02 32.7684 287.363 32.7684C287.862 32.7684 288.236 32.9087 288.485 33.1892C288.75 33.4697 288.883 33.836 288.883 34.288ZM288.134 39.6414L287.082 38.5427L287.901 37.7946C289.911 35.9244 291.657 34.6152 293.137 33.8672C294.633 33.1035 296.028 32.7217 297.322 32.7217C299.254 32.7217 300.805 33.3451 301.974 34.5919C303.143 35.8387 303.727 37.5452 303.727 39.7115V51.5873C303.727 52.086 303.782 52.4445 303.891 52.6627C304 52.8809 304.179 53.0367 304.429 53.1302L305.083 53.364C305.52 53.5822 305.738 53.8939 305.738 54.2991C305.738 55.0004 305.301 55.3511 304.429 55.3511H294.914C294.057 55.3511 293.628 55.0004 293.628 54.2991C293.628 53.8783 293.846 53.5666 294.283 53.364L294.984 53.1302C295.265 53.0211 295.459 52.8497 295.569 52.6159C295.678 52.3821 295.732 52.0159 295.732 51.5172V40.8103C295.732 39.6414 295.459 38.7609 294.914 38.1686C294.384 37.5764 293.652 37.2803 292.716 37.2803C292.109 37.2803 291.493 37.4128 290.87 37.6777C290.246 37.9426 289.623 38.3401 288.999 38.8699L288.134 39.6414ZM302.979 39.6414L301.927 38.5427L302.722 37.7712C304.592 35.9789 306.221 34.6932 307.608 33.9139C309.011 33.1191 310.343 32.7217 311.605 32.7217C313.476 32.7217 314.948 33.3529 316.024 34.6152C317.099 35.862 317.746 37.5608 317.964 39.7115L319.227 51.5873C319.289 52.086 319.367 52.4445 319.46 52.6627C319.554 52.8809 319.725 53.0367 319.975 53.1302L320.653 53.364C320.917 53.4575 321.112 53.59 321.237 53.7614C321.377 53.9328 321.447 54.1354 321.447 54.3692C321.447 54.6653 321.346 54.9069 321.143 55.0939C320.941 55.2654 320.614 55.3511 320.162 55.3511H310.296C309.439 55.3511 309.011 55.0004 309.011 54.2991C309.011 53.8783 309.229 53.5666 309.665 53.364L310.366 53.1302C310.647 53.0211 310.85 52.8497 310.974 52.6159C311.115 52.3821 311.161 52.0081 311.115 51.4938L309.992 40.8103C309.883 39.6414 309.595 38.7609 309.127 38.1686C308.66 37.5764 307.974 37.2803 307.07 37.2803C306.556 37.2803 306.026 37.4205 305.481 37.7011C304.935 37.966 304.382 38.3479 303.821 38.8466L302.979 39.6414ZM332.978 34.2646V36.6958L333.282 37.327V62.4812C333.282 62.9643 333.337 63.315 333.446 63.5332C333.555 63.767 333.734 63.9228 333.984 64.0007L334.919 64.2345C335.215 64.3436 335.425 64.4839 335.55 64.6553C335.675 64.8267 335.737 65.0294 335.737 65.2631C335.737 65.5592 335.636 65.793 335.433 65.9645C335.23 66.1515 334.903 66.245 334.451 66.245H324.282C323.83 66.245 323.503 66.1515 323.3 65.9645C323.097 65.793 322.996 65.5592 322.996 65.2631C322.996 65.0294 323.058 64.8267 323.183 64.6553C323.308 64.4839 323.518 64.3436 323.814 64.2345L324.586 64.0241C324.835 63.9306 325.007 63.7748 325.1 63.5566C325.209 63.3384 325.264 62.9799 325.264 62.4812V38.4959C325.264 38.1063 325.209 37.8335 325.1 37.6777C324.991 37.5063 324.82 37.3894 324.586 37.327L323.627 37.2335C323.362 37.1556 323.168 37.0465 323.043 36.9062C322.934 36.766 322.879 36.579 322.879 36.3452C322.879 36.0802 322.957 35.8776 323.113 35.7374C323.269 35.5971 323.549 35.4412 323.955 35.2698L329.004 33.3762C329.565 33.1425 330.025 32.9788 330.383 32.8853C330.757 32.7918 331.093 32.745 331.389 32.745C331.919 32.745 332.316 32.8853 332.581 33.1658C332.846 33.4464 332.978 33.8126 332.978 34.2646ZM331.95 39.9921L330.804 38.7531C332.02 36.8517 333.391 35.3711 334.919 34.3113C336.462 33.2516 338.192 32.7217 340.108 32.7217C341.947 32.7217 343.576 33.1814 344.994 34.1009C346.428 35.0205 347.55 36.2984 348.361 37.9348C349.187 39.5713 349.6 41.4726 349.6 43.639C349.6 46.1326 349.109 48.2989 348.127 50.1379C347.145 51.9769 345.797 53.403 344.083 54.416C342.384 55.429 340.467 55.9355 338.332 55.9355C336.54 55.9355 334.981 55.5537 333.656 54.79C332.332 54.0108 331.225 52.8497 330.337 51.3068L332.113 50.021C332.768 51.112 333.469 51.9068 334.217 52.4055C334.981 52.9042 335.815 53.1536 336.719 53.1536C337.607 53.1536 338.402 52.8653 339.103 52.2886C339.805 51.712 340.35 50.7847 340.74 49.5067C341.129 48.2287 341.324 46.5533 341.324 44.4805C341.324 42.548 341.129 40.9895 340.74 39.805C340.366 38.605 339.844 37.7245 339.173 37.1634C338.519 36.5867 337.755 36.2984 336.882 36.2984C335.963 36.2984 335.09 36.6023 334.264 37.2101C333.438 37.8024 332.667 38.7297 331.95 39.9921Z" fill="#0064AF"/>
</svg>
