<svg width="27" height="13" viewBox="0 0 27 13" fill="none" xmlns="http://www.w3.org/2000/svg">
<path d="M26.2897 0.577349C26.0659 0.394332 25.8002 0.249133 25.5077 0.150064C25.2152 0.0509944 24.9016 0 24.5849 0C24.2682 0 23.9546 0.0509944 23.6621 0.150064C23.3696 0.249133 23.1038 0.394332 22.8801 0.577349L13.4979 8.23731L4.11566 0.577349C3.66353 0.208214 3.05031 0.000835946 2.4109 0.000835946C1.77149 0.000835946 1.15826 0.208214 0.706131 0.577349C0.254 0.946483 0 1.44714 0 1.96917C0 2.49121 0.254 2.99186 0.706131 3.361L11.8052 12.4227C12.0289 12.6057 12.2947 12.7509 12.5872 12.8499C12.8797 12.949 13.1933 13 13.51 13C13.8267 13 14.1403 12.949 14.4328 12.8499C14.7253 12.7509 14.991 12.6057 15.2147 12.4227L26.3138 3.361C27.2327 2.61079 27.2327 1.34729 26.2897 0.577349Z" fill="#625C5C"/>
</svg>
