<svg width="23" height="29" viewBox="0 0 23 29" fill="none" xmlns="http://www.w3.org/2000/svg">
<path d="M12.1305 16.5196L12.1403 16.4743C12.3298 15.7008 12.5683 14.7363 12.3821 13.8624C12.258 13.173 11.745 12.9044 11.3072 12.8849C10.7911 12.8623 10.3304 13.1536 10.2161 13.5776C10.0004 14.3544 10.1932 15.416 10.546 16.7689C10.1017 17.8175 9.39276 19.342 8.87329 20.2482C7.90625 20.7434 6.60923 21.5073 6.41648 22.4718C6.37727 22.6498 6.42301 22.8763 6.53082 23.0802C6.6517 23.3068 6.84446 23.4816 7.06989 23.5657C7.1679 23.6013 7.28551 23.6305 7.42273 23.6305C7.99773 23.6305 8.92883 23.1709 10.1703 21.0606C10.3598 20.9991 10.5558 20.9344 10.7453 20.8696C11.6339 20.5719 12.5553 20.2612 13.3884 20.122C14.3097 20.6107 15.3584 20.9247 16.0706 20.9247C16.7763 20.9247 17.054 20.5104 17.1585 20.2612C17.3415 19.8242 17.2533 19.274 16.956 18.9795C16.5247 18.5587 15.476 18.4487 13.8425 18.6493C13.0388 18.1638 12.5128 17.5036 12.1305 16.5196ZM8.54659 21.436C8.09247 22.0898 7.74943 22.4167 7.56321 22.5592C7.7821 22.161 8.21008 21.7403 8.54659 21.436ZM11.4085 13.8138C11.5784 14.1019 11.5555 14.9725 11.4249 15.4127C11.2648 14.7686 11.2419 13.8559 11.3366 13.7491C11.3628 13.7523 11.3857 13.7718 11.4085 13.8138ZM11.3562 17.714C11.7058 18.3127 12.1469 18.8273 12.6337 19.2093C11.928 19.3679 11.2844 19.63 10.7094 19.8631C10.5722 19.9181 10.4382 19.9731 10.3075 20.0249C10.742 19.2449 11.1047 18.3613 11.3562 17.714ZM16.4398 19.8339C16.443 19.8404 16.4463 19.8501 16.4267 19.8631H16.4202L16.4136 19.8728C16.3875 19.889 16.1196 20.0443 14.9663 19.5944C16.2928 19.5329 16.4365 19.8307 16.4398 19.8339ZM22.6929 7.26942L15.6622 0.304241C15.4662 0.110045 15.2016 0 14.9239 0H1.04545C0.467187 0 0 0.462835 0 1.03571V27.9643C0 28.5372 0.467187 29 1.04545 29H21.9545C22.5328 29 23 28.5372 23 27.9643V8.00413C23 7.72902 22.8889 7.46362 22.6929 7.26942ZM20.5889 8.47991H14.4403V2.38862L20.5889 8.47991ZM20.6477 26.6696H2.35227V2.33036H12.2187V9.32143C12.2187 9.68196 12.3633 10.0277 12.6206 10.2827C12.878 10.5376 13.227 10.6808 13.5909 10.6808H20.6477V26.6696Z" fill="#625C5C"/>
</svg>
