<svg width="16" height="16" viewBox="0 0 16 16" fill="none" xmlns="http://www.w3.org/2000/svg">
<path d="M12.5 7C14.43 7 16 5.43 16 3.5C16 1.57 14.43 0 12.5 0C10.57 0 9 1.57 9 3.5V5H7V3.5C7 1.57 5.43 0 3.5 0C1.57 0 0 1.57 0 3.5C0 5.43 1.57 7 3.5 7H5V9H3.5C1.57 9 0 10.57 0 12.5C0 14.43 1.57 16 3.5 16C5.43 16 7 14.43 7 12.5V11H9V12.5C9 14.43 10.57 16 12.5 16C14.43 16 16 14.43 16 12.5C16 10.57 14.43 9 12.5 9H11V7H12.5ZM11 3.5C11.0142 3.11165 11.1784 2.74394 11.4582 2.47422C11.7379 2.2045 12.1114 2.05378 12.5 2.05378C12.8886 2.05378 13.2621 2.2045 13.5418 2.47422C13.8216 2.74394 13.9858 3.11165 14 3.5C14 4.326 13.327 5 12.5 5H11V3.5ZM5 12.5C5 13.326 4.327 14 3.5 14C2.673 14 2 13.326 2 12.5C2 11.672 2.673 11 3.5 11H5V12.5ZM5 5H3.5C3.20305 5.0002 2.9127 4.91231 2.66571 4.74745C2.41872 4.5826 2.22618 4.34818 2.11245 4.07387C1.99872 3.79956 1.96891 3.49767 2.02679 3.20641C2.08468 2.91516 2.22765 2.64761 2.43763 2.43763C2.64761 2.22765 2.91516 2.08468 3.20641 2.02679C3.49767 1.96891 3.79956 1.99872 4.07387 2.11245C4.34818 2.22618 4.5826 2.41872 4.74745 2.66571C4.91231 2.9127 5.0002 3.20305 5 3.5V5ZM9 9H7V7H9V9ZM12.5 11C12.8883 11.0142 13.2561 11.1784 13.5258 11.4582C13.7955 11.7379 13.9462 12.1114 13.9462 12.5C13.9462 12.8886 13.7955 13.2621 13.5258 13.5418C13.2561 13.8216 12.8883 13.9858 12.5 14C11.673 14 11 13.326 11 12.5V11H12.5Z" fill="#625C5C"/>
</svg>
