<svg width="20" height="22" viewBox="0 0 20 22" fill="none" xmlns="http://www.w3.org/2000/svg">
<path d="M14.6803 5.95413V4.74312C14.6803 4.63211 14.5846 4.54128 14.4676 4.54128H4.25516C4.13814 4.54128 4.0424 4.63211 4.0424 4.74312V5.95413C4.0424 6.06514 4.13814 6.15596 4.25516 6.15596H14.4676C14.5846 6.15596 14.6803 6.06514 14.6803 5.95413ZM4.25516 8.17431C4.13814 8.17431 4.0424 8.26514 4.0424 8.37615V9.58716C4.0424 9.69816 4.13814 9.78899 4.25516 9.78899H9.1486C9.26562 9.78899 9.36136 9.69816 9.36136 9.58716V8.37615C9.36136 8.26514 9.26562 8.17431 9.1486 8.17431H4.25516ZM8.08481 19.578H1.91482V1.81651H16.8079V10.4954C16.8079 10.6064 16.9036 10.6972 17.0206 10.6972H18.51C18.627 10.6972 18.7227 10.6064 18.7227 10.4954V0.807339C18.7227 0.36078 18.3424 0 17.8717 0H0.851032C0.380305 0 0 0.36078 0 0.807339V20.5872C0 21.0337 0.380305 21.3945 0.851032 21.3945H8.08481C8.20182 21.3945 8.29757 21.3037 8.29757 21.1927V19.7798C8.29757 19.6688 8.20182 19.578 8.08481 19.578ZM19.9381 20.8773L17.4568 18.5234C18.0499 17.7791 18.4036 16.8507 18.4036 15.844C18.4036 13.3917 16.3079 11.4037 13.7229 11.4037C11.1379 11.4037 9.04222 13.3917 9.04222 15.844C9.04222 18.2963 11.1379 20.2844 13.7229 20.2844C14.675 20.2844 15.5579 20.0144 16.2973 19.5528L18.8158 21.942C18.8583 21.9823 18.9115 22 18.9647 22C19.0179 22 19.0738 21.9798 19.1137 21.942L19.9381 21.1599C19.9577 21.1413 19.9733 21.1193 19.9839 21.0951C19.9945 21.0708 20 21.0448 20 21.0186C20 20.9923 19.9945 20.9663 19.9839 20.9421C19.9733 20.9178 19.9577 20.8958 19.9381 20.8773ZM13.7229 18.6697C12.0767 18.6697 10.7443 17.4057 10.7443 15.844C10.7443 14.2823 12.0767 13.0183 13.7229 13.0183C15.3691 13.0183 16.7015 14.2823 16.7015 15.844C16.7015 17.4057 15.3691 18.6697 13.7229 18.6697Z" fill="#625C5C"/>
</svg>
