<svg width="800" height="124" viewBox="0 0 800 124" fill="none" xmlns="http://www.w3.org/2000/svg">
<path d="M14.709 0C11.0614 0.0505431 7.57566 1.73721 4.99625 4.69973C2.41685 7.66225 0.948304 11.6658 0.904297 15.8551C0.948304 20.0444 2.41685 24.0479 4.99625 27.0104C7.57566 29.973 11.0614 31.6596 14.709 31.7102C18.3565 31.6596 21.8423 29.973 24.4217 27.0104C27.0011 24.0479 28.4697 20.0444 28.5137 15.8551C28.4697 11.6658 27.0011 7.66225 24.4217 4.69973C21.8423 1.73721 18.3565 0.0505431 14.709 0ZM22.5974 16.9876H15.695V24.9151H13.7229V16.9876H6.82059V14.7226H13.7229V6.79504H15.695V14.7226H22.5974V16.9876Z" fill="#B7C3E3"/>
<rect x="58.708" y="12" width="741.038" height="8" rx="4" fill="#B7C3E3"/>
<path d="M58.8198 46C55.5357 46.0505 52.3972 47.7372 50.0748 50.6997C47.7525 53.6623 46.4302 57.6658 46.3906 61.8551C46.4302 66.0444 47.7525 70.0479 50.0748 73.0104C52.3972 75.973 55.5357 77.6596 58.8198 77.7102C62.1039 77.6596 65.2423 75.973 67.5647 73.0104C69.887 70.0479 71.2093 66.0444 71.2489 61.8551C71.2093 57.6658 69.887 53.6623 67.5647 50.6997C65.2423 47.7372 62.1039 46.0505 58.8198 46ZM65.9221 62.9876H59.7075V70.9151H57.932V62.9876H51.7174V60.7226H57.932V52.795H59.7075V60.7226H65.9221V62.9876Z" fill="#D3D9E9"/>
<rect x="98.4375" y="58" width="667.198" height="8" rx="4" fill="#D3D9E9"/>
<path d="M82.265 92C79.2967 92.0505 76.4601 93.7372 74.3611 96.6997C72.2621 99.6623 71.0671 103.666 71.0312 107.855C71.0671 112.044 72.2621 116.048 74.3611 119.01C76.4601 121.973 79.2967 123.66 82.265 123.71C85.2332 123.66 88.0698 121.973 90.1688 119.01C92.2678 116.048 93.4629 112.044 93.4987 107.855C93.4629 103.666 92.2678 99.6623 90.1688 96.6997C88.0698 93.7372 85.2332 92.0505 82.265 92ZM88.6842 108.988H83.0674V116.915H81.4625V108.988H75.8457V106.723H81.4625V98.795H83.0674V106.723H88.6842V108.988Z" fill="#E7E9EF"/>
<rect x="118.07" y="104" width="603.027" height="8" rx="4" fill="#E7E9EF"/>
</svg>
