<svg width="29" height="22" viewBox="0 0 29 22" fill="none" xmlns="http://www.w3.org/2000/svg">
<path d="M9.12609 22C19.8287 22 25.6816 13.5368 25.6816 6.1979C25.6816 5.95751 25.6764 5.71822 25.6651 5.48001C26.8013 4.69606 27.7887 3.71776 28.5676 2.60409C27.525 3.04641 26.4031 3.34418 25.2261 3.47845C26.4275 2.79087 27.3497 1.70321 27.7848 0.40659C26.6606 1.04273 25.4156 1.50509 24.09 1.75471C23.0282 0.675197 21.5166 0 19.8428 0C16.6295 0 14.0238 2.48723 14.0238 5.55309C14.0238 5.98891 14.0748 6.41282 14.1747 6.81945C9.33868 6.58719 5.05049 4.37719 2.18059 1.01674C1.68088 1.8375 1.39274 2.7909 1.39274 3.80819C1.39274 5.73503 2.41999 7.43606 3.98208 8.43119C3.02745 8.40303 2.13067 8.1529 1.34687 7.73656C1.34601 7.75987 1.34601 7.78259 1.34601 7.80749C1.34601 10.4972 3.35168 12.7429 6.01411 13.2517C5.52518 13.379 5.01075 13.4472 4.47981 13.4472C4.10545 13.4472 3.74073 13.412 3.38623 13.347C4.127 15.5538 6.27506 17.1596 8.82177 17.2045C6.83027 18.6944 4.32154 19.5818 1.59497 19.5818C1.12589 19.5818 0.662478 19.5563 0.207031 19.5049C2.78219 21.0804 5.83996 21.9997 9.12641 21.9997" fill="#1DA1F2"/>
</svg>
