<svg width="33" height="30" viewBox="0 0 33 30" fill="none" xmlns="http://www.w3.org/2000/svg">
<path d="M17.122 16.8281L17.1316 16.7871C17.3186 16.0869 17.5538 15.2139 17.3701 14.4229C17.2477 13.7988 16.7417 13.5557 16.3099 13.5381C15.8007 13.5176 15.3463 13.7812 15.2335 14.165C15.0208 14.8682 15.2109 15.8291 15.559 17.0537C15.1207 18.0029 14.4214 19.3828 13.909 20.2031C12.9551 20.6514 11.6757 21.3428 11.4855 22.2158C11.4469 22.377 11.492 22.582 11.5983 22.7666C11.7176 22.9717 11.9077 23.1299 12.1301 23.2061C12.2268 23.2383 12.3428 23.2646 12.4781 23.2646C13.0453 23.2646 13.9638 22.8486 15.1884 20.9385C15.3753 20.8828 15.5687 20.8242 15.7556 20.7656C16.6321 20.4961 17.5409 20.2148 18.3627 20.0889C19.2715 20.5312 20.306 20.8154 21.0085 20.8154C21.7046 20.8154 21.9785 20.4404 22.0816 20.2148C22.2621 19.8193 22.1751 19.3213 21.8818 19.0547C21.4564 18.6738 20.422 18.5742 18.8106 18.7559C18.0179 18.3164 17.499 17.7188 17.122 16.8281ZM13.5867 21.2783C13.1388 21.8701 12.8004 22.166 12.6167 22.2949C12.8326 21.9346 13.2548 21.5537 13.5867 21.2783ZM16.4098 14.3789C16.5773 14.6396 16.5548 15.4277 16.4259 15.8262C16.268 15.2432 16.2454 14.417 16.3389 14.3203C16.3646 14.3232 16.3872 14.3408 16.4098 14.3789ZM16.3582 17.9092C16.703 18.4512 17.1381 18.917 17.6183 19.2627C16.9222 19.4062 16.2873 19.6436 15.7201 19.8545C15.5848 19.9043 15.4526 19.9541 15.3237 20.001C15.7523 19.2949 16.1101 18.4951 16.3582 17.9092ZM21.3727 19.8281C21.3759 19.834 21.3791 19.8428 21.3598 19.8545H21.3533L21.3469 19.8633C21.3211 19.8779 21.0568 20.0186 19.9192 19.6113C21.2276 19.5557 21.3694 19.8252 21.3727 19.8281ZM27.5408 8.45508L20.6057 2.15039C20.4123 1.97461 20.1513 1.875 19.8773 1.875H6.1875C5.61709 1.875 5.15625 2.29395 5.15625 2.8125V27.1875C5.15625 27.7061 5.61709 28.125 6.1875 28.125H26.8125C27.3829 28.125 27.8438 27.7061 27.8438 27.1875V9.12012C27.8438 8.87109 27.7342 8.63086 27.5408 8.45508ZM25.4654 9.55078H19.4004V4.03711L25.4654 9.55078ZM25.5234 26.0156H7.47656V3.98438H17.209V10.3125C17.209 10.6388 17.3516 10.9518 17.6054 11.1826C17.8593 11.4133 18.2035 11.543 18.5625 11.543H25.5234V26.0156Z" fill="#625C5C"/>
</svg>
