<svg width="799" height="124" viewBox="0 0 799 124" fill="none" xmlns="http://www.w3.org/2000/svg">
<path d="M13.8047 0C10.1571 0.0505431 6.67136 1.73721 4.09196 4.69973C1.51255 7.66225 0.0440068 11.6658 0 15.8551C0.0440068 20.0444 1.51255 24.0479 4.09196 27.0104C6.67136 29.973 10.1571 31.6596 13.8047 31.7102C17.4522 31.6596 20.938 29.973 23.5174 27.0104C26.0968 24.0479 27.5654 20.0444 27.6094 15.8551C27.5654 11.6658 26.0968 7.66225 23.5174 4.69973C20.938 1.73721 17.4522 0.0505431 13.8047 0ZM21.6931 16.9876H14.7907V24.9151H12.8186V16.9876H5.91629V14.7226H12.8186V6.79504H14.7907V14.7226H21.6931V16.9876Z" fill="#B7C3E3"/>
<rect x="57.8047" y="12" width="741.038" height="8" rx="4" fill="#B7C3E3"/>
<path d="M57.9135 46C54.6294 46.0505 51.491 47.7372 49.1686 50.6997C46.8462 53.6623 45.524 57.6658 45.4844 61.8551C45.524 66.0444 46.8462 70.0479 49.1686 73.0104C51.491 75.973 54.6294 77.6596 57.9135 77.7102C61.1976 77.6596 64.336 75.973 66.6584 73.0104C68.9808 70.0479 70.303 66.0444 70.3426 61.8551C70.303 57.6658 68.9808 53.6623 66.6584 50.6997C64.336 47.7372 61.1976 46.0505 57.9135 46ZM65.0159 62.9876H58.8013V70.9151H57.0257V62.9876H50.8111V60.7226H57.0257V52.795H58.8013V60.7226H65.0159V62.9876Z" fill="#D3D9E9"/>
<rect x="97.5312" y="58" width="667.198" height="8" rx="4" fill="#D3D9E9"/>
<path d="M81.3587 92C78.3905 92.0505 75.5539 93.7372 73.4549 96.6997C71.3559 99.6623 70.1608 103.666 70.125 107.855C70.1608 112.044 71.3559 116.048 73.4549 119.01C75.5539 121.973 78.3905 123.66 81.3587 123.71C84.3269 123.66 87.1635 121.973 89.2625 119.01C91.3616 116.048 92.5566 112.044 92.5924 107.855C92.5566 103.666 91.3616 99.6623 89.2625 96.6997C87.1635 93.7372 84.3269 92.0505 81.3587 92ZM87.778 108.988H82.1611V116.915H80.5563V108.988H74.9394V106.723H80.5563V98.795H82.1611V106.723H87.778V108.988Z" fill="#E7E9EF"/>
<rect x="117.164" y="104" width="603.027" height="8" rx="4" fill="#E7E9EF"/>
</svg>
