<svg width="51" height="49" viewBox="0 0 51 49" fill="none" xmlns="http://www.w3.org/2000/svg">
<path d="M50.3691 19.6457H48.3346V19.5472H25.6021V29.0473H39.8768C37.7943 34.5776 32.1983 38.5475 25.6021 38.5475C17.2327 38.5475 10.4471 32.1669 10.4471 24.2972C10.4471 16.4276 17.2327 10.047 25.6021 10.047C29.4653 10.047 32.98 11.4174 35.6561 13.6559L42.8005 6.9381C38.2893 2.98485 32.2551 0.546875 25.6021 0.546875C11.6532 0.546875 0.34375 11.1811 0.34375 24.2972C0.34375 37.4134 11.6532 48.0476 25.6021 48.0476C39.551 48.0476 50.8604 37.4134 50.8604 24.2972C50.8604 22.7048 50.6861 21.1503 50.3691 19.6457Z" fill="#FFC107"/>
<path d="M3.3125 13.6437L11.7311 19.5472C14.009 14.1546 19.5258 10.3472 25.9816 10.3472C29.9007 10.3472 33.4662 11.7608 36.181 14.07L43.4287 7.14001C38.8523 3.06187 32.7308 0.546875 25.9816 0.546875C16.1396 0.546875 7.60444 5.85985 3.3125 13.6437Z" fill="#FF3D00"/>
<path d="M25.3479 48.055C31.7414 48.055 37.5506 45.6993 41.9429 41.8685L34.2821 35.6272C31.7136 37.5079 28.5749 38.5251 25.3479 38.5227C18.9099 38.5227 13.4435 34.5703 11.3841 29.0547L3.3125 35.0422C7.40895 42.7598 15.7281 48.055 25.3479 48.055Z" fill="#4CAF50"/>
<path d="M50.3686 19.6348H48.334V19.5391H25.6016V28.7655H39.8763C38.8801 31.3217 37.0857 33.5553 34.7148 35.1905L34.7186 35.1882L42.536 41.2292C41.9828 41.6882 50.8599 35.6853 50.8599 24.1523C50.8599 22.6057 50.6856 21.096 50.3686 19.6348Z" fill="#1976D2"/>
</svg>
