<svg width="82" height="29" viewBox="0 0 82 29" fill="none" xmlns="http://www.w3.org/2000/svg">
<path d="M79.1306 17.5755L81.3997 19.2005C80.6633 20.3658 78.9017 22.3649 75.8563 22.3649C72.0743 22.3649 69.2578 19.2219 69.2578 15.2236C69.2578 10.9687 72.1042 8.0822 75.5378 8.0822C78.9913 8.0822 80.6832 11.0328 81.2305 12.6257L81.5291 13.4382L72.6317 17.3938C73.3084 18.8263 74.3634 19.5533 75.8563 19.5533C77.3491 19.5533 78.3842 18.7622 79.1306 17.5755ZM72.154 14.999L78.0955 12.3478C77.7671 11.4604 76.7918 10.8297 75.6273 10.8297C74.1444 10.8297 72.0843 12.2409 72.154 14.999Z" fill="#FF302F"/>
<path d="M64.9688 0.801826H67.835V21.7127H64.9688V0.801826Z" fill="#20B15A"/>
<path d="M60.4508 8.6381H63.2176V21.3386C63.2176 26.6091 60.3214 28.7793 56.8978 28.7793C53.6732 28.7793 51.7325 26.4487 51.006 24.5565L53.5439 23.4233C54.0017 24.5886 55.1064 25.9676 56.8978 25.9676C59.0973 25.9676 60.4508 24.503 60.4508 21.7662V20.7399H60.3513C59.6944 21.5952 58.4404 22.3649 56.8481 22.3649C53.5239 22.3649 50.4785 19.2539 50.4785 15.2449C50.4785 11.2145 53.5239 8.0715 56.8481 8.0715C58.4305 8.0715 59.6944 8.83053 60.3513 9.66441H60.4508V8.6381ZM60.6499 15.2449C60.6499 12.7219 59.0873 10.8831 57.0969 10.8831C55.0865 10.8831 53.3946 12.7219 53.3946 15.2449C53.3946 17.7358 55.0865 19.5426 57.0969 19.5426C59.0873 19.5533 60.6499 17.7358 60.6499 15.2449Z" fill="#3686F7"/>
<path d="M34.7437 15.1915C34.7437 19.3074 31.7579 22.3328 28.0955 22.3328C24.433 22.3328 21.4473 19.2967 21.4473 15.1915C21.4473 11.0542 24.433 8.03945 28.0955 8.03945C31.7579 8.03945 34.7437 11.0542 34.7437 15.1915ZM31.8376 15.1915C31.8376 12.6257 30.1059 10.8618 28.0955 10.8618C26.0851 10.8618 24.3534 12.6257 24.3534 15.1915C24.3534 17.7359 26.0851 19.5212 28.0955 19.5212C30.1059 19.5212 31.8376 17.7359 31.8376 15.1915Z" fill="#FF302F"/>
<path d="M49.2652 15.2236C49.2652 19.3395 46.2794 22.3649 42.6169 22.3649C38.9545 22.3649 35.9688 19.3395 35.9688 15.2236C35.9688 11.0863 38.9545 8.0822 42.6169 8.0822C46.2794 8.0822 49.2652 11.0756 49.2652 15.2236ZM46.3491 15.2236C46.3491 12.6578 44.6174 10.8938 42.607 10.8938C40.5966 10.8938 38.8649 12.6578 38.8649 15.2236C38.8649 17.7679 40.5966 19.5533 42.607 19.5533C44.6273 19.5533 46.3491 17.7572 46.3491 15.2236Z" fill="#FFBA40"/>
<path d="M10.5197 19.2325C6.34963 19.2325 3.08524 15.619 3.08524 11.1397C3.08524 6.66027 6.34963 3.04683 10.5197 3.04683C12.7689 3.04683 14.4111 3.9983 15.6253 5.21704L17.6257 3.06822C15.9338 1.32564 13.6746 0 10.5197 0C4.80701 0 0 5.00322 0 11.1397C0 17.2761 4.80701 22.2793 10.5197 22.2793C13.6049 22.2793 15.9338 21.1889 17.7551 19.1576C19.6261 17.1478 20.2034 14.3255 20.2034 12.0377C20.2034 11.3214 20.1237 10.5837 20.0342 10.0385H10.5197V13.0105H17.2973C17.0982 14.8707 16.5508 16.1429 15.7447 17.0088C14.7694 18.0672 13.2267 19.2325 10.5197 19.2325Z" fill="#3686F7"/>
</svg>
