<svg width="20" height="24" viewBox="0 0 20 24" fill="none" xmlns="http://www.w3.org/2000/svg">
<path d="M16.7996 24C18.5669 24 19.9996 22.4649 19.9996 20.5714C19.9996 18.6778 18.5669 17.1428 16.7996 17.1428C15.0323 17.1428 13.5996 18.6778 13.5996 20.5714C13.5996 22.4649 15.0323 24 16.7996 24Z" fill="#57575A"/>
<path d="M4 9.42847H5.6V11.1428H4V9.42847ZM4 13.7142H5.6V15.4285H4V13.7142ZM4 17.9999H5.6V19.7142H4V17.9999ZM7.2 9.42847H13.6V11.1428H7.2V9.42847ZM7.2 13.7142H13.6V15.4285H7.2V13.7142ZM7.2 17.9999H10.4V19.7142H7.2V17.9999Z" fill="#57575A"/>
<path d="M1.6 22.2857V4.28571H4V6.85714H13.6V4.28571H16V13.7143H17.6V4.28571C17.6 3.83106 17.4314 3.39502 17.1314 3.07353C16.8313 2.75204 16.4243 2.57143 16 2.57143H13.6V1.71429C13.6 1.25963 13.4314 0.823593 13.1314 0.502103C12.8313 0.180612 12.4243 0 12 0H5.6C5.17565 0 4.76869 0.180612 4.46863 0.502103C4.16857 0.823593 4 1.25963 4 1.71429V2.57143H1.6C1.17565 2.57143 0.768687 2.75204 0.468629 3.07353C0.168571 3.39502 0 3.83106 0 4.28571V22.2857C0 22.7404 0.168571 23.1764 0.468629 23.4979C0.768687 23.8194 1.17565 24 1.6 24H10.4V22.2857H1.6ZM5.6 1.71429H12V5.14286H5.6V1.71429Z" fill="#57575A"/>
</svg>
