<svg width="30" height="42" viewBox="0 0 30 42" fill="none" xmlns="http://www.w3.org/2000/svg">
<path d="M15 12.25C15.6904 12.25 16.25 11.4665 16.25 10.5C16.25 9.5335 15.6904 8.75 15 8.75C14.3096 8.75 13.75 9.5335 13.75 10.5C13.75 11.4665 14.3096 12.25 15 12.25Z" fill="white"/>
<path d="M7.5 29.75H22.5V33.25H7.5V29.75ZM12.5 20.7025L15.99 25.592L20.905 18.7058L22.5 21V14H17.5L19.1375 16.2312L15.9888 20.6395L12.5 15.75L7.5 22.75L9.2675 25.2245L12.5 20.7025Z" fill="white"/>
<path d="M23.75 5.24986H19.6275C19.5048 4.99111 19.3712 4.74276 19.2275 4.50611L19.215 4.48511C18.2966 2.98755 17.0045 2.03736 15.6025 1.82861C15.2044 1.72249 14.7956 1.72249 14.3975 1.82861C12.9955 2.03736 11.7034 2.98755 10.785 4.48511L10.7725 4.50611C10.6288 4.74219 10.4953 4.98996 10.3725 5.24811V5.24986H6.25C5.25574 5.25125 4.30249 5.80482 3.59945 6.78908C2.8964 7.77335 2.50099 9.1079 2.5 10.4999V34.9999C2.50099 36.3918 2.8964 37.7264 3.59945 38.7106C4.30249 39.6949 5.25574 40.2485 6.25 40.2499H23.75C24.7443 40.2485 25.6975 39.6949 26.4006 38.7106C27.1036 37.7264 27.499 36.3918 27.5 34.9999V10.4999C27.499 9.1079 27.1036 7.77335 26.4006 6.78908C25.6975 5.80482 24.7443 5.25125 23.75 5.24986ZM25 34.9999C25 35.464 24.8683 35.9091 24.6339 36.2373C24.3995 36.5655 24.0815 36.7499 23.75 36.7499H6.25C5.91858 36.7494 5.60083 36.5649 5.36648 36.2368C5.13213 35.9087 5.00033 35.4638 5 34.9999V10.4999C5.00033 10.0359 5.13213 9.59102 5.36648 9.26293C5.60083 8.93485 5.91858 8.75032 6.25 8.74986H11.9375C12.0809 7.76086 12.4642 6.87169 13.0223 6.23303C13.5805 5.59436 14.2792 5.24547 15 5.24547C15.7208 5.24547 16.4195 5.59436 16.9777 6.23303C17.5358 6.87169 17.9191 7.76086 18.0625 8.74986H23.75C24.0814 8.75032 24.3992 8.93485 24.6335 9.26293C24.8679 9.59102 24.9997 10.0359 25 10.4999V34.9999Z" fill="white"/>
</svg>
