<svg width="341" height="77" viewBox="0 0 341 77" fill="none" xmlns="http://www.w3.org/2000/svg">
<path d="M31.8711 59.2236V76.5353L63.4337 58.9994V41.6898L31.8711 59.2236Z" fill="#2EA5FF"/>
<path d="M45.9999 25.789L61.5734 17.133L31.8711 0.627808V17.9391L45.9999 25.789Z" fill="#0064AF"/>
<path d="M19.6016 30.9578V48.2747L31.8678 55.0883V37.7792L19.6016 30.9578Z" fill="#ABDBFF"/>
<path d="M63.4337 20.2358L31.8711 37.7791V55.0882L63.4337 37.5522V20.2358Z" fill="#2EA5FF"/>
<path d="M2.17969 17.1229L17.6598 25.8294L31.868 17.9391V0.627808L2.17969 17.1229Z" fill="#2EA5FF"/>
<path d="M15.8795 50.3434V28.8811L0.300781 20.228V58.9988L31.8686 76.5347V59.223L15.8795 50.3434Z" fill="#ABDBFF"/>
<path d="M93.3908 54.3003C92.2184 54.3003 91.2188 54.1575 90.3921 53.872C89.5654 53.6014 88.889 53.3308 88.3629 53.0603C87.8368 52.7747 87.4309 52.6319 87.1454 52.6319C86.8447 52.6319 86.5667 52.7221 86.3111 52.9024C86.0706 53.0828 85.8226 53.2933 85.5671 53.5338C85.3266 53.7592 85.0786 53.9546 84.823 54.12C84.5825 54.3003 84.3195 54.3905 84.0339 54.3905C83.7032 54.3905 83.4176 54.2853 83.1771 54.0749C82.9517 53.8795 82.8013 53.5488 82.7262 53.0828L81.2832 45.0336C81.2231 44.7029 81.2606 44.4249 81.3959 44.1994C81.5462 43.9589 81.7943 43.7785 82.14 43.6583C82.5007 43.523 82.8164 43.5305 83.0869 43.6808C83.3725 43.8161 83.613 44.0791 83.8084 44.4699C84.8155 46.409 85.8076 47.9196 86.7846 49.0018C87.7767 50.0691 88.7687 50.8206 89.7608 51.2565C90.7528 51.6924 91.7524 51.9104 92.7595 51.9104C94.1875 51.9104 95.3148 51.5571 96.1415 50.8507C96.9833 50.1292 97.4041 49.1296 97.4041 47.852C97.4041 47.0102 97.2087 46.2587 96.8179 45.5973C96.4421 44.9359 95.7131 44.3046 94.6309 43.7034C93.5486 43.0871 91.9704 42.4558 89.8961 41.8094C87.5512 41.0729 85.6723 40.2161 84.2594 39.2391C82.8615 38.2621 81.8469 37.1047 81.2156 35.7669C80.5842 34.4291 80.2686 32.8659 80.2686 31.0772C80.2686 29.1983 80.727 27.5448 81.6439 26.1169C82.5608 24.6739 83.8535 23.5465 85.522 22.7349C87.1904 21.9232 89.137 21.5173 91.3616 21.5173C92.6393 21.5173 93.7065 21.6451 94.5632 21.9006C95.42 22.1411 96.1265 22.3891 96.6826 22.6447C97.2538 22.9002 97.7348 23.028 98.1256 23.028C98.4563 23.028 98.7645 22.9002 99.0501 22.6447C99.3356 22.3741 99.6288 22.1035 99.9294 21.833C100.245 21.5474 100.613 21.4046 101.034 21.4046C101.38 21.4046 101.665 21.5173 101.891 21.7428C102.131 21.9683 102.342 22.3816 102.522 22.9829L104.664 30.8742C104.769 31.2951 104.754 31.6634 104.619 31.979C104.484 32.2797 104.236 32.4901 103.875 32.6103C103.514 32.7306 103.191 32.7231 102.906 32.5878C102.635 32.4375 102.41 32.182 102.229 31.8212C101.162 29.792 100.072 28.2062 98.9599 27.0638C97.8476 25.9064 96.7277 25.0872 95.6004 24.6062C94.4881 24.1252 93.3758 23.8847 92.2635 23.8847C90.8956 23.8847 89.8134 24.2906 89.0167 25.1023C88.2201 25.8989 87.8218 26.9436 87.8218 28.2363C87.8218 29.0479 88.0021 29.7995 88.3629 30.4909C88.7387 31.1673 89.4451 31.8362 90.4823 32.4976C91.5345 33.1439 93.0676 33.8279 95.0818 34.5494C97.4417 35.3761 99.3206 36.2779 100.719 37.255C102.116 38.232 103.124 39.3443 103.74 40.5919C104.356 41.8245 104.657 43.2524 104.642 44.8758C104.642 46.6194 104.191 48.2052 103.289 49.6332C102.402 51.0461 101.117 52.1809 99.4333 53.0377C97.7649 53.8795 95.7507 54.3003 93.3908 54.3003ZM137.678 33.8279C137.678 35.812 137.167 37.5331 136.145 38.9911C135.138 40.4341 133.695 41.5539 131.816 42.3505C129.952 43.1322 127.75 43.523 125.21 43.523C123.466 43.523 121.918 43.3351 120.565 42.9593C119.227 42.5835 118.032 42.0574 116.98 41.381L117.273 39.3518C117.844 39.7577 118.416 40.0959 118.987 40.3664C119.573 40.622 120.182 40.8099 120.813 40.9301C121.444 41.0504 122.106 41.1105 122.797 41.1105C124.015 41.1105 125.112 40.8324 126.089 40.2762C127.081 39.7051 127.87 38.8633 128.456 37.751C129.043 36.6387 129.336 35.2633 129.336 33.6249C129.336 31.716 128.997 30.0701 128.321 28.6872C127.645 27.3043 126.713 26.2446 125.525 25.5081C124.353 24.7716 123 24.4033 121.467 24.4033H120.249V49.8135C120.249 50.1442 120.332 50.4223 120.497 50.6478C120.678 50.8582 120.963 51.001 121.354 51.0762L123.023 51.3693C123.383 51.4444 123.639 51.5797 123.789 51.7751C123.954 51.9555 124.037 52.2185 124.037 52.5642C124.037 52.8949 123.924 53.158 123.699 53.3534C123.489 53.5488 123.143 53.6465 122.662 53.6465H109.878C109.397 53.6465 109.044 53.5488 108.818 53.3534C108.593 53.158 108.48 52.8949 108.48 52.5642C108.48 51.978 108.788 51.5797 109.404 51.3693L110.577 51.0762C110.937 50.9559 111.208 50.7981 111.388 50.6027C111.569 50.4073 111.659 50.1517 111.659 49.8361V25.9139C111.659 25.5983 111.569 25.3428 111.388 25.1474C111.223 24.9369 110.953 24.7716 110.577 24.6513L109.382 24.3582C108.781 24.1478 108.48 23.7495 108.48 23.1632C108.48 22.8175 108.593 22.5545 108.818 22.3741C109.044 22.1787 109.397 22.081 109.878 22.081H121.67C125.037 22.081 127.915 22.5845 130.305 23.5916C132.695 24.5987 134.521 25.9891 135.784 27.7628C137.047 29.5214 137.678 31.5431 137.678 33.8279ZM170.81 46.0708C170.81 48.3254 169.841 50.1517 167.902 51.5496C165.978 52.9475 163.054 53.6465 159.131 53.6465H142.289C141.808 53.6465 141.455 53.5488 141.229 53.3534C141.004 53.158 140.891 52.8949 140.891 52.5642C140.891 51.978 141.199 51.5797 141.815 51.3693L142.965 51.0762C143.341 50.9559 143.619 50.7981 143.799 50.6027C143.98 50.3922 144.07 50.1066 144.07 49.7459V25.8914C144.07 25.5757 143.98 25.3202 143.799 25.1248C143.634 24.9144 143.356 24.7565 142.965 24.6513L141.815 24.3582C141.199 24.1478 140.891 23.7495 140.891 23.1632C140.891 22.8175 141.004 22.5545 141.229 22.3741C141.455 22.1787 141.808 22.081 142.289 22.081H155.231C158.132 22.081 160.612 22.4718 162.671 23.2534C164.73 24.02 166.301 25.0947 167.383 26.4776C168.466 27.8455 169.007 29.4463 169.007 31.2801C169.007 32.7982 168.571 34.1435 167.699 35.316C166.827 36.4884 165.55 37.4128 163.866 38.0892C162.198 38.7506 160.153 39.0813 157.733 39.0813L158.906 38.3598C161.281 38.3598 163.363 38.6905 165.151 39.3518C166.94 39.9982 168.33 40.9076 169.322 42.08C170.314 43.2374 170.81 44.5676 170.81 46.0708ZM156.087 39.9831H150.541V38.1343H155.434C156.651 38.1343 157.673 37.9013 158.5 37.4354C159.327 36.9544 159.95 36.2404 160.371 35.2934C160.792 34.3464 161.003 33.174 161.003 31.7761C161.003 30.2279 160.717 28.8901 160.146 27.7628C159.575 26.6354 158.763 25.7636 157.711 25.1474C156.674 24.5311 155.426 24.2229 153.968 24.2229H152.638V49.34C152.638 50.0766 152.856 50.6252 153.292 50.986C153.728 51.3317 154.359 51.5045 155.186 51.5045H157.147C158.244 51.5045 159.176 51.2791 159.943 50.8281C160.725 50.3622 161.318 49.7083 161.724 48.8666C162.13 48.0098 162.333 46.9952 162.333 45.8228C162.333 44.019 161.792 42.5986 160.71 41.5614C159.642 40.5092 158.102 39.9831 156.087 39.9831ZM182.691 36.4433H188.937C189.944 36.4433 190.665 36.2404 191.101 35.8345C191.537 35.4287 191.883 34.6471 192.138 33.4897C192.244 33.1139 192.394 32.8433 192.589 32.678C192.8 32.4976 193.04 32.3999 193.311 32.3849C193.897 32.3698 194.273 32.7005 194.438 33.3769L196.309 40.5468C196.415 40.9526 196.415 41.2758 196.309 41.5163C196.204 41.7568 195.994 41.9297 195.678 42.0349C195.378 42.1401 195.092 42.1551 194.821 42.08C194.566 41.9898 194.34 41.8019 194.145 41.5163C193.634 40.7648 193.168 40.1936 192.747 39.8028C192.326 39.3969 191.868 39.1188 191.372 38.9685C190.876 38.8182 190.252 38.7431 189.5 38.7431H182.691V36.4433ZM173.83 23.1632C173.83 22.8175 173.943 22.5545 174.169 22.3741C174.394 22.1787 174.747 22.081 175.228 22.081H192.86C193.431 22.081 193.904 22.0134 194.28 21.8781C194.671 21.7428 195.024 21.6075 195.34 21.4722C195.671 21.3369 196.031 21.2693 196.422 21.2693C196.903 21.2693 197.264 21.4121 197.504 21.6977C197.745 21.9683 197.955 22.4117 198.136 23.028L200.052 29.8145C200.172 30.2204 200.172 30.5511 200.052 30.8066C199.932 31.0621 199.699 31.25 199.353 31.3703C198.977 31.5055 198.632 31.5055 198.316 31.3703C198.015 31.22 197.767 30.9569 197.572 30.5811C196.851 29.2884 196.182 28.2438 195.565 27.4471C194.964 26.6354 194.37 26.0116 193.784 25.5757C193.213 25.1398 192.612 24.8392 191.98 24.6739C191.349 24.5085 190.65 24.4259 189.884 24.4259H185.6V49.092C185.6 49.8286 185.795 50.3847 186.186 50.7605C186.592 51.1212 187.178 51.3016 187.945 51.3016H190.47C191.522 51.3016 192.461 51.1137 193.288 50.7379C194.13 50.3622 194.964 49.6407 195.791 48.5735C196.618 47.5062 197.527 45.958 198.519 43.9288C198.684 43.5681 198.902 43.3276 199.173 43.2073C199.443 43.072 199.744 43.0345 200.075 43.0946C200.451 43.1697 200.721 43.3501 200.886 43.6357C201.067 43.9063 201.097 44.252 200.977 44.6729L198.88 52.6544C198.699 53.2557 198.481 53.6991 198.226 53.9847C197.985 54.2703 197.61 54.4131 197.099 54.4131C196.738 54.4131 196.4 54.3454 196.084 54.2102C195.768 54.0899 195.415 53.9621 195.024 53.8269C194.633 53.7066 194.152 53.6465 193.581 53.6465H175.228C174.747 53.6465 174.394 53.5488 174.169 53.3534C173.943 53.158 173.83 52.8949 173.83 52.5642C173.83 51.978 174.138 51.5797 174.755 51.3693L175.905 51.0762C176.28 50.9709 176.558 50.8206 176.739 50.6252C176.919 50.4148 177.009 50.1517 177.009 49.8361V25.8914C177.009 25.5757 176.919 25.3202 176.739 25.1248C176.558 24.9144 176.28 24.7565 175.905 24.6513L174.755 24.3582C174.138 24.1478 173.83 23.7495 173.83 23.1632ZM241.165 44.7405C241.134 45.928 240.811 47.1004 240.195 48.2578C239.594 49.4152 238.729 50.4674 237.602 51.4144C236.475 52.3463 235.114 53.0903 233.521 53.6465C231.943 54.2026 230.169 54.4807 228.2 54.4807C224.938 54.4807 222.12 53.7893 219.745 52.4064C217.37 51.0085 215.536 49.077 214.244 46.6119C212.951 44.1468 212.305 41.3059 212.305 38.0892C212.305 35.6542 212.688 33.422 213.455 31.3928C214.236 29.3486 215.326 27.5749 216.724 26.0718C218.122 24.5536 219.76 23.3812 221.639 22.5545C223.533 21.7127 225.585 21.2919 227.794 21.2919C229.237 21.2919 230.417 21.4271 231.334 21.6977C232.251 21.9683 232.973 22.2463 233.499 22.5319C234.04 22.8025 234.461 22.9378 234.761 22.9378C235.137 22.9378 235.46 22.81 235.731 22.5545C236.001 22.2989 236.272 22.0509 236.542 21.8104C236.813 21.5549 237.129 21.4271 237.489 21.4271C237.775 21.4271 238.008 21.5173 238.188 21.6977C238.369 21.863 238.519 22.1637 238.639 22.5996L240.939 30.739C241.044 31.0997 241.007 31.4229 240.826 31.7085C240.661 31.979 240.398 32.1594 240.037 32.2496C239.676 32.3247 239.338 32.2947 239.023 32.1594C238.722 32.0091 238.489 31.7385 238.324 31.3477C237.527 29.4538 236.64 27.9657 235.663 26.8835C234.701 25.8012 233.679 25.0346 232.597 24.5837C231.514 24.1177 230.38 23.8847 229.192 23.8847C227.975 23.8847 226.87 24.1703 225.878 24.7415C224.886 25.3127 224.029 26.1394 223.307 27.2217C222.586 28.2889 222.03 29.5816 221.639 31.0997C221.248 32.6179 221.053 34.3389 221.053 36.2629C221.053 39.3142 221.474 41.8696 222.315 43.9288C223.172 45.9731 224.352 47.5138 225.855 48.5509C227.358 49.5881 229.079 50.1066 231.018 50.1066C232.852 50.1066 234.476 49.6332 235.889 48.6862C237.301 47.7392 238.391 46.3639 239.158 44.5601C239.338 44.2144 239.534 43.9814 239.744 43.8612C239.97 43.7409 240.21 43.7034 240.466 43.7484C240.706 43.7935 240.879 43.9063 240.984 44.0867C241.104 44.252 241.165 44.4699 241.165 44.7405ZM257.18 50.8281V50.3772H256.662V36.1051C256.662 35.2934 256.451 34.6621 256.031 34.2112C255.625 33.7452 255.061 33.5122 254.34 33.5122C253.678 33.5122 253.152 33.6625 252.761 33.9631C252.386 34.2638 252.198 34.6395 252.198 35.0905V37.3001C252.198 38.3523 251.837 39.179 251.115 39.7802C250.394 40.3815 249.387 40.6821 248.094 40.6821C247.027 40.6821 246.215 40.4341 245.659 39.938C245.103 39.442 244.825 38.7506 244.825 37.8637C244.825 36.9168 245.231 35.9848 246.042 35.0679C246.854 34.136 248.064 33.3694 249.672 32.7682C251.281 32.1519 253.28 31.8437 255.67 31.8437C258.586 31.8437 260.758 32.4074 262.186 33.5348C263.614 34.6621 264.328 36.2103 264.328 38.1794V49.4528C264.328 49.8286 264.41 50.1217 264.576 50.3321C264.741 50.5275 264.967 50.6252 265.252 50.6252C265.538 50.6252 265.763 50.5501 265.929 50.3997C266.109 50.2344 266.259 50.054 266.38 49.8586C266.455 49.7684 266.537 49.6933 266.628 49.6332C266.718 49.558 266.815 49.5204 266.921 49.5204C267.116 49.5204 267.251 49.5956 267.327 49.7459C267.417 49.8812 267.462 50.054 267.462 50.2645C267.462 50.8056 267.259 51.3843 266.853 52.0006C266.462 52.6018 265.861 53.1204 265.049 53.5563C264.253 53.9922 263.246 54.2102 262.028 54.2102C260.54 54.2102 259.36 53.902 258.488 53.2857C257.616 52.6544 257.18 51.8352 257.18 50.8281ZM243.9 48.9342C243.9 47.0102 244.75 45.477 246.448 44.3347C248.162 43.1923 250.619 42.6211 253.821 42.6211C254.723 42.6211 255.512 42.6963 256.188 42.8466C256.88 42.9819 257.466 43.1773 257.947 43.4328L257.406 44.8758C256.985 44.6503 256.572 44.485 256.166 44.3798C255.76 44.2745 255.309 44.2219 254.813 44.2219C253.836 44.2219 253.069 44.5226 252.513 45.1238C251.972 45.71 251.702 46.5518 251.702 47.649C251.702 48.7463 251.95 49.5805 252.446 50.1517C252.957 50.7229 253.618 51.0085 254.43 51.0085C255.031 51.0085 255.602 50.8657 256.143 50.5801C256.699 50.2945 257.15 49.9188 257.496 49.4528L257.97 50.7379C257.218 51.8503 256.173 52.707 254.836 53.3083C253.498 53.9095 252.062 54.2102 250.529 54.2102C248.56 54.2102 246.959 53.7216 245.727 52.7446C244.509 51.7526 243.9 50.4824 243.9 48.9342ZM279.164 33.3318V49.9939C279.164 50.4599 279.216 50.8056 279.321 51.0311C279.442 51.2415 279.615 51.3918 279.84 51.482L280.561 51.7075C280.982 51.9179 281.193 52.226 281.193 52.6319C281.193 53.3083 280.772 53.6465 279.93 53.6465H270.461C270.025 53.6465 269.709 53.5638 269.514 53.3985C269.318 53.2181 269.22 52.9776 269.22 52.677C269.22 52.4515 269.281 52.2636 269.401 52.1133C269.521 51.948 269.716 51.8127 269.987 51.7075L270.754 51.482C270.994 51.3918 271.167 51.2415 271.272 51.0311C271.377 50.8206 271.43 50.4824 271.43 50.0165V37.4128C271.43 37.037 271.37 36.774 271.25 36.6237C271.144 36.4583 270.979 36.3456 270.754 36.2855L269.829 36.1953C269.574 36.1201 269.386 36.0149 269.266 35.8796C269.16 35.7293 269.108 35.5489 269.108 35.3385C269.108 35.083 269.183 34.88 269.333 34.7297C269.483 34.5644 269.754 34.4066 270.145 34.2563L275.286 32.4525C275.857 32.2421 276.315 32.0918 276.661 32.0016C277.007 31.8964 277.345 31.8437 277.675 31.8437C278.172 31.8437 278.54 31.9865 278.78 32.2721C279.036 32.5427 279.164 32.8959 279.164 33.3318ZM278.442 38.495L277.427 37.4354L278.217 36.7139C280.141 34.8951 281.824 33.6249 283.267 32.9034C284.71 32.1669 286.055 31.7987 287.303 31.7987C289.167 31.7987 290.662 32.4074 291.79 33.6249C292.917 34.8274 293.481 36.4658 293.481 38.5401V49.9939C293.481 50.4749 293.533 50.8206 293.639 51.0311C293.759 51.2415 293.939 51.3918 294.18 51.482L294.811 51.7075C295.232 51.9179 295.442 52.226 295.442 52.6319C295.442 53.3083 295.014 53.6465 294.157 53.6465H285.003C284.161 53.6465 283.741 53.3083 283.741 52.6319C283.741 52.226 283.951 51.9179 284.372 51.7075L285.048 51.482C285.319 51.3768 285.507 51.2114 285.612 50.986C285.717 50.7605 285.77 50.4073 285.77 49.9263V39.6224C285.77 38.495 285.514 37.6458 285.003 37.0746C284.492 36.5034 283.778 36.2178 282.861 36.2178C282.275 36.2178 281.681 36.3456 281.08 36.6011C280.479 36.8566 279.878 37.2399 279.276 37.751L278.442 38.495ZM292.759 38.495L291.745 37.4354L292.511 36.6913C294.33 34.9627 295.908 33.7151 297.246 32.9485C298.599 32.182 299.884 31.7987 301.102 31.7987C302.905 31.7987 304.326 32.4074 305.363 33.6249C306.415 34.8425 307.046 36.4884 307.257 38.5627L308.474 49.9939C308.519 50.4749 308.587 50.8281 308.677 51.0536C308.767 51.264 308.933 51.4144 309.173 51.5045L309.827 51.7075C310.098 51.8127 310.293 51.948 310.413 52.1133C310.534 52.2636 310.594 52.4515 310.594 52.677C310.594 52.9776 310.496 53.2181 310.301 53.3985C310.105 53.5638 309.79 53.6465 309.354 53.6465H299.839C298.997 53.6465 298.576 53.3083 298.576 52.6319C298.576 52.226 298.794 51.9179 299.23 51.7075L299.907 51.482C300.177 51.3918 300.373 51.234 300.493 51.0085C300.628 50.768 300.673 50.3997 300.628 49.9037L299.546 39.6224C299.441 38.495 299.163 37.6458 298.712 37.0746C298.261 36.5034 297.599 36.2178 296.728 36.2178C296.231 36.2178 295.713 36.3531 295.172 36.6237C294.646 36.8792 294.12 37.2475 293.594 37.7285L292.759 38.495ZM321.736 33.3093V35.6542L322.03 36.2629V60.5007C322.03 60.9667 322.082 61.3049 322.187 61.5153C322.293 61.7408 322.465 61.8986 322.706 61.9888L323.608 62.2143C323.893 62.3044 324.096 62.4322 324.217 62.5976C324.337 62.7629 324.397 62.9583 324.397 63.1838C324.397 63.4844 324.299 63.7174 324.104 63.8827C323.908 64.0631 323.593 64.1533 323.157 64.1533H313.327C312.906 64.1533 312.598 64.0631 312.402 63.8827C312.207 63.7174 312.109 63.4844 312.109 63.1838C312.109 62.9733 312.169 62.7854 312.289 62.6201C312.41 62.4548 312.605 62.3195 312.876 62.2143L313.62 61.9888C313.86 61.8986 314.033 61.7483 314.138 61.5379C314.243 61.3274 314.296 60.9817 314.296 60.5007V37.3903C314.296 37.0145 314.236 36.7514 314.116 36.6011C314.01 36.4358 313.845 36.3306 313.62 36.2855L312.718 36.1727C312.462 36.1126 312.274 36.0149 312.154 35.8796C312.049 35.7293 311.996 35.5414 311.996 35.316C311.996 35.0604 312.064 34.865 312.199 34.7297C312.349 34.5794 312.628 34.4216 313.033 34.2563L317.858 32.4525C318.415 32.227 318.866 32.0692 319.211 31.979C319.572 31.8888 319.895 31.8437 320.181 31.8437C320.707 31.8437 321.098 31.979 321.353 32.2496C321.609 32.5202 321.736 32.8734 321.736 33.3093ZM320.744 38.8558L319.617 37.6383C320.805 35.8045 322.135 34.3765 323.608 33.3544C325.096 32.3172 326.772 31.7987 328.636 31.7987C330.394 31.7987 331.965 32.2496 333.348 33.1515C334.731 34.0383 335.813 35.2709 336.595 36.8491C337.391 38.4274 337.79 40.2612 337.79 42.3505C337.79 44.7405 337.309 46.8298 336.347 48.6186C335.4 50.3922 334.1 51.7676 332.446 52.7446C330.808 53.7216 328.959 54.2102 326.9 54.2102C325.171 54.2102 323.668 53.8419 322.39 53.1054C321.113 52.3538 320.038 51.234 319.166 49.7459L320.88 48.4833C321.526 49.5355 322.21 50.3096 322.931 50.8056C323.668 51.2866 324.472 51.5271 325.344 51.5271C326.216 51.5271 326.982 51.249 327.644 50.6929C328.32 50.1217 328.846 49.2198 329.222 47.9872C329.598 46.7547 329.786 45.1463 329.786 43.1622C329.786 41.2984 329.598 39.7952 329.222 38.6529C328.861 37.4955 328.358 36.6462 327.711 36.1051C327.08 35.564 326.344 35.2934 325.502 35.2934C324.6 35.2934 323.751 35.579 322.954 36.1502C322.157 36.7214 321.421 37.6232 320.744 38.8558Z" fill="#0064AF"/>
</svg>
