<svg width="22" height="28" viewBox="0 0 22 28" fill="none" xmlns="http://www.w3.org/2000/svg">
<path d="M8.25 12.9453C8.1125 12.9453 8 13.0508 8 13.1797V21.2656C8 21.3945 8.1125 21.5 8.25 21.5H9.26562C9.40312 21.5 9.51562 21.3945 9.51562 21.2656V18.4678H11.4937C13.35 18.4678 14.5 17.3281 14.5 15.7109C14.5 14.1143 13.3656 12.9482 11.5 12.9482H8.25V12.9453ZM12.9562 15.708C12.9562 16.9795 12.1281 17.2988 10.7312 17.2988H9.51562V14.123H11.2719C12.3281 14.123 12.9562 14.7002 12.9562 15.708ZM21.7062 7.45508L14.9813 1.15039C14.7938 0.974609 14.5406 0.875 14.275 0.875H1C0.446875 0.875 0 1.29395 0 1.8125V26.1875C0 26.7061 0.446875 27.125 1 27.125H21C21.5531 27.125 22 26.7061 22 26.1875V8.12012C22 7.87109 21.8937 7.63086 21.7062 7.45508ZM19.6938 8.55078H13.8125V3.03711L19.6938 8.55078ZM19.75 25.0156H2.25V2.98438H11.6875V9.3125C11.6875 9.63884 11.8258 9.95182 12.0719 10.1826C12.3181 10.4133 12.6519 10.543 13 10.543H19.75V25.0156Z" fill="#625C5C"/>
</svg>
