<svg width="61" height="72" viewBox="0 0 61 72" fill="none" xmlns="http://www.w3.org/2000/svg">
<path d="M32.1723 41.0143L32.1983 40.9018C32.7008 38.9813 33.3334 36.5866 32.8395 34.417C32.5102 32.7054 31.1499 32.0384 29.9888 31.9902C28.6197 31.9339 27.398 32.6571 27.0947 33.7098C26.5229 35.6384 27.0341 38.2741 27.9699 41.633C26.7915 44.2366 24.9112 48.0214 23.5335 50.2714C20.9688 51.5009 17.5288 53.3973 17.0176 55.792C16.9136 56.2339 17.0349 56.7964 17.3209 57.3027C17.6415 57.8652 18.1527 58.2991 18.7506 58.508C19.0105 58.5964 19.3224 58.6687 19.6864 58.6687C21.2114 58.6687 23.6808 57.5277 26.9734 52.2884C27.476 52.1357 27.9959 51.975 28.4984 51.8143C30.8553 51.075 33.2987 50.3036 35.5082 49.958C37.9517 51.1714 40.7331 51.9509 42.622 51.9509C44.4936 51.9509 45.2301 50.9223 45.5074 50.3036C45.9926 49.2187 45.7587 47.8527 44.9702 47.1214C43.8264 46.0768 41.045 45.8036 36.7126 46.3018C34.5811 45.0964 33.1861 43.4571 32.1723 41.0143ZM22.667 53.2205C21.4626 54.8437 20.5528 55.6554 20.0589 56.0089C20.6395 55.0205 21.7746 53.9759 22.667 53.2205ZM30.2574 34.2964C30.708 35.0116 30.6473 37.1732 30.3007 38.2661C29.8761 36.667 29.8155 34.4009 30.0668 34.1357C30.1361 34.1437 30.1967 34.192 30.2574 34.2964ZM30.1187 43.9795C31.0459 45.4661 32.2156 46.7437 33.5067 47.692C31.6351 48.0857 29.9281 48.7366 28.4031 49.3152C28.0392 49.4518 27.6839 49.5884 27.3374 49.717C28.4898 47.7804 29.4516 45.5866 30.1187 43.9795ZM43.6011 49.2429C43.6098 49.2589 43.6185 49.283 43.5665 49.3152H43.5491L43.5318 49.3393C43.4625 49.3795 42.752 49.7652 39.6933 48.6482C43.2112 48.4955 43.5925 49.2348 43.6011 49.2429ZM60.1855 18.0482L41.5389 0.755357C41.019 0.273214 40.3172 0 39.5807 0H2.77273C1.23906 0 0 1.14911 0 2.57143V69.4286C0 70.8509 1.23906 72 2.77273 72H58.2273C59.7609 72 61 70.8509 61 69.4286V19.8723C61 19.1893 60.7054 18.5304 60.1855 18.0482ZM54.6054 21.0536H38.2983V5.93036L54.6054 21.0536ZM54.7614 66.2143H6.23864V5.78571H32.4062V23.1429C32.4062 24.038 32.7897 24.8964 33.4721 25.5293C34.1546 26.1623 35.0803 26.5179 36.0455 26.5179H54.7614V66.2143Z" fill="#838492"/>
</svg>
