<svg width="61" height="76" viewBox="0 0 61 76" fill="none" xmlns="http://www.w3.org/2000/svg">
<path d="M22.875 34.9464C22.4938 34.9464 22.1818 35.2518 22.1818 35.625V59.0357C22.1818 59.4089 22.4938 59.7143 22.875 59.7143H25.6911C26.0723 59.7143 26.3842 59.4089 26.3842 59.0357V50.9353H31.869C37.0159 50.9353 40.2045 47.6357 40.2045 42.9536C40.2045 38.3308 37.0592 34.9549 31.8864 34.9549H22.875V34.9464ZM35.9241 42.9451C35.9241 46.6263 33.628 47.5509 29.7548 47.5509H26.3842V38.3563H31.2538C34.1825 38.3563 35.9241 40.0272 35.9241 42.9451ZM60.1855 19.0509L41.5389 0.797321C41.019 0.288393 40.3172 0 39.5807 0H2.77273C1.23906 0 0 1.21295 0 2.71429V73.2857C0 74.7871 1.23906 76 2.77273 76H58.2273C59.7609 76 61 74.7871 61 73.2857V20.9763C61 20.2554 60.7054 19.5598 60.1855 19.0509ZM54.6054 22.2232H38.2983V6.25982L54.6054 22.2232ZM54.7614 69.8929H6.23864V6.10714H32.4062V24.4286C32.4062 25.3734 32.7897 26.2795 33.4722 26.9476C34.1546 27.6157 35.0803 27.9911 36.0455 27.9911H54.7614V69.8929Z" fill="#838492"/>
</svg>
