<svg width="16" height="15" viewBox="0 0 16 15" fill="none" xmlns="http://www.w3.org/2000/svg">
<path d="M0 1.88824C0 1.38745 0.207421 0.907166 0.576634 0.553053C0.945846 0.198939 1.4466 0 1.96875 0L13.7812 0C14.3034 0 14.8042 0.198939 15.1734 0.553053C15.5426 0.907166 15.75 1.38745 15.75 1.88824V9.4412C15.75 9.94199 15.5426 10.4223 15.1734 10.7764C14.8042 11.1305 14.3034 11.3294 13.7812 11.3294H11.3203C11.1675 11.3294 11.0168 11.3636 10.8801 11.4291C10.7434 11.4947 10.6245 11.5898 10.5328 11.7071L8.6625 14.0985C8.57081 14.2158 8.45191 14.311 8.31523 14.3765C8.17854 14.4421 8.02782 14.4762 7.875 14.4762C7.72218 14.4762 7.57146 14.4421 7.43477 14.3765C7.29809 14.311 7.17919 14.2158 7.0875 14.0985L5.21719 11.7071C5.1255 11.5898 5.0066 11.4947 4.86991 11.4291C4.73323 11.3636 4.58251 11.3294 4.42969 11.3294H1.96875C1.4466 11.3294 0.945846 11.1305 0.576634 10.7764C0.207421 10.4223 0 9.94199 0 9.4412V1.88824ZM3.44531 2.83236C3.31478 2.83236 3.18959 2.88209 3.09728 2.97062C3.00498 3.05915 2.95312 3.17922 2.95312 3.30442C2.95312 3.42962 3.00498 3.54969 3.09728 3.63822C3.18959 3.72674 3.31478 3.77648 3.44531 3.77648H12.3047C12.4352 3.77648 12.5604 3.72674 12.6527 3.63822C12.745 3.54969 12.7969 3.42962 12.7969 3.30442C12.7969 3.17922 12.745 3.05915 12.6527 2.97062C12.5604 2.88209 12.4352 2.83236 12.3047 2.83236H3.44531ZM3.44531 5.19266C3.31478 5.19266 3.18959 5.24239 3.09728 5.33092C3.00498 5.41945 2.95312 5.53952 2.95312 5.66472C2.95312 5.78992 3.00498 5.90999 3.09728 5.99852C3.18959 6.08704 3.31478 6.13678 3.44531 6.13678H12.3047C12.4352 6.13678 12.5604 6.08704 12.6527 5.99852C12.745 5.90999 12.7969 5.78992 12.7969 5.66472C12.7969 5.53952 12.745 5.41945 12.6527 5.33092C12.5604 5.24239 12.4352 5.19266 12.3047 5.19266H3.44531ZM3.44531 7.55296C3.31478 7.55296 3.18959 7.60269 3.09728 7.69122C3.00498 7.77975 2.95312 7.89982 2.95312 8.02502C2.95312 8.15022 3.00498 8.27029 3.09728 8.35882C3.18959 8.44734 3.31478 8.49708 3.44531 8.49708H8.36719C8.49772 8.49708 8.62291 8.44734 8.71522 8.35882C8.80752 8.27029 8.85938 8.15022 8.85938 8.02502C8.85938 7.89982 8.80752 7.77975 8.71522 7.69122C8.62291 7.60269 8.49772 7.55296 8.36719 7.55296H3.44531Z" fill="#84A4D1"/>
</svg>
