<svg width="18" height="16" viewBox="0 0 18 16" fill="none" xmlns="http://www.w3.org/2000/svg">
<path fill-rule="evenodd" clip-rule="evenodd" d="M14.0981 14.3914C14.7427 14.3914 15.3609 14.1684 15.8167 13.7715C16.2726 13.3746 16.5286 12.8363 16.5286 12.275C16.5286 11.7137 16.2726 11.1753 15.8167 10.7784C15.3609 10.3815 14.7427 10.1586 14.0981 10.1586C13.4535 10.1586 12.8352 10.3815 12.3794 10.7784C11.9236 11.1753 11.6675 11.7137 11.6675 12.275C11.6675 12.8363 11.9236 13.3746 12.3794 13.7715C12.8352 14.1684 13.4535 14.3914 14.0981 14.3914ZM14.0981 15.2379C15.0006 15.2379 15.8661 14.9257 16.5042 14.3701C17.1424 13.8144 17.5009 13.0608 17.5009 12.275C17.5009 11.4891 17.1424 10.7355 16.5042 10.1798C15.8661 9.62418 15.0006 9.31201 14.0981 9.31201C13.1956 9.31201 12.3301 9.62418 11.692 10.1798C11.0538 10.7355 10.6953 11.4891 10.6953 12.275C10.6953 13.0608 11.0538 13.8144 11.692 14.3701C12.3301 14.9257 13.1956 15.2379 14.0981 15.2379Z" fill="#84A4D1"/>
<path fill-rule="evenodd" clip-rule="evenodd" d="M14.0981 10.7938C14.227 10.7938 14.3506 10.8384 14.4418 10.9178C14.533 10.9971 14.5842 11.1048 14.5842 11.2171V12.1L14.9279 12.3993C15.0164 12.4791 15.0654 12.586 15.0643 12.697C15.0632 12.808 15.0121 12.9142 14.922 12.9926C14.8318 13.0711 14.7099 13.1156 14.5824 13.1166C14.455 13.1176 14.3322 13.0749 14.2405 12.9978L13.612 12.4505V11.2171C13.612 11.1048 13.6632 10.9971 13.7543 10.9178C13.8455 10.8384 13.9692 10.7938 14.0981 10.7938ZM3.88976 7.19592H2.91753V8.04248H3.88976V7.19592ZM2.91753 6.34937C2.65968 6.34937 2.4124 6.43856 2.23007 6.59732C2.04774 6.75608 1.94531 6.9714 1.94531 7.19592V8.04248C1.94531 8.267 2.04774 8.48233 2.23007 8.64109C2.4124 8.79985 2.65968 8.88904 2.91753 8.88904H3.88976C4.1476 8.88904 4.39489 8.79985 4.57722 8.64109C4.75955 8.48233 4.86198 8.267 4.86198 8.04248V7.19592C4.86198 6.9714 4.75955 6.75608 4.57722 6.59732C4.39489 6.43856 4.1476 6.34937 3.88976 6.34937H2.91753ZM7.77864 7.19592H6.80642V8.04248H7.77864V7.19592ZM6.80642 6.34937C6.54857 6.34937 6.30128 6.43856 6.11896 6.59732C5.93663 6.75608 5.8342 6.9714 5.8342 7.19592V8.04248C5.8342 8.267 5.93663 8.48233 6.11896 8.64109C6.30128 8.79985 6.54857 8.88904 6.80642 8.88904H7.77864C8.03649 8.88904 8.28378 8.79985 8.46611 8.64109C8.64843 8.48233 8.75086 8.267 8.75086 8.04248V7.19592C8.75086 6.9714 8.64843 6.75608 8.46611 6.59732C8.28378 6.43856 8.03649 6.34937 7.77864 6.34937H6.80642ZM11.6675 7.19592H10.6953V8.04248H11.6675V7.19592ZM10.6953 6.34937C10.4375 6.34937 10.1902 6.43856 10.0078 6.59732C9.82551 6.75608 9.72308 6.9714 9.72308 7.19592V8.04248C9.72308 8.267 9.82551 8.48233 10.0078 8.64109C10.1902 8.79985 10.4375 8.88904 10.6953 8.88904H11.6675C11.9254 8.88904 12.1727 8.79985 12.355 8.64109C12.5373 8.48233 12.6397 8.267 12.6397 8.04248V7.19592C12.6397 6.9714 12.5373 6.75608 12.355 6.59732C12.1727 6.43856 11.9254 6.34937 11.6675 6.34937H10.6953ZM3.88976 10.5822H2.91753V11.4287H3.88976V10.5822ZM2.91753 9.73559C2.65968 9.73559 2.4124 9.82479 2.23007 9.98355C2.04774 10.1423 1.94531 10.3576 1.94531 10.5822V11.4287C1.94531 11.6532 2.04774 11.8686 2.23007 12.0273C2.4124 12.1861 2.65968 12.2753 2.91753 12.2753H3.88976C4.1476 12.2753 4.39489 12.1861 4.57722 12.0273C4.75955 11.8686 4.86198 11.6532 4.86198 11.4287V10.5822C4.86198 10.3576 4.75955 10.1423 4.57722 9.98355C4.39489 9.82479 4.1476 9.73559 3.88976 9.73559H2.91753ZM7.77864 10.5822H6.80642V11.4287H7.77864V10.5822ZM6.80642 9.73559C6.54857 9.73559 6.30128 9.82479 6.11896 9.98355C5.93663 10.1423 5.8342 10.3576 5.8342 10.5822V11.4287C5.8342 11.6532 5.93663 11.8686 6.11896 12.0273C6.30128 12.1861 6.54857 12.2753 6.80642 12.2753H7.77864C8.03649 12.2753 8.28378 12.1861 8.46611 12.0273C8.64843 11.8686 8.75086 11.6532 8.75086 11.4287V10.5822C8.75086 10.3576 8.64843 10.1423 8.46611 9.98355C8.28378 9.82479 8.03649 9.73559 7.77864 9.73559H6.80642Z" fill="#84A4D1"/>
<path fill-rule="evenodd" clip-rule="evenodd" d="M0.972221 2.53961C0.972221 2.42735 1.02344 2.31969 1.1146 2.24031C1.20576 2.16093 1.32941 2.11633 1.45833 2.11633H3.88889V1.26978H1.45833C1.07156 1.26978 0.700626 1.40356 0.427136 1.6417C0.153645 1.87984 0 2.20283 0 2.53961V12.6983C0 13.0351 0.153645 13.3581 0.427136 13.5962C0.700626 13.8343 1.07156 13.9681 1.45833 13.9681H11.3045C11.0972 13.7096 10.9388 13.4238 10.8354 13.1216H1.45833C1.32941 13.1216 1.20576 13.077 1.1146 12.9976C1.02344 12.9182 0.972221 12.8106 0.972221 12.6983V2.53961ZM13.6111 9.3417C13.9335 9.30154 14.2609 9.30154 14.5833 9.3417V2.53961C14.5833 2.20283 14.4297 1.87984 14.1562 1.6417C13.8827 1.40356 13.5118 1.26978 13.125 1.26978H11.6667V2.11633H13.125C13.2539 2.11633 13.3776 2.16093 13.4687 2.24031C13.5599 2.31969 13.6111 2.42735 13.6111 2.53961V9.3417ZM4.86111 2.11633H9.99589V1.26978H4.86111V2.11633Z" fill="#84A4D1"/>
<path fill-rule="evenodd" clip-rule="evenodd" d="M10.6947 1.26978H4.86132V2.53961C4.86132 2.65187 4.81011 2.75953 4.71895 2.83891C4.62778 2.91829 4.50414 2.96289 4.37521 2.96289C4.24629 2.96289 4.12265 2.91829 4.03148 2.83891C3.94032 2.75953 3.8891 2.65187 3.8891 2.53961V1.26978H1.45855C1.2007 1.26978 0.953412 1.35897 0.771085 1.51773C0.588758 1.67649 0.486328 1.89181 0.486328 2.11633V4.23273C0.486328 4.45725 0.588758 4.67257 0.771085 4.83133C0.953412 4.99009 1.2007 5.07928 1.45855 5.07928H13.1252C13.3831 5.07928 13.6303 4.99009 13.8127 4.83133C13.995 4.67257 14.0974 4.45725 14.0974 4.23273V2.11633C14.0974 1.89181 13.995 1.67649 13.8127 1.51773C13.6303 1.35897 13.3831 1.26978 13.1252 1.26978H11.6669V2.53961C11.6669 2.65187 11.6157 2.75953 11.5245 2.83891C11.4333 2.91829 11.3097 2.96289 11.1808 2.96289C11.0518 2.96289 10.9282 2.91829 10.837 2.83891C10.7459 2.75953 10.6947 2.65187 10.6947 2.53961V1.26978Z" fill="#84A4D1"/>
<path fill-rule="evenodd" clip-rule="evenodd" d="M14.5818 5.07947H0.970703V4.23291H14.5818V5.07947Z" fill="#84A4D1"/>
<path d="M2.91797 0.423279C2.91797 0.311018 2.96918 0.203356 3.06035 0.123976C3.15151 0.0445954 3.27515 0 3.40408 0C3.533 0 3.65665 0.0445954 3.74781 0.123976C3.83898 0.203356 3.89019 0.311018 3.89019 0.423279V2.11639C3.89019 2.22865 3.83898 2.33632 3.74781 2.4157C3.65665 2.49508 3.533 2.53967 3.40408 2.53967C3.27515 2.53967 3.15151 2.49508 3.06035 2.4157C2.96918 2.33632 2.91797 2.22865 2.91797 2.11639V0.423279ZM9.72352 0.423279C9.72352 0.311018 9.77473 0.203356 9.8659 0.123976C9.95706 0.0445954 10.0807 0 10.2096 0C10.3386 0 10.4622 0.0445954 10.5534 0.123976C10.6445 0.203356 10.6957 0.311018 10.6957 0.423279V2.11639C10.6957 2.22865 10.6445 2.33632 10.5534 2.4157C10.4622 2.49508 10.3386 2.53967 10.2096 2.53967C10.0807 2.53967 9.95706 2.49508 9.8659 2.4157C9.77473 2.33632 9.72352 2.22865 9.72352 2.11639V0.423279Z" fill="#84A4D1"/>
</svg>
