<svg width="17" height="16" viewBox="0 0 17 16" fill="none" xmlns="http://www.w3.org/2000/svg">
<path fill-rule="evenodd" clip-rule="evenodd" d="M7.50442 0C7.72556 0 7.93765 0.0752549 8.09402 0.209209C8.25039 0.343164 8.33824 0.524845 8.33824 0.714286V2.85714H12.3784C12.8387 2.85714 13.2834 2.99714 13.6347 3.25143L15.9361 4.9181C16.1519 5.07455 16.3254 5.26944 16.4444 5.48918C16.5634 5.70892 16.625 5.94824 16.625 6.19048C16.625 6.43271 16.5634 6.67203 16.4444 6.89177C16.3254 7.11152 16.1519 7.3064 15.9361 7.46286L13.6347 9.12952C13.2835 9.38405 12.8384 9.52374 12.3784 9.52381H8.33824V14.5238C8.33824 14.7133 8.25039 14.8949 8.09402 15.0289C7.93765 15.1628 7.72556 15.2381 7.50442 15.2381C7.28328 15.2381 7.07119 15.1628 6.91482 15.0289C6.75844 14.8949 6.6706 14.7133 6.6706 14.5238V9.52381H1.94559C1.42959 9.52381 0.934719 9.34822 0.56985 9.03566C0.204981 8.72309 0 8.29917 0 7.85714V4.52381C0 3.60381 0.871624 2.85714 1.94559 2.85714H6.6706V0.714286C6.6706 0.524845 6.75844 0.343164 6.91482 0.209209C7.07119 0.0752549 7.28328 0 7.50442 0V0ZM7.50442 8.09524H12.3784C12.4441 8.0949 12.5075 8.07466 12.5574 8.03809L14.8588 6.37143C14.8893 6.34908 14.9138 6.32133 14.9306 6.29009C14.9474 6.25885 14.9561 6.22487 14.9561 6.19048C14.9561 6.15608 14.9474 6.1221 14.9306 6.09086C14.9138 6.05963 14.8893 6.03188 14.8588 6.00952L12.5574 4.34286C12.5075 4.30629 12.4441 4.28605 12.3784 4.28571H1.94559C1.87188 4.28571 1.80118 4.3108 1.74906 4.35545C1.69693 4.4001 1.66765 4.46066 1.66765 4.52381V7.85714C1.66765 7.98857 1.79217 8.09524 1.94559 8.09524H7.50442Z" fill="#84A4D1"/>
</svg>
