<svg width="16" height="16" viewBox="0 0 16 16" fill="none" xmlns="http://www.w3.org/2000/svg">
<path d="M6.65 9.33333L4.76875 7.69524C4.60833 7.55556 4.40417 7.48571 4.15625 7.48571C3.90833 7.48571 3.70417 7.55556 3.54375 7.69524C3.38333 7.83492 3.30313 8.0127 3.30313 8.22857C3.30313 8.44444 3.38333 8.62222 3.54375 8.7619L6.0375 10.9333C6.19792 11.073 6.40208 11.1429 6.65 11.1429C6.89792 11.1429 7.10208 11.073 7.2625 10.9333L12.2063 6.62857C12.3667 6.48889 12.4469 6.31111 12.4469 6.09524C12.4469 5.87937 12.3667 5.70159 12.2063 5.5619C12.0458 5.42222 11.8417 5.35238 11.5938 5.35238C11.3458 5.35238 11.1417 5.42222 10.9812 5.5619L6.65 9.33333ZM1.75 15.2381C1.26875 15.2381 0.856625 15.089 0.513625 14.7909C0.171208 14.4922 0 14.1333 0 13.7143V3.04762C0 2.62857 0.171208 2.26971 0.513625 1.97105C0.856625 1.67289 1.26875 1.52381 1.75 1.52381H5.425C5.61458 1.06667 5.93192 0.698413 6.377 0.419048C6.8215 0.139683 7.32083 0 7.875 0C8.42917 0 8.92879 0.139683 9.37388 0.419048C9.81838 0.698413 10.1354 1.06667 10.325 1.52381H14C14.4813 1.52381 14.8934 1.67289 15.2364 1.97105C15.5788 2.26971 15.75 2.62857 15.75 3.04762V13.7143C15.75 14.1333 15.5788 14.4922 15.2364 14.7909C14.8934 15.089 14.4813 15.2381 14 15.2381H1.75ZM7.875 2.47619C8.06458 2.47619 8.2215 2.4221 8.34575 2.31391C8.46942 2.20622 8.53125 2.06984 8.53125 1.90476C8.53125 1.73968 8.46942 1.60305 8.34575 1.49486C8.2215 1.38717 8.06458 1.33333 7.875 1.33333C7.68542 1.33333 7.52879 1.38717 7.40513 1.49486C7.28088 1.60305 7.21875 1.73968 7.21875 1.90476C7.21875 2.06984 7.28088 2.20622 7.40513 2.31391C7.52879 2.4221 7.68542 2.47619 7.875 2.47619Z" fill="#84A4D1"/>
</svg>
