<svg width="33" height="38" viewBox="0 0 33 38" fill="none" xmlns="http://www.w3.org/2000/svg">
<path d="M9.36045 0C9.66677 0 9.96055 0.140125 10.1772 0.389548C10.3938 0.638971 10.5155 0.977262 10.5155 1.33V3.8171H22.9185V1.3471C22.9185 0.994362 23.0402 0.656071 23.2568 0.406648C23.4734 0.157225 23.7672 0.0171 24.0735 0.0171C24.3798 0.0171 24.6736 0.157225 24.8902 0.406648C25.1068 0.656071 25.2285 0.994362 25.2285 1.3471V3.8171H29.7C30.5749 3.8171 31.414 4.21719 32.0329 4.92942C32.6517 5.64165 32.9996 6.60771 33 7.6152V34.2019C32.9996 35.2094 32.6517 36.1755 32.0329 36.8877C31.414 37.5999 30.5749 38 29.7 38H3.3C2.42507 38 1.58595 37.5999 0.967131 36.8877C0.348308 36.1755 0.000437464 35.2094 0 34.2019L0 7.6152C0.000437464 6.60771 0.348308 5.64165 0.967131 4.92942C1.58595 4.21719 2.42507 3.8171 3.3 3.8171H8.20545V1.3281C8.20589 0.975691 8.32777 0.637889 8.54432 0.388876C8.76088 0.139863 9.05441 -3.596e-07 9.36045 0V0ZM2.31 14.7098V34.2019C2.31 34.3516 2.33561 34.4998 2.38536 34.6382C2.43511 34.7765 2.50803 34.9021 2.59996 35.008C2.69189 35.1139 2.80103 35.1978 2.92114 35.2551C3.04126 35.3124 3.16999 35.3419 3.3 35.3419H29.7C29.83 35.3419 29.9587 35.3124 30.0789 35.2551C30.199 35.1978 30.3081 35.1139 30.4 35.008C30.492 34.9021 30.5649 34.7765 30.6146 34.6382C30.6644 34.4998 30.69 34.3516 30.69 34.2019V14.7364L2.31 14.7098ZM11.0005 27.7761V30.9415H8.25V27.7761H11.0005ZM17.8745 27.7761V30.9415H15.1255V27.7761H17.8745ZM24.75 27.7761V30.9415H21.9994V27.7761H24.75ZM11.0005 20.2198V23.3852H8.25V20.2198H11.0005ZM17.8745 20.2198V23.3852H15.1255V20.2198H17.8745ZM24.75 20.2198V23.3852H21.9994V20.2198H24.75ZM8.20545 6.4752H3.3C3.16999 6.4752 3.04126 6.50469 2.92114 6.56198C2.80103 6.61927 2.69189 6.70324 2.59996 6.8091C2.50803 6.91496 2.43511 7.04063 2.38536 7.17894C2.33561 7.31725 2.31 7.46549 2.31 7.6152V12.0517L30.69 12.0783V7.6152C30.69 7.46549 30.6644 7.31725 30.6146 7.17894C30.5649 7.04063 30.492 6.91496 30.4 6.8091C30.3081 6.70324 30.199 6.61927 30.0789 6.56198C29.9587 6.50469 29.83 6.4752 29.7 6.4752H25.2285V8.2403C25.2285 8.59304 25.1068 8.93133 24.8902 9.18075C24.6736 9.43018 24.3798 9.5703 24.0735 9.5703C23.7672 9.5703 23.4734 9.43018 23.2568 9.18075C23.0402 8.93133 22.9185 8.59304 22.9185 8.2403V6.4752H10.5155V8.2232C10.5155 8.57594 10.3938 8.91423 10.1772 9.16365C9.96055 9.41308 9.66677 9.5532 9.36045 9.5532C9.05412 9.5532 8.76035 9.41308 8.54374 9.16365C8.32714 8.91423 8.20545 8.57594 8.20545 8.2232V6.4752V6.4752Z" fill="#57575A"/>
</svg>
