<svg width="36" height="41" viewBox="0 0 36 41" fill="none" xmlns="http://www.w3.org/2000/svg">
<path d="M32.5108 31.6953C31.5465 30.7162 30.7022 29.5939 30.0008 28.3583C29.235 26.6529 28.776 24.7905 28.6508 22.8803V17.2542C28.6574 14.2539 27.7018 11.3541 25.9635 9.09971C24.2252 6.84528 21.8239 5.39136 19.2108 5.01113V3.54196C19.2108 3.13872 19.0701 2.752 18.8198 2.46687C18.5694 2.18173 18.2298 2.02155 17.8758 2.02155C17.5217 2.02155 17.1822 2.18173 16.9318 2.46687C16.6814 2.752 16.5408 3.13872 16.5408 3.54196V5.03391C13.951 5.44155 11.5788 6.90425 9.86331 9.15111C8.14787 11.398 7.20551 14.2767 7.21078 17.2542V22.8803C7.08554 24.7905 6.62656 26.6529 5.86078 28.3583C5.17166 29.591 4.34098 30.7133 3.39078 31.6953C3.28411 31.802 3.19862 31.9334 3.14 32.0807C3.08137 32.2279 3.05096 32.3878 3.05078 32.5495V34.0984C3.05078 34.4004 3.15614 34.6901 3.34367 34.9037C3.53121 35.1172 3.78557 35.2372 4.05078 35.2372H31.8508C32.116 35.2372 32.3704 35.1172 32.5579 34.9037C32.7454 34.6901 32.8508 34.4004 32.8508 34.0984V32.5495C32.8506 32.3878 32.8202 32.2279 32.7616 32.0807C32.7029 31.9334 32.6174 31.802 32.5108 31.6953ZM5.13078 32.9595C6.06119 31.9358 6.88038 30.7887 7.57078 29.5428C8.53539 27.4831 9.09821 25.2105 9.22078 22.8803V17.2542C9.18112 15.9194 9.37771 14.5893 9.79883 13.3429C10.2199 12.0965 10.857 10.9593 11.672 9.99912C12.4871 9.03894 13.4634 8.27537 14.543 7.75388C15.6225 7.23239 16.7831 6.96365 17.9558 6.96365C19.1284 6.96365 20.2891 7.23239 21.3686 7.75388C22.4481 8.27537 23.4245 9.03894 24.2395 9.99912C25.0546 10.9593 25.6916 12.0965 26.1127 13.3429C26.5339 14.5893 26.7304 15.9194 26.6908 17.2542V22.8803C26.8134 25.2105 27.3762 27.4831 28.3408 29.5428C29.0312 30.7887 29.8504 31.9358 30.7808 32.9595H5.13078Z" fill="#57575A"/>
<path d="M18.0003 39.0411C18.6302 39.0246 19.2348 38.7549 19.7069 38.2797C20.1791 37.8045 20.4884 37.1544 20.5803 36.4445H15.3203C15.4148 37.1737 15.7386 37.839 16.2316 38.3167C16.7246 38.7943 17.3531 39.0518 18.0003 39.0411Z" fill="#57575A"/>
</svg>
