<svg width="32" height="35" viewBox="0 0 32 35" fill="none" xmlns="http://www.w3.org/2000/svg">
<path d="M16 2.5C23.5429 2.5 29.7143 9.25 29.7143 17.5C29.7143 25.75 23.5429 32.5 16 32.5C8.45714 32.5 2.28571 25.75 2.28571 17.5C2.28571 9.25 8.45714 2.5 16 2.5ZM16 0C7.2 0 0 7.875 0 17.5C0 27.125 7.2 35 16 35C24.8 35 32 27.125 32 17.5C32 7.875 24.8 0 16 0Z" fill="#57575A"/>
<path d="M25.1431 16.25H17.1431V7.5H14.8574V16.25H6.85742V18.75H14.8574V27.5H17.1431V18.75H25.1431V16.25Z" fill="#57575A"/>
</svg>
