<svg width="32" height="39" viewBox="0 0 32 39" fill="none" xmlns="http://www.w3.org/2000/svg">
<path d="M25.6843 17.3827C25.8262 17.2506 25.9399 17.0912 26.0188 16.9141C26.0977 16.737 26.1402 16.5458 26.1436 16.352C26.147 16.1581 26.1114 15.9655 26.0387 15.7858C25.9661 15.606 25.8581 15.4427 25.721 15.3056C25.5839 15.1685 25.4206 15.0604 25.2408 14.9878C25.061 14.9152 24.8685 14.8795 24.6746 14.883C24.4808 14.8864 24.2896 14.9288 24.1125 15.0077C23.9354 15.0866 23.776 15.2004 23.6438 15.3422L14.0766 24.9095L10.2843 21.1173C10.0106 20.8622 9.64864 20.7234 9.27461 20.73C8.90058 20.7366 8.54371 20.8881 8.27919 21.1526C8.01467 21.4171 7.86315 21.774 7.85655 22.148C7.84995 22.5221 7.98879 22.8841 8.24381 23.1577L13.0563 27.9703C13.327 28.2406 13.694 28.3925 14.0766 28.3925C14.4592 28.3925 14.8261 28.2406 15.0968 27.9703L25.6843 17.3827ZM23.69 4.0117C23.6093 2.92123 23.1192 1.90163 22.318 1.15754C21.5168 0.413448 20.4638 -6.40981e-05 19.3703 7.45246e-09H12.6328C11.5674 3.21946e-05 10.5395 0.392713 9.74539 1.10297C8.95133 1.81323 8.44689 2.79123 8.32851 3.85H4.93281C3.78409 3.85 2.68242 4.30633 1.87016 5.11859C1.05789 5.93086 0.601562 7.03253 0.601562 8.18125V34.1688C0.601563 35.3175 1.05789 36.4191 1.87016 37.2314C2.68242 38.0437 3.78409 38.5 4.93281 38.5H27.0703C27.6391 38.5 28.2023 38.388 28.7278 38.1703C29.2533 37.9526 29.7308 37.6336 30.133 37.2314C30.5352 36.8292 30.8542 36.3517 31.0719 35.8262C31.2895 35.3008 31.4016 34.7375 31.4016 34.1688V8.18125C31.4016 7.61246 31.2895 7.04924 31.0719 6.52375C30.8542 5.99826 30.5352 5.52079 30.133 5.11859C29.7308 4.7164 29.2533 4.39736 28.7278 4.1797C28.2023 3.96203 27.6391 3.85 27.0703 3.85H23.6746L23.69 4.0117ZM23.69 4.0348L23.7016 4.33125C23.7016 4.23115 23.6977 4.13298 23.6919 4.0348H23.69ZM12.6328 8.6625H19.3703C20.8718 8.6625 22.1943 7.89827 22.972 6.7375H27.0703C27.4532 6.7375 27.8204 6.88961 28.0912 7.16036C28.362 7.43112 28.5141 7.79834 28.5141 8.18125V34.1688C28.5141 34.5517 28.362 34.9189 28.0912 35.1896C27.8204 35.4604 27.4532 35.6125 27.0703 35.6125H4.93281C4.54991 35.6125 4.18268 35.4604 3.91193 35.1896C3.64117 34.9189 3.48906 34.5517 3.48906 34.1688V8.18125C3.48906 7.79834 3.64117 7.43112 3.91193 7.16036C4.18268 6.88961 4.54991 6.7375 4.93281 6.7375H9.03114C9.80884 7.89827 11.1313 8.6625 12.6328 8.6625ZM12.6328 2.8875H19.3703C19.7532 2.8875 20.1204 3.03961 20.3912 3.31036C20.662 3.58112 20.8141 3.94834 20.8141 4.33125C20.8141 4.71416 20.662 5.08138 20.3912 5.35214C20.1204 5.62289 19.7532 5.775 19.3703 5.775H12.6328C12.2499 5.775 11.8827 5.62289 11.6119 5.35214C11.3412 5.08138 11.1891 4.71416 11.1891 4.33125C11.1891 3.94834 11.3412 3.58112 11.6119 3.31036C11.8827 3.03961 12.2499 2.8875 12.6328 2.8875Z" fill="#57575A"/>
</svg>
