<svg width="23" height="15" viewBox="0 0 23 15" fill="none" xmlns="http://www.w3.org/2000/svg">
<path d="M0.5625 2.01017C0.5625 1.70667 0.677734 1.41561 0.882852 1.20101C1.08797 0.986407 1.36617 0.865845 1.65625 0.865845H21.3438C21.6338 0.865845 21.912 0.986407 22.1171 1.20101C22.3223 1.41561 22.4375 1.70667 22.4375 2.01017C22.4375 2.31366 22.3223 2.60472 22.1171 2.81932C21.912 3.03393 21.6338 3.15449 21.3438 3.15449H1.65625C1.36617 3.15449 1.08797 3.03393 0.882852 2.81932C0.677734 2.60472 0.5625 2.31366 0.5625 2.01017ZM0.5625 7.73178C0.5625 7.42829 0.677734 7.13722 0.882852 6.92262C1.08797 6.70802 1.36617 6.58746 1.65625 6.58746H21.3438C21.6338 6.58746 21.912 6.70802 22.1171 6.92262C22.3223 7.13722 22.4375 7.42829 22.4375 7.73178C22.4375 8.03527 22.3223 8.32633 22.1171 8.54094C21.912 8.75554 21.6338 8.8761 21.3438 8.8761H1.65625C1.36617 8.8761 1.08797 8.75554 0.882852 8.54094C0.677734 8.32633 0.5625 8.03527 0.5625 7.73178ZM0.5625 13.4534C0.5625 13.1499 0.677734 12.8588 0.882852 12.6442C1.08797 12.4296 1.36617 12.3091 1.65625 12.3091H12.5938C12.8838 12.3091 13.162 12.4296 13.3671 12.6442C13.5723 12.8588 13.6875 13.1499 13.6875 13.4534C13.6875 13.7569 13.5723 14.0479 13.3671 14.2625C13.162 14.4772 12.8838 14.5977 12.5938 14.5977H1.65625C1.36617 14.5977 1.08797 14.4772 0.882852 14.2625C0.677734 14.0479 0.5625 13.7569 0.5625 13.4534Z" fill="#57575A"/>
</svg>
