<svg width="41" height="38" viewBox="0 0 41 38" fill="none" xmlns="http://www.w3.org/2000/svg">
<path d="M20.0857 0C9.01045 0 0 8.5234 0 19C0 29.4766 9.01045 38 20.0857 38C31.161 38 40.1714 29.4766 40.1714 19C40.1714 8.5234 31.161 0 20.0857 0ZM20.0857 34.2C11.2259 34.2 4.01714 27.3809 4.01714 19C4.01714 10.6191 11.2259 3.8 20.0857 3.8C28.9455 3.8 36.1543 10.6191 36.1543 19C36.1543 27.3809 28.9455 34.2 20.0857 34.2Z" fill="#57575A" fill-opacity="0.75"/>
<path d="M22.0933 9.5H18.0762V20.9H30.1276V17.1H22.0933V9.5Z" fill="#57575A" fill-opacity="0.75"/>
</svg>
