<svg width="62" height="26" viewBox="0 0 62 26" fill="none" xmlns="http://www.w3.org/2000/svg">
<path d="M60.8174 9.26647C60.7168 9.182 60.5974 9.11498 60.4658 9.06926C60.3343 9.02354 60.1934 9 60.051 9C59.9086 9 59.7677 9.02354 59.6361 9.06926C59.5046 9.11498 59.3852 9.182 59.2846 9.26647L55.0668 12.8018L50.849 9.26647C50.6457 9.0961 50.3701 9.00039 50.0826 9.00039C49.7952 9.00039 49.5195 9.0961 49.3162 9.26647C49.113 9.43684 48.9988 9.66791 48.9988 9.90885C48.9988 10.1498 49.113 10.3809 49.3162 10.5512L54.3059 14.7335C54.4064 14.818 54.5259 14.885 54.6574 14.9307C54.7889 14.9765 54.9299 15 55.0722 15C55.2146 15 55.3556 14.9765 55.4871 14.9307C55.6186 14.885 55.7381 14.818 55.8386 14.7335L60.8283 10.5512C61.2413 10.205 61.2413 9.62183 60.8174 9.26647Z" fill="#57575A"/>
<path d="M7.904 15.728H3.248L2.448 18H0.544L4.528 6.864H6.64L10.624 18H8.704L7.904 15.728ZM7.392 14.24L5.584 9.072L3.76 14.24H7.392ZM13.5402 10.496C13.8496 10.0693 14.2709 9.72267 14.8042 9.456C15.3482 9.17867 15.9509 9.04 16.6122 9.04C17.3909 9.04 18.0949 9.22667 18.7242 9.6C19.3536 9.97333 19.8496 10.5067 20.2122 11.2C20.5749 11.8827 20.7563 12.6667 20.7563 13.552C20.7563 14.4373 20.5749 15.232 20.2122 15.936C19.8496 16.6293 19.3483 17.1733 18.7083 17.568C18.0789 17.952 17.3802 18.144 16.6122 18.144C15.9296 18.144 15.3216 18.0107 14.7882 17.744C14.2656 17.4773 13.8496 17.136 13.5402 16.72V18H11.7162V6.16H13.5402V10.496ZM18.9003 13.552C18.9003 12.944 18.7723 12.4213 18.5162 11.984C18.2709 11.536 17.9403 11.2 17.5243 10.976C17.1189 10.7413 16.6816 10.624 16.2122 10.624C15.7536 10.624 15.3163 10.7413 14.9002 10.976C14.4949 11.2107 14.1642 11.552 13.9082 12C13.6629 12.448 13.5402 12.976 13.5402 13.584C13.5402 14.192 13.6629 14.7253 13.9082 15.184C14.1642 15.632 14.4949 15.9733 14.9002 16.208C15.3163 16.4427 15.7536 16.56 16.2122 16.56C16.6816 16.56 17.1189 16.4427 17.5243 16.208C17.9403 15.9627 18.2709 15.6107 18.5162 15.152C18.7723 14.6933 18.9003 14.16 18.9003 13.552ZM21.312 13.584C21.312 12.6773 21.4933 11.8827 21.856 11.2C22.2293 10.5067 22.7413 9.97333 23.392 9.6C24.0427 9.22667 24.7893 9.04 25.632 9.04C26.6987 9.04 27.5787 9.296 28.272 9.808C28.976 10.3093 29.4507 11.0293 29.696 11.968H27.728C27.568 11.5307 27.312 11.1893 26.96 10.944C26.608 10.6987 26.1653 10.576 25.632 10.576C24.8853 10.576 24.288 10.8427 23.84 11.376C23.4027 11.8987 23.184 12.6347 23.184 13.584C23.184 14.5333 23.4027 15.2747 23.84 15.808C24.288 16.3413 24.8853 16.608 25.632 16.608C26.688 16.608 27.3867 16.144 27.728 15.216H29.696C29.44 16.112 28.96 16.8267 28.256 17.36C27.552 17.8827 26.6773 18.144 25.632 18.144C24.7893 18.144 24.0427 17.9573 23.392 17.584C22.7413 17.2 22.2293 16.6667 21.856 15.984C21.4933 15.2907 21.312 14.4907 21.312 13.584ZM30.2657 13.552C30.2657 12.6667 30.4471 11.8827 30.8097 11.2C31.1831 10.5173 31.6844 9.98933 32.3138 9.616C32.9538 9.232 33.6631 9.04 34.4418 9.04C35.0178 9.04 35.5831 9.168 36.1378 9.424C36.7031 9.66933 37.1511 10 37.4818 10.416V6.16H39.3218V18H37.4818V16.672C37.1831 17.0987 36.7671 17.4507 36.2338 17.728C35.7111 18.0053 35.1084 18.144 34.4258 18.144C33.6578 18.144 32.9538 17.952 32.3138 17.568C31.6844 17.1733 31.1831 16.6293 30.8097 15.936C30.4471 15.232 30.2657 14.4373 30.2657 13.552ZM37.4818 13.584C37.4818 12.976 37.3538 12.448 37.0978 12C36.8524 11.552 36.5271 11.2107 36.1218 10.976C35.7164 10.7413 35.2791 10.624 34.8098 10.624C34.3404 10.624 33.9031 10.7413 33.4978 10.976C33.0924 11.2 32.7617 11.536 32.5057 11.984C32.2604 12.4213 32.1378 12.944 32.1378 13.552C32.1378 14.16 32.2604 14.6933 32.5057 15.152C32.7617 15.6107 33.0924 15.9627 33.4978 16.208C33.9138 16.4427 34.3511 16.56 34.8098 16.56C35.2791 16.56 35.7164 16.4427 36.1218 16.208C36.5271 15.9733 36.8524 15.632 37.0978 15.184C37.3538 14.7253 37.4818 14.192 37.4818 13.584Z" fill="#57575A"/>
</svg>
