<svg width="41" height="38" viewBox="0 0 41 38" fill="none" xmlns="http://www.w3.org/2000/svg">
<path d="M21.961 0.561854C21.7705 0.383821 21.5438 0.242513 21.2941 0.146081C21.0443 0.0496483 20.7765 0 20.5059 0C20.2354 0 19.9675 0.0496483 19.7178 0.146081C19.468 0.242513 19.2414 0.383821 19.0508 0.561854L0.60621 17.6569C0.414123 17.8335 0.261659 18.0436 0.157613 18.275C0.0535678 18.5065 0 18.7548 0 19.0055C0 19.2563 0.0535678 19.5045 0.157613 19.736C0.261659 19.9675 0.414123 20.1775 0.60621 20.3541C0.797707 20.5302 1.02481 20.6694 1.27451 20.764C1.5242 20.8585 1.79157 20.9064 2.06129 20.905H4.11069V34.2011C4.11069 35.2086 4.54253 36.1749 5.3112 36.8873C6.07988 37.5998 7.12243 38 8.2095 38H32.8023C33.8894 38 34.932 37.5998 35.7006 36.8873C36.4693 36.1749 36.9012 35.2086 36.9012 34.2011V20.905H38.9506C39.4941 20.905 40.0154 20.7048 40.3997 20.3486C40.784 19.9924 41 19.5093 41 19.0055C41.0015 18.7555 40.9498 18.5077 40.8478 18.2763C40.7459 18.0449 40.5956 17.8344 40.4056 17.6569L21.961 0.561854ZM8.2095 34.2011V15.9854L20.5059 4.58869L32.8023 15.9854V34.2011H8.2095Z" fill="#57575A" fill-opacity="0.91"/>
</svg>
