<svg width="35" height="38" viewBox="0 0 35 38" fill="none" xmlns="http://www.w3.org/2000/svg">
<path d="M35 36.0126L25.2233 25.3979C27.5727 22.3356 28.7443 18.4079 28.4943 14.4317C28.2443 10.4555 26.592 6.73699 23.8811 4.04977C21.1703 1.36254 17.6095 -0.086533 13.9397 0.00400043C10.2698 0.0945339 6.7734 1.7177 4.17775 4.53584C1.58209 7.35397 0.0870707 11.1501 0.00368461 15.1345C-0.0797015 19.1189 1.25497 22.9849 3.73005 25.9281C6.20512 28.8713 9.63004 30.6652 13.2923 30.9367C16.9546 31.2081 20.5723 29.9361 23.3928 27.3853L33.1695 38L35 36.0126ZM2.63546 15.5113C2.63546 13.0093 3.31879 10.5636 4.59905 8.48335C5.8793 6.40308 7.69897 4.78171 9.82796 3.82427C11.9569 2.86683 14.2996 2.61632 16.5597 3.10442C18.8199 3.59252 20.8959 4.79731 22.5254 6.56643C24.1548 8.33555 25.2645 10.5895 25.7141 13.0434C26.1636 15.4972 25.9329 18.0407 25.051 20.3522C24.1692 22.6636 22.6758 24.6393 20.7598 26.0293C18.8437 27.4193 16.5911 28.1612 14.2867 28.1612C11.1976 28.1575 8.2361 26.8235 6.05181 24.452C3.86752 22.0805 2.63888 18.8651 2.63546 15.5113Z" fill="#57575A"/>
</svg>
